<mxfile host="app.diagrams.net" agent="Mozilla/5.0 (Windows NT 10.0; Win64; x64) AppleWebKit/537.36 (KHTML, like Gecko) Chrome/140.0.0.0 Safari/537.36 Edg/140.0.0.0" version="28.2.3">
  <diagram name="第 1 页" id="g4yIUhB4_06C1jpE5Amc">
    <mxGraphModel dx="1134" dy="605" grid="1" gridSize="10" guides="1" tooltips="1" connect="1" arrows="1" fold="1" page="1" pageScale="1" pageWidth="827" pageHeight="1169" math="0" shadow="0">
      <root>
        <mxCell id="0" />
        <mxCell id="1" parent="0" />
        <mxCell id="U0qxjCa6BcXq7xHl4qRt-1" value="" style="rounded=1;whiteSpace=wrap;html=1;fillColor=none;strokeColor=#6c8ebf;align=center;verticalAlign=middle;arcSize=7;fontFamily=Helvetica;fontSize=12;" vertex="1" parent="1">
          <mxGeometry x="330" y="390" width="250" height="120" as="geometry" />
        </mxCell>
        <mxCell id="U0qxjCa6BcXq7xHl4qRt-2" value="stem" style="rounded=0;whiteSpace=wrap;html=1;fillColor=#ffe6cc;strokeColor=#d79b00;opacity=30;" vertex="1" parent="1">
          <mxGeometry x="399" y="470" width="101" height="21" as="geometry" />
        </mxCell>
        <mxCell id="U0qxjCa6BcXq7xHl4qRt-3" value="ResNetBlock" style="rounded=0;whiteSpace=wrap;html=1;fillColor=#1ba1e2;fontColor=#ffffff;strokeColor=#006EAF;opacity=40;" vertex="1" parent="1">
          <mxGeometry x="380" y="400" width="140" height="51" as="geometry" />
        </mxCell>
        <mxCell id="U0qxjCa6BcXq7xHl4qRt-5" value="" style="rounded=1;whiteSpace=wrap;html=1;fillColor=#d5e8d4;strokeColor=#82b366;align=center;verticalAlign=middle;arcSize=7;fontFamily=Helvetica;fontSize=12;opacity=60;" vertex="1" parent="1">
          <mxGeometry x="320" y="260" width="120" height="90" as="geometry" />
        </mxCell>
        <mxCell id="U0qxjCa6BcXq7xHl4qRt-6" value="" style="rounded=1;whiteSpace=wrap;html=1;fillColor=#d5e8d4;strokeColor=#82b366;align=center;verticalAlign=middle;arcSize=7;fontFamily=Helvetica;fontSize=12;opacity=60;" vertex="1" parent="1">
          <mxGeometry x="460" y="260" width="120" height="90" as="geometry" />
        </mxCell>
        <mxCell id="U0qxjCa6BcXq7xHl4qRt-7" value="global_branch" style="text;html=1;align=center;verticalAlign=middle;resizable=0;points=[];autosize=1;strokeColor=none;fillColor=none;" vertex="1" parent="1">
          <mxGeometry x="310" y="260" width="100" height="30" as="geometry" />
        </mxCell>
        <mxCell id="U0qxjCa6BcXq7xHl4qRt-9" value="" style="endArrow=classic;html=1;rounded=0;exitX=0.5;exitY=0;exitDx=0;exitDy=0;" edge="1" parent="1" source="U0qxjCa6BcXq7xHl4qRt-11">
          <mxGeometry width="50" height="50" relative="1" as="geometry">
            <mxPoint x="580" y="310" as="sourcePoint" />
            <mxPoint x="460" y="200" as="targetPoint" />
            <Array as="points" />
          </mxGeometry>
        </mxCell>
        <mxCell id="U0qxjCa6BcXq7xHl4qRt-10" value="" style="endArrow=classic;html=1;rounded=0;exitX=0.5;exitY=0;exitDx=0;exitDy=0;" edge="1" parent="1" source="U0qxjCa6BcXq7xHl4qRt-5">
          <mxGeometry width="50" height="50" relative="1" as="geometry">
            <mxPoint x="380" y="275" as="sourcePoint" />
            <mxPoint x="440" y="200" as="targetPoint" />
            <Array as="points">
              <mxPoint x="380" y="200" />
            </Array>
          </mxGeometry>
        </mxCell>
        <mxCell id="U0qxjCa6BcXq7xHl4qRt-12" value="" style="endArrow=classic;html=1;rounded=0;exitX=0.5;exitY=0;exitDx=0;exitDy=0;" edge="1" parent="1" source="U0qxjCa6BcXq7xHl4qRt-6" target="U0qxjCa6BcXq7xHl4qRt-11">
          <mxGeometry width="50" height="50" relative="1" as="geometry">
            <mxPoint x="520" y="275" as="sourcePoint" />
            <mxPoint x="460" y="200" as="targetPoint" />
            <Array as="points">
              <mxPoint x="520" y="200" />
            </Array>
          </mxGeometry>
        </mxCell>
        <mxCell id="U0qxjCa6BcXq7xHl4qRt-17" value="" style="edgeStyle=orthogonalEdgeStyle;rounded=0;orthogonalLoop=1;jettySize=auto;html=1;" edge="1" parent="1" source="U0qxjCa6BcXq7xHl4qRt-11" target="U0qxjCa6BcXq7xHl4qRt-16">
          <mxGeometry relative="1" as="geometry" />
        </mxCell>
        <mxCell id="U0qxjCa6BcXq7xHl4qRt-11" value="" style="shape=orEllipse;perimeter=ellipsePerimeter;whiteSpace=wrap;html=1;backgroundOutline=1;" vertex="1" parent="1">
          <mxGeometry x="440" y="190" width="20" height="20" as="geometry" />
        </mxCell>
        <mxCell id="U0qxjCa6BcXq7xHl4qRt-13" value="" style="endArrow=classic;html=1;rounded=0;" edge="1" parent="1">
          <mxGeometry width="50" height="50" relative="1" as="geometry">
            <mxPoint x="480" y="390" as="sourcePoint" />
            <mxPoint x="520" y="350" as="targetPoint" />
          </mxGeometry>
        </mxCell>
        <mxCell id="U0qxjCa6BcXq7xHl4qRt-14" value="" style="endArrow=classic;html=1;rounded=0;entryX=0.5;entryY=1;entryDx=0;entryDy=0;exitX=0.347;exitY=-0.002;exitDx=0;exitDy=0;exitPerimeter=0;" edge="1" parent="1" source="U0qxjCa6BcXq7xHl4qRt-1" target="U0qxjCa6BcXq7xHl4qRt-5">
          <mxGeometry width="50" height="50" relative="1" as="geometry">
            <mxPoint x="330" y="400" as="sourcePoint" />
            <mxPoint x="610" y="360" as="targetPoint" />
          </mxGeometry>
        </mxCell>
        <mxCell id="U0qxjCa6BcXq7xHl4qRt-15" value="local_branch" style="text;html=1;align=center;verticalAlign=middle;resizable=0;points=[];autosize=1;strokeColor=none;fillColor=none;" vertex="1" parent="1">
          <mxGeometry x="500" y="260" width="90" height="30" as="geometry" />
        </mxCell>
        <mxCell id="U0qxjCa6BcXq7xHl4qRt-16" value="pred_head" style="rounded=0;whiteSpace=wrap;html=1;fillColor=none;" vertex="1" parent="1">
          <mxGeometry x="389.75" y="130" width="120.25" height="31" as="geometry" />
        </mxCell>
        <mxCell id="U0qxjCa6BcXq7xHl4qRt-18" value="" style="endArrow=none;dashed=1;html=1;rounded=0;entryX=0;entryY=0;entryDx=0;entryDy=0;exitX=0.967;exitY=0.003;exitDx=0;exitDy=0;exitPerimeter=0;" edge="1" parent="1" source="U0qxjCa6BcXq7xHl4qRt-20" target="U0qxjCa6BcXq7xHl4qRt-3">
          <mxGeometry width="50" height="50" relative="1" as="geometry">
            <mxPoint x="250" y="360" as="sourcePoint" />
            <mxPoint x="630" y="260" as="targetPoint" />
          </mxGeometry>
        </mxCell>
        <mxCell id="U0qxjCa6BcXq7xHl4qRt-19" value="" style="endArrow=none;dashed=1;html=1;dashPattern=1 3;strokeWidth=2;rounded=0;entryX=0;entryY=1;entryDx=0;entryDy=0;exitX=0.972;exitY=1;exitDx=0;exitDy=0;exitPerimeter=0;" edge="1" parent="1" source="U0qxjCa6BcXq7xHl4qRt-20" target="U0qxjCa6BcXq7xHl4qRt-3">
          <mxGeometry width="50" height="50" relative="1" as="geometry">
            <mxPoint x="240" y="490" as="sourcePoint" />
            <mxPoint x="630" y="260" as="targetPoint" />
          </mxGeometry>
        </mxCell>
        <mxCell id="U0qxjCa6BcXq7xHl4qRt-20" value="" style="rounded=1;whiteSpace=wrap;html=1;fillColor=none;arcSize=7;strokeColor=light-dark(#000305, #51afe7);fontColor=#ffffff;opacity=30;" vertex="1" parent="1">
          <mxGeometry x="10" y="390" width="260" height="154.5" as="geometry" />
        </mxCell>
        <mxCell id="U0qxjCa6BcXq7xHl4qRt-21" value="" style="rounded=1;whiteSpace=wrap;html=1;fillColor=none;arcSize=7;strokeColor=light-dark(#330000,#51AFE7);opacity=30;" vertex="1" parent="1">
          <mxGeometry x="630" y="431" width="250" height="129" as="geometry" />
        </mxCell>
        <mxCell id="U0qxjCa6BcXq7xHl4qRt-22" value="" style="endArrow=none;dashed=1;html=1;dashPattern=1 3;strokeWidth=2;rounded=0;entryX=0.036;entryY=0.016;entryDx=0;entryDy=0;exitX=1;exitY=0.25;exitDx=0;exitDy=0;entryPerimeter=0;" edge="1" parent="1" source="U0qxjCa6BcXq7xHl4qRt-2" target="U0qxjCa6BcXq7xHl4qRt-21">
          <mxGeometry width="50" height="50" relative="1" as="geometry">
            <mxPoint x="390" y="539" as="sourcePoint" />
            <mxPoint x="514" y="480" as="targetPoint" />
          </mxGeometry>
        </mxCell>
        <mxCell id="U0qxjCa6BcXq7xHl4qRt-23" value="" style="endArrow=none;dashed=1;html=1;dashPattern=1 3;strokeWidth=2;rounded=0;entryX=1.054;entryY=0.952;entryDx=0;entryDy=0;exitX=0;exitY=1;exitDx=0;exitDy=0;entryPerimeter=0;" edge="1" parent="1" source="U0qxjCa6BcXq7xHl4qRt-21" target="U0qxjCa6BcXq7xHl4qRt-2">
          <mxGeometry width="50" height="50" relative="1" as="geometry">
            <mxPoint x="600" y="475" as="sourcePoint" />
            <mxPoint x="712" y="440" as="targetPoint" />
          </mxGeometry>
        </mxCell>
        <mxCell id="U0qxjCa6BcXq7xHl4qRt-24" value="" style="rounded=1;whiteSpace=wrap;html=1;fillColor=none;arcSize=7;strokeColor=#000000;opacity=60;" vertex="1" parent="1">
          <mxGeometry x="10" y="202.75" width="260" height="164.5" as="geometry" />
        </mxCell>
        <mxCell id="U0qxjCa6BcXq7xHl4qRt-25" value="" style="rounded=1;whiteSpace=wrap;html=1;fillColor=none;arcSize=7;strokeColor=#330000;" vertex="1" parent="1">
          <mxGeometry x="630" y="230.25" width="250" height="164.5" as="geometry" />
        </mxCell>
        <mxCell id="U0qxjCa6BcXq7xHl4qRt-26" value="" style="endArrow=none;dashed=1;html=1;dashPattern=1 3;strokeWidth=2;rounded=0;exitX=1;exitY=0;exitDx=0;exitDy=0;entryX=0.02;entryY=0.011;entryDx=0;entryDy=0;entryPerimeter=0;" edge="1" parent="1" source="U0qxjCa6BcXq7xHl4qRt-6" target="U0qxjCa6BcXq7xHl4qRt-25">
          <mxGeometry width="50" height="50" relative="1" as="geometry">
            <mxPoint x="590" y="441" as="sourcePoint" />
            <mxPoint x="610" y="220" as="targetPoint" />
          </mxGeometry>
        </mxCell>
        <mxCell id="U0qxjCa6BcXq7xHl4qRt-27" value="" style="endArrow=none;dashed=1;html=1;dashPattern=1 3;strokeWidth=2;rounded=0;entryX=1;entryY=1;entryDx=0;entryDy=0;exitX=0.004;exitY=0.963;exitDx=0;exitDy=0;exitPerimeter=0;" edge="1" parent="1" source="U0qxjCa6BcXq7xHl4qRt-25" target="U0qxjCa6BcXq7xHl4qRt-6">
          <mxGeometry width="50" height="50" relative="1" as="geometry">
            <mxPoint x="610" y="400" as="sourcePoint" />
            <mxPoint x="690" y="290" as="targetPoint" />
          </mxGeometry>
        </mxCell>
        <mxCell id="U0qxjCa6BcXq7xHl4qRt-28" value="" style="endArrow=none;dashed=1;html=1;dashPattern=1 3;strokeWidth=2;rounded=0;entryX=0.998;entryY=0.053;entryDx=0;entryDy=0;exitX=-0.007;exitY=0.024;exitDx=0;exitDy=0;exitPerimeter=0;entryPerimeter=0;" edge="1" parent="1" source="U0qxjCa6BcXq7xHl4qRt-5" target="U0qxjCa6BcXq7xHl4qRt-24">
          <mxGeometry width="50" height="50" relative="1" as="geometry">
            <mxPoint x="670" y="305" as="sourcePoint" />
            <mxPoint x="710" y="260" as="targetPoint" />
          </mxGeometry>
        </mxCell>
        <mxCell id="U0qxjCa6BcXq7xHl4qRt-29" value="" style="endArrow=none;dashed=1;html=1;dashPattern=1 3;strokeWidth=2;rounded=0;entryX=0.988;entryY=0.975;entryDx=0;entryDy=0;entryPerimeter=0;exitX=0;exitY=1;exitDx=0;exitDy=0;" edge="1" parent="1" source="U0qxjCa6BcXq7xHl4qRt-5" target="U0qxjCa6BcXq7xHl4qRt-24">
          <mxGeometry width="50" height="50" relative="1" as="geometry">
            <mxPoint x="310" y="370" as="sourcePoint" />
            <mxPoint x="320" y="240" as="targetPoint" />
          </mxGeometry>
        </mxCell>
        <mxCell id="U0qxjCa6BcXq7xHl4qRt-31" value="" style="endArrow=classic;html=1;rounded=0;entryX=0.498;entryY=1.052;entryDx=0;entryDy=0;entryPerimeter=0;exitX=0.5;exitY=0;exitDx=0;exitDy=0;" edge="1" parent="1" source="U0qxjCa6BcXq7xHl4qRt-2" target="U0qxjCa6BcXq7xHl4qRt-3">
          <mxGeometry width="50" height="50" relative="1" as="geometry">
            <mxPoint x="460" y="430" as="sourcePoint" />
            <mxPoint x="510" y="380" as="targetPoint" />
          </mxGeometry>
        </mxCell>
        <mxCell id="U0qxjCa6BcXq7xHl4qRt-35" value="" style="edgeStyle=orthogonalEdgeStyle;rounded=0;orthogonalLoop=1;jettySize=auto;html=1;entryX=0.5;entryY=1;entryDx=0;entryDy=0;exitX=0.489;exitY=0.011;exitDx=0;exitDy=0;exitPerimeter=0;" edge="1" parent="1" source="U0qxjCa6BcXq7xHl4qRt-33" target="U0qxjCa6BcXq7xHl4qRt-2">
          <mxGeometry relative="1" as="geometry">
            <mxPoint x="450" y="500" as="targetPoint" />
          </mxGeometry>
        </mxCell>
        <mxCell id="U0qxjCa6BcXq7xHl4qRt-36" value="input" style="edgeLabel;html=1;align=center;verticalAlign=middle;resizable=0;points=[];" vertex="1" connectable="0" parent="U0qxjCa6BcXq7xHl4qRt-35">
          <mxGeometry x="-0.1803" y="-4" relative="1" as="geometry">
            <mxPoint y="-1" as="offset" />
          </mxGeometry>
        </mxCell>
        <mxCell id="U0qxjCa6BcXq7xHl4qRt-33" value="" style="shape=image;verticalLabelPosition=bottom;labelBackgroundColor=default;verticalAlign=top;aspect=fixed;imageAspect=0;image=data:image/png,iVBORw0KGgoAAAANSUhEUgAADogAAAOcCAYAAADHY9JEAAAAOnRFWHRTb2Z0d2FyZQBNYXRwbG90bGliIHZlcnNpb24zLjEwLjMsIGh0dHBzOi8vbWF0cGxvdGxpYi5vcmcvZiW1igAAAAlwSFlzAAAuIwAALiMBeKU/dgABAABJREFUeJzs3Xe8rVddJ/7PN7m5uSEJJAFSqKF3CE0BQ5EiWJABBHVURHBEx7EOdkdQdCzo2Gb8DerIjGUUlBELoDQBC0WliEpRKYIU6QklBO59fn+cfeXk5KxnP89uZ+993u/XK69z7lrrWXvd5Own5567P/tTXdcFAAAAAAAAAAAAAAAAAIDNccpBHwAAAAAAAAAAAAAAAAAAgHEERAEAAAAAAAAAAAAAAAAANoyAKAAAAAAAAAAAAAAAAADAhhEQBQAAAAAAAAAAAAAAAADYMAKiAAAAAAAAAAAAAAAAAAAbRkAUAAAAAAAAAAAAAAAAAGDDCIgCAAAAAAAAAAAAAAAAAGwYAVEAAAAAAAAAAAAAAAAAgA0jIAoAAAAAAAAAAAAAAAAAsGEERAEAAAAAAAAAAAAAAAAANoyAKAAAAAAAAAAAAAAAAADAhhEQBQAAAAAAAAAAAAAAAADYMAKiAAAAAAAAAAAAAAAAAAAbRkAUAAAAAAAAAAAAAAAAAGDDCIgCAAAAAAAAAAAAAAAAAGwYAVEAAAAAAAAAAAAAAAAAgA0jIAoAAAAAAAAAAAAAAAAAsGEERAEAAAAAAAAAAAAAAAAANoyAKAAAAAAAAAAAAAAAAADAhhEQBQAAAAAAAAAAAAAAAADYMAKiAAAAAAAAAAAAAAAAAAAbRkAUAAAAAAAAAAAAAAAAAGDDCIgCAAAAAAAAAAAAAAAAAGwYAVEAAAAAAAAAAAAAAAAAgA0jIAoAAAAAAAAAAAAAAAAAsGEERAEAAAAAAAAAAAAAAAAANoyAKAAAAAAAAAAAAAAAAADAhhEQBQAAAAAAAAAAAAAAAADYMAKiAAAAAAAAAAAAAAAAAAAbRkAUAAAAAAAAAAAAAAAAAGDDCIgCAAAAAAAAAAAAAAAAAGwYAVEAAAAAAAAAAAAAAAAAgA0jIAoAAAAAAAAAAAAAAAAAsGEERAEAAAAAAAAAAAAAAAAANoyAKAAAAAAAAAAAAAAAAADAhhEQBQAAAAAAAAAAAAAAAADYMAKiAAAAAAAAAAAAAAAAAAAbRkAUmElVnVlVpx30OQAAAAAAAAAAAAAAAAAOIwFRYJSqOreq/jDJh5J8uKp+uaqOHvS5AAAAAAAAAAAAAAAAAA6T6rruoM8AbJCqelGS++8Z/vmu6775IM4DAAAAAAAAAAAAAAAAcBgJiAKDVdVFSd61z9QHk5zfdd3xFR8JAAAAAAAAAAAAAAAA4FA65aAPAGyUBzXGz0ty4SoPAgAAAAAAAAAAAAAAAHCYCYgCY5zaM3f2yk4BAAAAAAAAAAAAAAAAcMgJiAJjXNEzd+7KTgEAAAAAAAAAAAAAAABwyAmIAoty3kEfAAAAAAAAAAAAAAAAAOCwEBAFxjijZ05AFAAAAAAAAAAAAAAAAGBFBESBMa7RMycgCgAAAAAAAAAAAAAAALAiAqLAGAKiAAAAAAAAAAAAAAAAAGtAQBQY44yeOQFRAAAAAAAAAAAAAAAAgBUREAXG0CAKAAAAAAAAAAAAAAAAsAYERIEx+gKi567sFAAAAAAAAAAAAAAAAACHnIAoMEZfQPT0lZ0CAAAAAAAAAAAAAAAA4JATEAXG6AuIHl3ZKQAAAAAAAAAAAAAAAAAOOQFRYIwzeuYERAEAAAAAAAAAAAAAAABWREAUGEODKAAAAAAAAAAAAAAAAMAaEBAFxugLiJ62slMAAAAAAAAAAAAAAAAAHHICosAYGkQBAAAAAAAAAAAAAAAA1oCAKDCGgCgAAAAAAAAAAAAAAADAGhAQBcY4o2dOQBQAAAAAAAAAAAAAAABgRQREgTFO65kTEAUAAAAAAAAAAAAAAABYEQFRYAwBUQAAAAAAAAAAAAAAAIA1ICAKjHGkZ64vPAoAAAAAAAAAAAAAAADAAgmIAmP0BUQ1iAIAAAAAAAAAAAAAAACsiIAoMEZfQPSUqjp1ZScBAAAAAAAAAAAAAAAAOMQERIExTpsyr0UUAAAAAAAAAAAAAAAAYAUERIFBqqqSTGsIFRAFAAAAAAAAAAAAAAAAWAEBUWCoaeHQREAUAAAAAAAAAAAAAAAAYCUERIGhjgxYc9rSTwEAAAAAAAAAAAAAAACAgCgw2JDwpwZRAAAAAAAAAAAAAAAAgBUQEAWGGtIgKiAKAAAAAAAAAAAAAAAAsAICosBQAqIAAAAAAAAAAAAAAAAAa0JAFBhKQBQAAAAAAAAAAAAAAABgTQiIAkOdNmCNgCgAAAAAAAAAAAAAAADACgiIAkMNaRAdEiIFAAAAAAAAAAAAAAAAYE4CosBQQwKiGkQBAAAAAAAAAAAAAAAAVkBAFBhKQBQAAAAAAAAAAAAAAABgTQiIAkOdNmCNgCgAAAAAAAAAAAAAAADACgiIAkNpEAUAAAAAAAAAAAAAAABYEwKiwFACogAAAAAAAAAAAAAAAABrQkAUGOq0Ba0BAAAAAAAAAAAAAAAAYE4CosBQGkQBAAAAAAAAAAAAAAAA1oSAKDDUkIDoqUs/BQAAAAAAAAAAAAAAAAACosBgQwKiQ9YAAAAAAAAAAAAAAAAAMCcBUWCo0was0SAKAAAAAAAAAAAAAAAAsAICosBQGkQBAAAAAAAAAAAAAAAA1oSAKDCUgCgAAAAAAAAAAAAAAADAmhAQBYYaEv48demnAAAAAAAAAAAAAAAAAEBAFBjstAFrNIgCAAAAAAAAAAAAAAAArICAKDCUBlEAAAAAAAAAAAAAAACANSEgCgw1JCCqQRQAAAAAAAAAAAAAAABgBQREgaEERAEAAAAAAAAAAAAAAADWhIAobKGquqiq/ltVvayqXlJVX7GAbU8bsObUBTwOAAAAAAAAAAAAAAAAAFNo+4MtU1W3SvLKJNfaNXzfqrpm13X/3xxbaxAFAAAAAAAAAAAAAAAAWBMaRGH7PCVXDYee9MQ59x0S/tQgCgAAAAAAAAAAAAAAALACAqKwfR7eGL9pVZ09x74aRAEAAAAAAAAAAAAAAADWhIAobJ++kOaZc+x72pyPDQAAAAAAAAAAAAAAAMCCCIjC4XKNOa4dEv48dY79AQAAAAAAAAAAAAAAABhIQBS2SFUdnbJk2QFRDaIAAAAAAAAAAAAAAAAAKyAgCtvlzDnn+2gQBQAAAAAAAAAAAAAAAFgTAqKwXaYFQDWIAgAAAAAAAAAAAAAAAGwBAVHYLgKiAAAAAAAAAAAAAAAAAIeAgChsl7OmzE8LkPY5dUFrAAAAAAAAAAAAAAAAAJiTgChsl2U2iA4Jf2oQBQAAAAAAAAAAAAAAAFgBAVHYLgcdENUgCgAAAAAAAAAAAAAAALACAqKwXc6aMj8tQNpHgygAAAAAAAAAAAAAAADAmhAQhe1y0A2iAqIAAAAAAAAAAAAAAAAAKyAgCtvloAOiQ9YAAAAAAAAAAAAAAAAAMCcBUdguBx0Q1SAKAAAAAAAAAAAAAAAAsAICorBdzpoyPy1A2keDKAAAAAAAAAAAAAAAAMCaEBCF7aJBFAAAAAAAAAAAAAAAAOAQEBCF7XJsyryAKAAAAAAAAAAAAAAAAMAWEBCF7XL6lPkz5th7SEB0yBoAAAAAAAAAAAAAAAAA5iQgCttlWkD0tDn2HtIOqkEUAAAAAAAAAAAAAAAAYAUERGG7LDMgqkEUAAAAAAAAAAAAAAAAYE0IiMJ2mRYQPTrH3kPCnxpEAQAAAAAAAAAAAAAAAFZAQBS2y0E3iAqIAgAAAAAAAAAAAAAAAKyAgChsl2kNoctuEB2yBgAAAAAAAAAAAAAAAIA5CYjCdtEgCgAAAAAAAAAAAAAAAHAICIjCdpkWENUgCgAAAAAAAAAAAAAAALAFBERhu2gQBQAAAAAAAAAAAAAAADgEBERhu2gQBQAAAAAAAAAAAAAAADgEBERhu2gQBQAAAAAAAAAAAAAAADgEBERhuxx0g6iAKAAAAAAAAAAAAAAAAMAKCIjCdjnoBtFTqqrmeAwAAAAAAAAAAAAAAAAABhAQhe0yLSB6alXN+rwfEhAdsw4AAAAAAAAAAAAAAACAGQmIwnY5OmDNrC2iAqIAAAAAAAAAAAAAAAAAa0JAFLZEVZ2aYeHMISHS/QwNfh6ZcX8AAAAAAAAAAAAAAAAABhIQhe1x+sB1szaIDg1+CogCAAAAAAAAAAAAAAAALJmAKGyPoQFRDaIAAAAAAAAAAAAAAAAAG05AFLbHshtEhwZE3VcAAAAAAAAAAAAAAAAAlkyQC7bHujSIDl0HAAAAAAAAAAAAAAAAwIwERGF7rEuDqIAoAAAAAAAAAAAAAAAAwJIJiML20CAKAAAAAAAAAAAAAAAAcEgIiML20CAKAAAAAAAAAAAAAAAAcEgIiML2GNoMuuwGUfcVAAAAAAAAAAAAAAAAgCUT5ILtoUEUAAAAAAAAAAAAAAAA4JAQEIXtMTQgOrpBtKrG3CsERAEAAAAAAAAAAAAAAACWTEAUtscyG0THhD4FRAEAAAAAAAAAAAAAAACWTEAUtoeAKAAAAAAAAAAAAAAAAMAhISAK22NoQPToDHuPCX26rwAAAAAAAAAAAAAAAAAsmSAXbA8NogAAAAAAAAAAAAAAAACHhIAobI91aRAVEAUAAAAAAAAAAAAAAABYMgFR2B7LDIgeGbFWQBQAAAAAAAAAAAAAAABgyQREYXsMDX7OEuAcc437CgAAAAAAAAAAAAAAAMCSCXLB9hjaIDqmDfSkMQFRDaIAAAAAAAAAAAAAAAAASyYgCttDQBQAAAAAAAAAAAAAAADgkBAQhe0hIAoAAAAAAAAAAAAAAABwSAiIwvYQEAUAAAAAAAAAAAAAAAA4JAREYXsMDYjOEuAcc437CgAAAAAAAAAAAAAAAMCSCXLB9tAgCgAAAAAAAAAAAAAAAHBICIjC9hAQBQAAAAAAAAAAAAAAADgkBERhewiIAgAAAAAAAAAAAAAAABwSAqKwPY4OXCcgCgAAAAAAAAAAAAAAALDhBERhe6xLg6j7CgAAAAAAAAAAAAAAAMCSCXLB9hgaEJ2l4VODKAAAAAAAAAAAAAAAAMAamaVJEFhP69IgOndAtKpuneSuSd6Y5DVd152Yd08AAAAAAAAAAAAAAACAbaJBFLbHVgREq+rJSd6Q5NeT/FWS36qqo/PsCQAAAAAAAAAAAAAAALBtBERheywzIDrmXjFzQLSq7pLkSXuGH5Xkq2bdEwAAAAAAAAAAAAAAAGAbCYjC9liXgOg895UvbYw/bI49AQAAAAAAAAAAAAAAALaOgChsj2UGRMe0gs7cIJrkOxvjD51jTwAAAAAAAAAAAAAAAICtIyAK22NoQHSWAOeYe8U8AVEAAAAAAAAAAAAAAAAABhAQhe1xdOC6tWwQraozp8wPDcACAAAAAAAAAAAAAAAAbD0BUdgeQwOUswREV9EgevMp89ebcV8AAAAAAAAAAAAAAACArSMgClugqk7J8ODnsgOis95Xzp0yLyAKAAAAAAAAAAAAAAAAMCEgCtthaHtoMltAdEwr6KwNomdNmb/+jPsCAAAAAAAAAAAAAAAAbB0BUdgOyw6IjrlXzBoQPXvK/Hkz7gsAAAAAAAAAAAAAAACwdQREYTuMCYjOEuBch4DosRn3BQAAAAAAAAAAAAAAANg6AqKwHZbdIDom9DlrQPSsKfNnzLgvAAAAAAAAAAAAAAAAwNYREIXtsOyA6Jh7xaz3lWkNogKiAAAAAAAAAAAAAAAAABMCorAdtqFBdFpA9NiM+wIAAAAAAAAAAAAAAABsHQFR2A5HR6xddoPosgKiGkQBAAAAAAAAAAAAAAAAJgREYTssu0F0FQHRs6bMaxAFAAAAAAAAAAAAAAAAmBAQhe0wJiA6S4BzzDUaRAEAAAAAAAAAAAAAAACWTEAUtsM6NYjOel8REAUAAAAAAAAAAAAAAAAYSEAUtsOyA6KraBA9a8r8sRn3BQAAAAAAAAAAAAAAANg6AqKwHdapQXTWgKgGUQAAAAAAAAAAAAAAAICBBERhO2xDQPTMKfMaRAEAAAAAAAAAAAAAAAAmBERhOyw7IDom9DlrQHRaAFSDKAAAAAAAAAAAAAAAAMCEgChshzEB0VkCnGPuFbPeV45OmRcQBQAAAAAAAAAAAAAAAJgQEIXtMC1cudssDaJj7hWzNohOC7lOaxgFAAAAAAAAAAAAAAAAODQERGE7jGkQnSUgOib0OTogWlWV6b8HDaIAAAAAAAAAAAAAAAAAEwKisB2WHRBddoPoaQPWaBAFAAAAAAAAAAAAAAAAmBAQhe2w0Q2iGXZ+DaIAAAAAAAAAAAAAAAAAEwKisB3GBESrqsY+98esn+W+MuT8p1XVLOFTAAAAAAAAAAAAAAAAgK0jIArbYUxANBnf8jnmXrGsBtEkOTbD3gAAAAAAAAAAAAAAAABbR0AUtsPYgOiRkevHhD6XGRA9Y4a9AQAAAAAAAAAAAAAAALaOgChsh2uMXD82ILouDaKnzbA3AAAAAAAAAAAAAAAAwNYREIXtMDYgOjZouS4Nokdn2BsAAAAAAAAAAAAAAABg6wiIwnYYGxAd+9wfs36W+4qAKAAAAAAAAAAAAAAAAMAIAqKwHcYGRMe2fI65V2gQBQAAAAAAAAAAAAAAAFgyAVHYDssOiI5ZLyAKAAAAAAAAAAAAAAAAsGQCorAdNIgCAAAAAAAAAAAAAAAAHCICorAd1qlBdJb7ioAoAAAAAAAAAAAAAAAAwAgCorAdNIgCAAAAAAAAAAAAAAAAHCICorAdBEQBAAAAAAAAAAAAAAAADhEBUdhwVVUZHxAd+9wfE/oUEAUAAAAAAAAAAAAAAABYMgFR2HynJ6mR16xbg+jQ4KeAKAAAAAAAAAAAAAAAAEAERGEbjG0PTZYbEJ3lvqJBFAAAAAAAAAAAAAAAAGAEAVHYfKsIiI5ZP0uD6NCA6NB1AAAAAAAAAAAAAAAAAFtNQBQ23xkzXLPMBtFlBkQ1iAIAAAAAAAAAAAAAAABEQBS2wWFqEBUQBQAAAAAAAAAAAAAAAIiAKGyDVQRENYgCAAAAAAAAAAAAAAAArBEBUdh8Z85wzdjn/pj1s9xXThu4TkAUAAAAAAAAAAAAAAAAIAKisA3ObYxf1nPN2JbPMetnaRAVEAUAAAAAAAAAAAAAAAAYQUAUNl8rIPrBJF1jbmyIc8y9YpaA6JGB6wREAQAAAAAAAAAAAAAAACIgCtugFRD9UJLjjTkNogAAAAAAAAAAAAAAAAAbTEAUNt8qAqLLbhAVEAUAAAAAAAAAAAAAAAAYQUAUNlRV3b2q/jjJdzWWfCjJicbcMgOis9xXBEQBAAAAAAAAAAAAAAAARjhy0AcAxquqS5K8OMlZPcsW2SA6Zr0GUQAAAAAAAAAAAAAAAIAl0yAKG6aqTkvy9PSHQ5P+gOjY5/6Y9QKiAAAAAAAAAAAAAAAAAEsmIAqb51uTXDJg3SIbRAVEAQAAAAAAAAAAAAAAANaIgChskKo6Ncm3D1y+yIDomPWzBESPDFwnIAoAAAAAAAAAAAAAAAAQAVHYNJ+V5MKBaw+qQXSW+4oGUQAAAAAAAAAAAAAAAIARBERhs3zRiLX/nINpED2lqmrk/gKiAAAAAAAAAAAAAAAAACMIiMJmuWTgug8l+askJxrzy2wQnWW9gCgAAAAAAAAAAAAAAADACAKisFluMnDdH3Rd96ksrkF07L1i7P4CogAAAAAAAAAAAAAAAAAjCIjChqiqSnLxgKVdkp+efN4KiC478CkgCgAAAAAAAAAAAAAAALBEAqKwOc5PcsaUNR9J8qVd17128uuDahAdu15AFAAAAAAAAAAAAAAAAGCEIwd9AGCwi3vmvifJa5K8vOu6y3aNLyogqkEUAAAAAAAAAAAAAAAAYI0IiMLmuHNj/ONJfrzrum6fuYNqEB27/9B7kYAoAAAAAAAAAAAAAAAAQMaHvoCD89DG+Jsa4dBkcwKiGkQBAAAAAAAAAAAAAAAARhAQhQ1QVWckeUBj+o96Lj3RGB8b4Fz2egFRAAAAAAAAAAAAAAAAgBEERGEz3DvJ6Y25P+i57qAaRMeuFxAFAAAAAAAAAAAAAAAAGEFAFDbD5zXGP5jkVT3XLSogqkEUAAAAAAAAAAAAAAAAYI0IiMJmeFBj/EVd17VCoEk7ILrsRtDBAdGqqhHrj07WAwAAAAAAAAAAAAAAABxqAqKw5qrqwiR3bEw/f8rli2oQXVpANMPbQ5NkTJgUAAAAAAAAAAAAAAAAYGsJiML6u2/P3AumXLuogOgy1x8ZuffRkesBAAAAAAAAAAAAAAAAto6AKKy/OzXG/7HrurdPufagGkTHrB/TIJoIiAIAAAAAAAAAAAAAAAAIiMIGuGNj/C8HXHuiMb7sgOiY/QVEAQAAAAAAAAAAAAAAAEYSEIX11wqI/s2AaxfVILrM9WMDoqePXA8AAAAAAAAAAAAAAACwdQREYY1V1VlJbtiYXmVAVIMoAAAAAAAAAAAAAAAAwBoREIX1dlHP3JsHXN8KiC4z8Dl2vYAoAAAAAAAAAAAAAAAAwEgCorDeLuyZe8+A6w+qQXTMegFRAAAAAAAAAAAAAAAAgJEERGG9tQKiH+267qMDrj+ogKgGUQAAAAAAAAAAAAAAAIAlEhCF9dYKiA5pD00WFxBd5vojI/cWEAUAAAAAAAAAAAAAAAAOPQFRWG/zBkRPNMY1iAIAAAAAAAAAAAAAAABsMAFRWG8XNMbXvUF0zL1FQBQAAAAAAAAAAAAAAABgJAFRWG/zNojOHRCtqkpSQ9eP3T/JkZF7C4gCAAAAAAAAAAAAAAAAh56AKKy3cxvj7xt4fSsgOua5PzYcmgiIAgAAAAAAAAAAAAAAACyVgCist2s1xj8y8Pq5G0RHrl3F/gKiAAAAAAAAAAAAAAAAwKEnIArr7ZqN8csGXr+IgOgs9wkNogAAAAAAAAAAAAAAAABLJCAK623egOiJxviyA6JjrhEQBQAAAAAAAAAAAAAAABhJQBTWVFVV1qNBdMzaWa4REAUAAAAAAAAAAAAAAAAYSUAU1teZSaoxt8qA6Cz3iWUGUAVEAQAAAAAAAAAAAAAAgENPQBTWV6s9NNEgCgAAAAAAAAAAAAAAAHCoCYjC+lpmQHTMc3/ZDaICogAAAAAAAAAAAAAAAAAjCYjC+uoLiH5k4B6LaBCd5T4x5hoBUQAAAAAAAAAAAAAAAICRBERhfbUCol2Sjw3cYxEB0TFrV7G/gCgAAAAAAAAAAAAAAABw6AmIwvpqBUQv67quG7jHicb4shtEx+yvQRQAAAAAAAAAAAAAAABgJAFRWF/NgOiIPTahQVRAFAAAAAAAAAAAAAAAAGAkAVFYX9dqjK86INp3n/j0AvYXEAUAAAAAAAAAAAAAAAAYSUAU1te6NIj23Sc+NcM185wlERAFAAAAAAAAAAAAAAAAEBCFNbbMgOiiApxXznDNXhpEAQAAAAAAAAAAAAAAAEYSEIX1tckNogKiAAAAAAAAAAAAAAAAAEskIArrS0B0fwKiAAAAAAAAAAAAAAAAwKEnIArraxEB0RON8TEBzr61iwiIjlmbCIgCAAAAAAAAAAAAAAAACIjCGtvkBtEx9xYNogAAAAAAAAAAAAAAAAAjCYjC+lqXgGjf2isXsL+AKAAAAAAAAAAAAAAAAMBIAqKwvloB0Y+M2OOgGkQXFUDdj4AoAAAAAAAAAAAAAAAAcOgJiML6WpcG0WUHRDWIAgAAAAAAAAAAAAAAAIwkIAprqKoqyw2Ijnnu94U9DyIgevrI9QAAAAAAAAAAAAAAAABbR0AU1tMZaQcnN6FBdMy9RYMoAAAAAAAAAAAAAAAAwEgCorCeWu2hybiA6InG+JiA6LIbRMesTQREAQAAAAAAAAAAAAAAAAREYU0tKiC67AbRKxewf6tB9IrGuIAoAAAAAAAAAAAAAAAAcOgJiMJ62pSA6CIaRFsB0U80xgVEAQAAAAAAAAAAAAAAgENPQBTWU19A9KMj9llEQLS1tlvQ/q2A6Mcb4wKiAAAAAAAAAAAAAAAAwKEnIArrqRUQ/WjXda1Q5n6W2SB6PMmJkdeMOcvHGuMCogAAAAAAAAAAAAAAAMChJyAK66kVEL1s5D6tgOgiApwnevZfZoPoqVU1Zn8AAAAAAAAAAAAAAACArSMgCutp2QHRRTSILjsg+omea04bsT8AAAAAAAAAAAAAAADA1hEQhfW0qIDoicb4IgKix3MwDaJJcnTE/gAAAAAAAAAAAAAAAABbR0AU1lMrIPqRkfssIsDZWruoBtHWWgFRAAAAAAAAAAAAAAAAgAYBUVhP12qMj20QbQU4U1VDn/99DaKthtIx95ZWg+gneq45fcT+AAAAAAAAAAAAAAAAAFtHQBTWU6tBdGEB0Qxv+WzdJxbVINoKiH6055pjI/YHAAAAAAAAAAAAAAAA2DoCorCe1ikg2lp3kAHRM0bsDwAAAAAAAAAAAAAAALB1BERhPa0iIDr0+d9ad7xn/zEB0dbay3uu0SAKAAAAAAAAAAAAAAAAHGoCorCezmuMf2TkPhpEAQAAAAAAAAAAAAAAALZQK5gFHKzrNMbfN3KfEz1zQ0OcrSD5iZ79x4TPW/ehK7ITQN3vnAKisEJVdXqSxye5c5J3Jvn5rus+eLCnAgAAAAAAAAAAAAAAONwERGHNVFWlHRD9wMjtFtEg2gp7Hu/Zf0yDaGvtp5N8IslZ+8wJiMKKVNWpSZ6b5P67hr+2qu4kJAoAAAAAAAAAAAAAAHBwxrT8Aatxdtrh7feP3GsRAdHWuhM9+48JiLZ+rycDovs5NmJ/YD6PyVXDoUlygyQ/cgBnAQAAAAAAAAAAAAAAYEJAFNZPqz00OZiA6LIbRFsB0eNJrmjMaRCF1fmPjfGvqqprrvQkAAAAAAAAAAAAAAAA/BsBUVg/1+6Z+8DIvba1QVRAFFagqq6f5G6N6TOTfN4KjwMAAAAAAAAAAAAAAMAuAqKwfloNoseTfGTkXn0B0aHP/9a6E5N/5tk7aYdJ+wKix0bsD8zuFlPmb7uSUwAAAAAAAAAAAAAAAHA1AqKwfloB0Q90XdeN3KsV4EyGt3y27hPHs/wG0SsacxpEYTUumjJ/85WcAgAAAAAAAAAAAAAAgKsREIX1c/3G+Adm2KuvQXRoiLO17kTP/osIiB5Pu0FUQBRW43pT5qc1jAIAAAAAAAAAAAAAALAkAqKwfu7ZGH/7DHstIiC67AbR1tq+gOixEfsDs9MgCgAAAAAAAAAAAAAAsKYERGGNVNVZSb64Mf3qGbZcZkD0xOSfMdeMOcfxJFc05jSIwmpMC4hep6qutZKTAAAAAAAAAAAAAAAAcBUCorBevqtn7qACoq11J3r2X0SD6Im0G0QFRGE1pgVEk+TCpZ8CAAAAAAAAAAAAAACAqxEQhfXyoJ65v55hv2U2iB7v2X8RAdHjERCFgzYk/CkgCgAAAAAAAAAAAAAAcAAERGG93KA10XXd22bYry8gOvT5v+wG0b4A6hWNuWMj9gdmd+6ANQKiAAAAAAAAAAAAAAAAB0BAFNZEVZ2S5ILG9LfMuO2Jnrl5G0QXFRDVIArr66wBawREAQAAAAAAAAAAAAAADoCAKKyPayc50pj7sxn37GsQnTcgejztAOqYe4uAKKyhSWh9SEC0FWwHAAAAAAAAAAAAAABgiQREYX1c1DP3nhn3XERAtLVu7gbRSQCtpS8geo0h+wNzOXPgOg2iAAAAAAAAAAAAAAAAB6DVVgisXitk1SX51xn3XHaD6FwB0Snrjif5aGPu7IH7p6oqyb2y0zr6uq7r3jf0WjjkhrSHJv3hdgAAAAAAAAAAAAAAAJZEgyisj1bI6n1d1316xj1P9MwdeIPolHXHk1zWmBsUEK2qayZ5WZI/S/KCJG+qqi8ZeDY47IYGsa+91FMAAAAAAAAAAAAAAACwLwFRWB8XNMbfM+uGXdd1aYdE520QXUVA9PLG3NDg2g8luXTXr89N8oyqus/A6+EwG9ogeu5STwEAAAAAAAAAAAAAAMC+BERhfbRCjx+Yc995Q5yt+8TxtMOnQ+8tMwdEq6r6Nq6qY0m+tnG2Hxt2PDjUhgaxBUQBAAAAAAAAAAAAAAAOgIAorI9WW99H59x3WSHOZTeInkhyWWOukpw5Ze/79ay5Z1VdNOV6OOwGN4hWle8nAAAAAAAAAAAAAAAAVkygA9ZHq61v3oDoMhtEl7X3yf1bDaLJ9HbD+0+Z/5wp83DYDW0QPWXEWgAAAAAAAAAAAAAAABZEQBTWx7IaRJfV8rnsBtF5A6I3mzJ/6ZR5OOyGNogmyblLOwUAAAAAAAAAAAAAAAD7OnLQB4BFqarrJPnKJNdJ8udd1z3vgI801roGRFtB8oMOiF5zyt43njJ/2ynzcNiNaQU9N8nblnQOAAAAAAAAAAAAAAAA9iEgylaoqusneVWS6+0a+6mu6554cKcabdMCosezExIdc82YM8zbIDotIDptHg67sQFRAAAAAAAAAAAAAAAAVmhoiAvW3S9nVzh04tur6lYHcZgZrWtAtLVu6Q2iXdcdT/LxxnwzvFZV18hOk2yfG1eVeyC0te5J+xEQBQAAAAAAAAAAAAAAWDHhKDZeVV2S5CH7TSX5otWeZi7rGhDtaxBdakB08rHVItrXbnijAY99epILBqyDw+oaI9YKiAIAAAAAAAAAAAAAAKyYgCjb4GE9c3dd2Snmt6yA6InG+NDnf2vd0htEJx8va8xfs+faGw58/IsHroPDaExA9JxlHQIAAAAAAAAAAAAAAID9CYiyDW7bM3fnlZ1ifuvaINpad9AB0Rv0XDu0GfTigevgMDpjxNq+Rl8AAAAAAAAAAAAAAACWQECUbXDLnrlbVdWxlZ1kRlVVWd+AaOs+cTztdtKTv6dp+s5wcu9/bMz3hX/PH/DYSXLhwHVwGI1pEBUQBQAAAAAAAAAAAAAAWDEBUTbaJITYFxCtDA8LHqTT0w5LXj7n3gfRIDp0/yENoq9uzN+l59qhDaICotAmIAoAAAAAAAAAAAAAALDGBETZdNfP9BDTeas4yJxa7aHJ+jaILiIg2ncPOrn3axrzF1TVRY25oaHgoUFSOIzOGLFWQBQAAAAAAAAAAAAAAGDFBETZdDcasObaSz/F/PrCVesaED3es/fQ/Yc0iLYCokm7RVSDKMxPgygAAAAAAAAAAAAAAMAaExBl0w0Jfy4sIFpVp1bV0GDlGH1BrI/PuXcrxDn0+d/6/S6iQXRqQLTruvcn+efGGgFRWB4NogAAAAAAAAAAAAAAAGtMQJRNNyT8ed68D1JVZ1fVryf5cJL3V9XPV9Vp8+67y+k9c5+cc+8TjfFFNIi29u67bugZdodPX91Yc9fG+PkDHjsZHiSFw0iDKAAAAAAAAAAAAAAAwBoTEGXTrapB9FeTfEWSs5Kck+Q/JfnVqqoF7J30B0SvmHPvVohzIxpEJ1oB0Uur6iq/j8l/k6EB0fOX1AgL20CDKAAAAAAAAAAAAAAAwBoTEGXTLT0gWlXXT/Kwfaa+LMkD59l7l76A6JVz7t0Kcc7bILrKgOgrG2uuneT2e8bOSXJ0wGMnO7+3RQSIYRtpEAUAAAAAAAAAAAAAAFhjAqJsulU0iN41Sasp9Cvn3PukY43xT3Vd12oAHWreBtHWuuNZYkB0z+/7z5N8qrH00Xt+PbQ99KQLR66HrTdp4hUQBQAAAAAAAAAAAAAAWGMComy6IeHP8+Z8jL0NlbvdZs69T2o1iH5yAXu3QpxDn/+tEOcyG0Svsm/XdR9Lu0X0CVV12q5fXzDgcXcTEIWrO5p2MH4/Z1TVkWUdBgAAAAAAAAAAAAAAgKsTEGXTDQl/ztsgeocl7n1SKyB6xQL2bjWIDglwJv0Non3tpkPuL33h071+p7H2Okku3fXrsQHRsevhMBjTHnrSWQs/BQAAAAAAAAAAAAAAAE0Comy6IQHNeUOct1vi3ietc4Noa90iGkT7wqd7PT3JxxrrH7rr8/MHPO5uGkTh6s6Y4ZqzF34KAAAAAAAAAAAAAAAAmgRE2XTXGbBmSMvovqqqktysZ8m1qurIrPvvcqwxvoiA6LwNon0tn/MGRFtrrrZv13WXJfmjxvrP3fW5BlGY3ywNorNcAwAAAAAAAAAAAAAAwIwERNlYVXVKhoX7zpusncV1Mz30NHMAdZdNbBA93rN3suCA6MTzGuO3rqqTe41tBNUgClc3S4OogCgAAAAAAAAAAAAAAMAKCYiyyc7LsBDiKUmuNeNj3GTAmmvPuPdurYDoFQvYeysaRCde1xg/luTGk89vNOBxdxMQhaubJex55sJPAQAAAAAAAAAAAAAAQJOAKJtsTLBv1pbPmw5Ys8yA6Do3iJ5IO3w6dP+xAdE39ux1m8nHixvz/9oYH9JCC4fNsZ65rjGuQRQAAAAAAAAAAAAAAGCFBETZZGMCorOGOG+2xL13a4WxFhEQnbdBtHWfOJ4VN4h2XffRJO9oXHObqqp8pkl0r1c2xjWIwtW1QuvHk1zemNMgCgAAAAAAAAAAAAAAsEIComyyVQREL1ni3rsts0G0FRAd+vxvhThPZMUB0Yk3NMZvk+T8tMO2rYDotavqtJ7Hg8PoaGP8k0k+1pjTIAoAAAAAAAAAAAAAALBCAqJssjEB0fNmfIx7DFhzzox779YKiF6xgL1bYcuNaxCd6AuI3qTnulc0xivJdXuug8OoL7T+8cacBlEAAAAAAAAAAAAAAIAVEhBlk40JiI5ZmySpqsckuf6ApWeP3XsfGkSvvndLKyB66yR3asx9Isnf9uw5+usDtlzfPanVICogCgAAAAAAAAAAAAAAsEIComyyG4xY29cseTVVdWGS/zNw+SICosca44sIiLZCnEOf/611J9If5Byy/yIbRM9N8kWNub9J8v6efS/oeTw4jFoB0SvTbhC9xpLOAgAAAAAAAAAAAAAAwD4ERNlkNxyx9qYj9/66EWs3tUF0SMNn0r5PHM/8DaJ9e7e0AqJJOyD6qq7rjid5X2Negyhc1dHGuAZRAAAAAAAAAAAAAACANSEgyiYbExAd1SCa5B4j1i4zIHrFAvaet0G0FfQ80bN333VD1jT37brufUk+MGDv3V45+fjexvz5I/eDbdcXWtcgCgAAAAAAAAAAAAAAsAYERNlIVXVqkuuNuOQmVTXm6/3OI9YuIiB6rDG+1g2iXde19h66/+iA6ERfi+heJ5L8yeRzAVEYpi8gqkEUAAAAAAAAAAAAAABgDQiIsqkuzPCAY7ITdrrVkIVVdeFk/6GW2SC6iIDovA2irXUnw6Gt/dclIPqbXde9a/L5vzbWCIiuSFUdqSpBwvXXuiddGQ2iSZKqOrOqzq+qOuizAAAAAAAAAAAAAAAAh5OAKJvqBjNcc7+B6243ct+zRq7fzzIDovM2iLbWndjzca8h95dZA6JvHLD3Sf991+cCogdkEqR7RpJPJflIVf3fqlpEuJrl0CDaUDt+Mjv3k/cmeUdVfdPIlmoAAAAAAAAAAAAAAIC5CTOwqS5qjH8yyasac/cbuPfNR55lmQ2iVyxg72U1iB7f83GvZTaIvm7A3kny/iR/uevXAqIHYBIEfUmSR0+GTk3y5UmedlBnYqqjjfFPRoPo9yb5z/nM7/f6SX4uyfcd2IkAAAAAAAAAAAAAAIBDSUCUTXVhY/w9Sf6kMXeXgXsfRED0WGN8ExpEDyIg+qq0f1+7Pavrut17tQKiFwzYi9n9YJLb7DP+5VV1p1UfhkFW0iBaVderqvtX1T02oYGzqq6fdhD0B6rq1qs8DwAAAAAAAAAAAAAAcLitfRgDGvoCoq9szN2sqoYEmG7RGP9IY3yZDaLLDIhubINo13WXJ3n9gP3/z55ftwKi192EcNomqqprJvkPPUu+YVVnYZTWPenKLKhBtKq+Lclbk7woycuTvLmqLh2zxwH4oSRnNOaOJPmmFZ4FAAAAAAAAAAAAAAA45ASi2FStxsf3pB0crCS3HbB3q0H0NY3xsxYQLlxmQHSeAGfSvk+c2PNx6HVDzjCkHfSFU+Zfk+QVe8ZaAdEjSc4Z8JiM98gkZ/XMf96qDsIoS20Qraq7JfmpJEd3Dd8syTOr6tpD91mlqrphksdOWfagFRwFAAAAAAAAAAAAAAAgiYAom6uvQfQtaTfc3WHA3jdujL+255rBwaiGVhjrijn3TeZvEJ0W4pwngDqtnbTPLyT5VM/8U7qu6/aMtQKiSXL+gMdkvAdOmb/JJHg3WlXduKoeUlVDgt+Mc7Qx/skspkH0G7MT2t/roiSPG7HPKn1Npt83b1FVrTcwAAAAAAAAAAAAAAAAWCgBUTZVMyDadd2JJH/fmO8NolXVWWm3Hb6h59Kz+/Yd4FhjfJkNokOf/9NCnPMERFtrpgZEu657S5IfaUz/RpJn7zMuILpCVVVJPnfA0nuP3beqnpzkH5I8L8nfVdX/WUCTL5+xtAbRqjotyb/rWfLYIfssU1Udrar7VNXXV9UDq+r0JI8eePnnLPNsAAAAAAAAAAAAAAAAJwnTsKn6GkST5F2N+WnNbhf1zP1Dz9yyGkQXERBtNYgOCXD2rVtEg+jMAdGJpyT5ziTvnfz6yiRPSvK4fdpD03XdJ5Jc3thLQHTxbpL+59RJdx2571Oy89/5tF1jj0ny1qr6xqq66d4LqursqvqZqnp9Vb24qh428jEPm9Y96crM3yB6xyTn9MzftqquO3CvhZs0gL4myUuT/H9JXpDkTUluN3CLS5d0NAAAAAAAAAAAAAAAgKs4ctAHgBm1wnwnGyLf25ifJyD6Tz1zywqIXjHnvsnyGkQPPCA6aYt9alX9VHb+HR7vuu7KKZf9a/ZvfBUQXbzbD1x356EbVtU9k3xvY/pGSf57ksur6hFd171wcs252Qn73WHX2s+tqsd3XfcrQx/7kJmlQfRoVR3puu7TU/a+WoB3H3dI8uIB6xZq0nr7rCS33TN14xHbCIgCAAAAAAAAAAAAAAAroUGUjVNVx9Juqnv/5OO/NuZnDYhe1rNnMkdAtKqOpP1cXIcG0dbZToY4W/sPub/M2yCaZCco2nXdJwaEQ5P2f0cB0cUbHBCdBPOG+NEk09aeneS3q+oGk18/NVcNh570C1V1o4GPe9j0BURbDaLJsBbRiwes2e+/1yo8PMnnzLnHXapq3jcNAAAAAAAAAAAAAAAAmEpAlE107Z65D0w+LrpB9N3ZCUa1wpDzhIGO9cwtIiA6b4NoK8R54A2iM5o1PMx4QwOi5yS54bRFVXXHJPcdseePVtWFSR7bWHN6kv84cL+TZzhSVY+uqm+tqnuNuXbDHG2M9zWIJsPuhRcPWHPHAWuW4WsWsMepST57AfsAAAAAAAAAAAAAAAD0EhBlE/UFRE82iC48INp1XZd2MGqegGirqS/ZjAbRbQmIahBdvKEB0SS55YA1Xzry8b8iyZPT/7X40KGbVdUZSV6e5BlJfjrJn1fVb0/Gt81BN4gO+XpYqKo6O8nnLWi7Sxe0DwAAAAAAAAAAAAAAQJOAKJuoLyD6wcnHVkD07Clhrus2xt8z+bjqgOgVc+x7kgbRq2oFRFvhYGZQVaclufWIS4YEAu839hhJnjBlzW2r6hYD93tykrvtGfuSJE8bea5N0LovXZnVNIjeeMCaRbtv2s2pLe/u2QsAAAAAAAAAAAAAAGCpBETZRNdpjF/Wdd2nJp+3AqJJf1PkuY3xk8FTDaJX33cZAdHWmRfhXY3x6y/xMQ+jWyY5bcT6W/VNVtU1ktx9rhO1fdW0BVV1Ztph06+squst9kgHbpkNokP+XV1/EjJepTuPXP+xJD/fmLtXVR2b8zyjVNVZVfVVVfX0qvp/k8+PrPIMAAAAAAAAAAAAAADAagmIsolaDaIfaHy+VysE2jf3ocnHZQRE+0JEywyIDn3+t9adDIbOs/9BNIi+ozF+vaoaGpplutuPXN8bEE1yz7QDp78+8rH2+i9V9Zaq+oWqOrux5guSXKsxV0k+b84zrJu+gOgneq7rvRdW1dEk5wx4/FOS3GDAukUaGxD9iyQvaMwdS/KA+Y4zTFUdqaofyE7T9a8meWySh08+f1lVtd5UAQAAAAAAAAAAAAAA2HAComyiVkD0/bs+/3DP9ef0zB1EQHTZDaIzN3xWVd89YhENotPCp8vwzsb4kfS3yzLOHUauv+OU+fs2xj+Y5KszfwPsTZJ8Q3YCdfuFRC+Zcv2D53z8dXO0MX5l13Vd2i2i0xpEx4QVbzxi7UxqxyOr6qeyE6oc40+TvCbJRxrzPzTlHroo35fkB7P//4fumeSFVXXWCs4BAAAAAAAAAAAAAACsmIAom2hqg2jXdZ9KO8y5bg2ifQHRK+bY96R5Gj771hzf83GvIQHRg2gQbQVEk+SGS3zcw6bVINoK011UVdfr2a8VEP3TrutOdF33ruw0Os7rkiQ/vM/4radcd68FPPY6abW1Xjn5OOu9cEwI++IRa0ebhDf/V5LfSfLtM2zxkq7rjid5fmP+Lkn+84zHG6SqzkvyXVOW3SnJT8zxGNetqrtVVd//OwEAAAAAAAAAAAAAgAMgIMomOq8x/oE9v/7Qvqs0iJ40b0B0EQ2iBxEQfX/a/15vsMTHPWxaDaJP77nmbvsNVtWprbkkL9n1+bOmH2uQJ+wThrvVlGtuVFXb1EDbahD91OTjrA2iY/4dXXfE2ll8U5KvmfHat+QzgeSf6Vn3E1X1sBkfY4jHJjljwLqvr6rbjNl40q76lCT/kuQvk/xzVX1HVdX4YwIAAAAAAAAAAAAAAMsgIMommhbiPOnDY66vqtOSnDVl72UERI81xo9P2unm1WoQnSfAuXvfjQqIdl3Xpd0iKiC6AFV1ZpKbNqZfkuRtjblWCPSWaQcPd7eGPjPtr/cxTk/yZSd/UVVHktxiwHV3XcBjr4tpDaKtgOi0e+GY0Od1RqwdZXK//745tvjJk/fnruv+Ismze9b+xt7wcFUdraq7VNWQr6s+XzhwXSX5jpF7f12S789nvhbOyk4T6VNG7gMAAAAAAAAAAAAAACyJgCibaGhAdGyDaGt8916rbBBdRHtosrwG0ZP7tgJ5Q/Y/iAbRREB02S7pmfvbJH/VmGsFRO/cGD+e5G9O/qLruncmecG0ww308F2fX5x2o+ZurfNvolZA9GSDaOteuMgG0WuPWDvW3TIsrPpLSZ6/Z+xZSZ62Z+x7kny6sceZSZ548hdV9cVJ/jHJXyd5c1X9UVWNvvdU1dEk9xxxyZdV1dkD975Wkh9vTH9nVV0w4nEBAAAAAAAAAAAAAIAlERBlE53XGJ+rQbRnfPfeqwyIXjHHnrtpEL26dzTGBUQX43Ma45cneWt6AqJVVfuM36Wx/u+7rtv7PHnGlLN9LMnvTFmTJPevqpMBxVsNWJ9sSUC0qk5N+/uDkwHRWRtE1yUg+rkD1nw6yY8leUiSS5M8Icn9kzyq67qr3Fe7rntjkv/Ss9djqurUqro0ye8mueGuuQcn+eOqajVYt9wtyRkj1p+Rqwaf+3xJkms15k5L8qARjwsAAAAAAAAAAAAAACyJgCibaFkNogcVED3WGF/3BtFNDoi2GkRv2BhnnFZA9OWTYF0rIHrdJA/cZ7wVEH31PmN/mHYoOkn+LMk3JnlDz5pk52vzuyef33rK2pO2IiCadntoklw5+Thrg2gr4L+f64xYO9a9Bqz5/q7r3tLt+POu636x67o/6bqua6z/8SR/3Ji7IDvh0v+V/e+rt81OC+kYn9UYvyLJBxpz/27g3o+YMn//gfsAAAAAAAAAAAAAAABLJCDKJhoaEP3wyOtbbWnHk3x08vkqG0QXFRCdp0G07x5xfM/HWfZft4CoBtE5VdWRJPdtTP/55ONfp/11+UO7W0Qnn9+5sfY1ewe6rntfkuf0HPHFXdf9a5I7JPnC9AfmnlBVRzM8IHq9qrpo4Np11hcQnbdBtHWf3c8yG0Rv3jP3gSTfleQnxmw4CY4+Ku17948kuWXPFl9fVWP+X9IKTr88ya815h40+Zpuqqpj2T+ovVvrOQ4AAAAAAAAAAAAAAKyQgCgbpapOT3JGY3reBtGzG+OX72qM28SA6DwNon0hz2U2iPY1QC5CKyB6/apyX5zPZ6UdAvyzJOm67sNJ/qix5h5JHrLr1xen/Zzdr0E0Sf5rY/yyJL86OcPxruue23Xd7yV5amP92Uk+O8MDokly1xFr11VfgPBkQHTWBtFrjjjHUhpEJ6HjGzemv6zruut0XfcTPU2hTV3XXZ7k9xvTd59y+XlJHjPi4VrB6b9O8nuNubOSXDpl37un/2sgSW5aVWPaYAEAAAAAAAAAAAAAgCUQhGLTtNo/k+ENouc0xs9qjH901+erDIheMceeuy27QbS1/5D7S2vNshtE39EYPy3JBUt+7G33gMb4x/OZBtEkeUrPHj+4q0X0c3rWvXa/wa7rXpHkh/YMvzvJg7uue88+l/xY2l9zD8pO2+hQdxuxdl31NYheOfk4a4PomIDoeUsKbF+Q5Fhj7p8WsP+L5rj2W4f8nidNo7dpTL8mO8+1yxvzXzBl+2kB0pNaDaYAAAAAAAAAAAAAAMCKCIiyacYERC9rrGs1hbYCortDNssIiLaCSotqEJ0nwHlQDaLLDoj+c8/cTZb82Bupqi6qqp+tqndX1eVV9aaq+u6q2vv1e8/GFi/tuu7fvqYnIc7nNtbePckdJ5/ft7HmDZO2xn11Xfek7LSRfmeSxyW5+eQx91v7wSTPa2z1ZWk3ou5nWkvkJugLiM7bIDrm3+WpI9cP1fccf9sC9n/ZHNfeMtMDnMlOELl1/3x113WfSvL8xvznT9n7iwY8frIdbbkAwAGoqqNVdbFGcgAAAAAAAAAAAJifgCibZkxAtBUeazXYtYKjB9UguqiA6DwBzr57xCYHRD+Q9teHgOgeVXVxklcn+eYkF2YnTH3LJD+a5C+q6rqTdZWdUOZ+9gvNPannYb9k8vE+jfmX9p866brulV3XPbXruqd3XddqvDzpTxrjt5j2OHt8QVV9c1UdGXndOjnaM3cyILqKBtGk3fg8j4sb4x/Lzr1hXm9M8pE5rv/2AWtaz7MPJ3nz5PNWAPu2VXX+fhNVddsk9xrw+ImAKAAwUlWdXlVPzc73LG9N8oGqelZVXe9gTwYAAAAAAAAAAACbS0CUTdMKiH4qVw8sNRtEJ0G2vVoNokMComdU1azPp2UHROdpEO1bc3zPx73WNiDadV2XnRck7+emy3zsTTP5un5WdoKh+7lzkmdV1bnZCXW2nqNXa+/suu6vkryksf5RVXVhdoKo+5kaEB3p5Qvc62eTvHSOe8JB62sQvXLycRUNorOsH+LixvhbJ/eGuUz2+Js5tvjcSVCzT6up95Vd152857caRJPk0r0DVXWNJL8x4HwnCYgCAINV1WlJnpPkiUnO2DX1iCR/OvneHwAAAAAAAAAAABhpU8MrHF6t8NmH9gn2tAKip+aqL0g9qRUQ3d002QpFJdODUS2tgOgVM+63VytsOeT53xfy3OQG0SR5S2NcQPSqHpbkLlPW3DvJB5M8szF/IslfNeZa19wqyRN6HnO/RtJ5vCafaccc4oXpb4m8V5Ivn+tEB6cvIDpzg+gkmL8ODaKtluC3LfAx5gmIJskjWxNTmnr/Lejcdd070w7CXyUgWlWnJvm/SS4ZccabToLhAABDfGWSBzTmbprkaSs8CwAAAAAAAAAAAGwNAVE2TTMgus9YKyCa7B9SOruxdkiDaNITjJriWGN82Q2iQwKcQxpE52koXceAaCs8dlh98wL2+Ouu6z7amPvdJK3Wxic3xt/Sdd275j7VLl3XXZHkDSMueU12GpD6PGL2Ex2ooz1zJwOiszSInpVkv/bmPueMXD/ExY3xty3wMV435/UP75m7OMkFjbm9Tbh/1lh395OfTAKnv5CdMPhYd5rhGqBHVT2sql5TVR+efPzWDW6kBg6Zqjqjqr69qp5XVS+vqv85ua+dneRxUy7/4qq6Wss5AADAJquqU6vqAVX1uKp6yDr8nKeqjlXVT1bVG6rqrVX1v6vqVgd9LgAAAAAAAGZ35KAPACONCYhevs/YSWcnec+esVaD6NCA6KIbRBcVEJ2nQbRvzaY3iL6tMX6jFTz2RqiqWyS53wK2enFrouu691TVy5Lcd8R+fzr/kfb1tiR3HLj29Ul+O8m/71lzaVXVPu3G627uBtGqOj87IcZ3dF334cnc2PbQJLnWDNdMc3FjvNW2OYuXDlz3siT32Wf8zlV1k67r9jvTPXv2e9WeX78iyVc19j8lyflJfj+7AqP7eG12gvP7/be4RZKX9FwLjFBV90/y7F1Dl0z+OSvJD6/+RADDVdU1s/N9+u7vp++R5Akjtvm2tN/gAgAAYKNU1c2TPC/JzXcN/01VPbLrun88oDMdy87f2ez+OfPFSb6gqu7Zdd0/HcS5AAAAAAAAmM+Bv0spjLTMBtFWQHR30HQZDaLLDojO0yDat2bTA6LvaIzfYB3ewXlNLKoB8wVT5n975H7LCoj+84i1r++67i+T/HjPmvOT3Gy+Ix2IvoDolZOPzQbRqnpSdp5ff5PkbVX1+MlcX0D0g43xc3quGW3y3L5xY/pti3qcruvenGTIC3y+p2eu9fy7R2P873eFcU96dWPtmUluk+T30h8OfXeSR6fdrnvLnmuB8X6sMf7kqrr+Sk8CMN6PZfibrbR8cVVdexGHAQAAOEiTIOZzctVwaLLz56YXHeCffZ6c/d+E8LpJfrGqarXHAQAAAAAAYBGEoNg0i2oQ3S+odHZj7dAG0UUHRK+Ycb+9ltUgenzPx73mCYi2Qq2L1AqInpadYB/JFy5gj3/I9IbB38m4/+YHHRA9ns8E5r4nyU/2rL39XCc6GH0B0ZPP91aD6DWy8wKTo5NfXyvJ/6yqS9LfBtp6Pp7Tc80sLspnzrbX2xb8WM+dMv+uruv+IslfN+Yf3hhvNYi+fJ+x16V9j35Gks9qHy+XJfm8ruv+ITvP4/3coud6YISqunPage1TkzxuhcdhS1XVdarqtl7syaJV1c0yrim05UiShy1gHwAAgIP2bWm/wd6Nkjx1hWdJklTVhUm+pWfJ/ZN8zoqOAwAAAAAAwAIJiLJpBgdEu647nnagc78waKtBdHdA9BPto80cED3WGD8MDaKte9AqGkTf2TN3wxU8/lqrqnOT3Ksx/X1J/mDgVt89eS42dV333iQvHrjfe9MOq83r7QPXvbnruk8mSbfjO5K8v7H2lklSOx5SVX9YVa+sqmdU1bedDGlU1RlV1RfMXKVWgPJTXdd1k8/7wvJ7HUnyrWk3iB5P8q7GXF+odBYX98y9dcGP9Zwp86+cfPx/jfl7VdVFuweq6owklzTWv2LvQNd1n0i7/fN2PWf7dJJHdF33t5Nft55zGkRhcR4yZX4Rb9rAIVVVt6yqlyZ5X5K/S/L2qvrSAz4W2+WxWdzPl75kQfsAAAAciMnP+r9pyrLHVNWq36z0a9P+O8ndawAAAAAANl5VnVJV8lLAoeGGx6YZ0yCatFtE9wsqtQKi/7ZH13Un0m7OW3SD6KICostuEG0FUIfs3wqRriIg+r4kVzbmDn1ANMmD0/7v8/tJHpHkKdlpGdzPJ7ITDm2F3/b6rYHrXrQrpLhoQxtEX7/P2F821t6yqi7ITljwedkJ+HxWkkcn+W/ZCWmcvK98vKpeWlWPPOBmr1ZQdffzpXUfbPnqJBc25i5L+x5+zsjHmeYmPWf48IIf66Xpb7J+6eTj7zbmK8m7quq3ququk7G7Zidwu5/9GkST5NW9p9zfV3Rd96Jdv35zY93NqmrImwEA091lyvwdPd+YRVXdJjtvInCfXcM3TPKbVfWVB3Mqtsnk+9avWOCWD5y8WQ0AAMCm+oIkF01Zc2qSh67gLLs9csCaR1RV62fQAAAAAGurqj67qr6/qn6pqn64qr7Qa23gcKqqW1TVc7NThvPJqvrTqvqigz4XwLIJiLJpxgZEW+G1/QKi+7WKJldtEE3azXnrGhCdp0G07x6xiAbRAwuITsK+rRZRAdHkUY3xf07yd13Xfbrruh9IckGSmyU5LzthvgdkJwR5/a7rfnzE4z0rw0KHLxyx51hDG0T/dp+xVoDulkn+b5LPH7DvkeyEN34nya9X1az3lHm1AqKf2vX5mAbRkx7YGL8syUcac6tqEH3booPHk5bZ/9aY/lCS/z1Z94Ykb+zZ6kuTvLKqHp3kno01l6XdFDo2IPrgruueuWes1SB6NO6XsCh3njJ/RpKbr+IgbI/JCzp/O/v/GaqS/EJVXW+1p2LVJu+GuMwX99427Tfh6PP+xvhp0ZoMAABstqHBz4ct9RS7VNWNk1wyYOnZSe6w3NMAAAAALE5VHa2q/5WdN89+SpKvTfJ9Sf4wyRuq6l4HeT5gtarqLklemZ3XbR/LzmuzL03yB1X1xIM8G8CyCYiyaZYZEG01iB5UQPSKGffbaxkNn7v33ciA6EQrIDrtnZ23WlXdKcm/a0w/Z3eQruu6K7que0vXdR/quu4jXde9uOu653Zd13pO7qvrug8n+Y0py44n+aMx+4703rRbZXd77T5jrYDovZPcf4az/Pskf3hA79R9tDE+b0D03o3xj6Td3nnODI/T5+LG+FsX/Dgn/dckL9oz9skkX9l13e5Q7NOn7HNqkl/JTlh0P6+chN7389dTT/kZ39h13fP3GW8FRJOdEDQwh6q6ZnbebGGaOy37LIdRVZ1aVdv65+IvS3K7nvmzk3zXis7CilXV7arq2dn5PuvDVfU7VXWLJTzUQ2a87j9k581n9iMgCsBCVNW1q+qJVfUTVdX6uQQALExVVZIHD1x+7xX+TOI+I9a23qgQAAAAYK1U1S2T/EmSxzWW3CLJ86pqljc9BjZMVV03O+HwVt7kqVU15melABtlW18Iy/Y6pzHeCqNd3hi/Shh08hewrYDn3j0WHRA91hhfVIPoPAHOvnvE8T0fZ9n/oAOi72mMX7iix187kxcv/M+0/9v/7hIf/qnp/2//u13XvXtZDz4J2L1jwNL9AnetgOg87pfh7zS+SK0G0d3h2Vb4vs/FjfG+BtFzZnicPq0f9LxtwY+TJOm67srsvAvR92an/fbXkty367rn7ln6y7n6mxHsdWaSuzbmXtFz3euSDGlH/ViSX91vouu6y9O+Xy4jaAIrVVW3rKpvqqrvqKrW82yZhj6PbrvUUxwyVfXAqnplkk8n+XhVvbCqvuCgz7Vg3z5gzddWVeuHomyoqnpodr5nfVh2gsBnJnlkkldX1aLvJa0XPv9Fkic35l6W5Pcm/+znIQf0RikAbJGquiQ7fyZ+apLvSPKyyRsm3PBADwbAtrtpkhsMXHtOVvfznjFNGfdY2ikAAAAAFmTy9+J/lek/97hmkqdv8ZuHA5/xQ5leEvVz7gfAtnJzY2NU1WlphzA/3BhvBW72toVeI0kN3GNVDaKLCohqEG1rhQ0PTYNoVZ1eVQ+qqntPXoR977T/8v/vsxNyW4qu6/4hyU83pj+enW/cl63VYnTSu7uue9c+48sIiCbJFy1p3z6tgOjuBtFPZHHP08vSvodfa0GPcdKtGuPLahBN13Wf6rruR7uue1DXdY/puu6V+6z5YJInzvEwr+15/Msz7Ovzj7qu6wuptlpEBUTZWJP/Bz4tyRuS/FySn0jyV1X1/Mk7DK7KxQPXDWkZZYCq+oYkz0/yWZOh05M8IMlzquqXtiGYVlW3T3LnAUuvkeTLR+x7jaq6e1Xdq6rOnvmALM2kJfS3sv+fM8/Kzv1uUY91LO2W+Odl5/v378tV32jk9Uke1XVdl+Q5jWvPicYaAOZQVdfMzhsRXH/P1COT/GNVPWnyJmkAsGiXjFx/6TIOsY8xAdHbL+0UAAAAAAtQVY9I8uzsvGHyEPdN8rVLOxBw4KrqRkkeP2DpnZI8fMnHATgQAqJskmv2zLXa54YGRPf+um+PTQuINkNcA14I1XePOLHn45hrTxIQPUBVdefsBCKfn50Wn9cm+fmeS35w8kLuZfqe7LQs7vaJJF/Rdd3rl/zYSfL2KfN/1Rh/Z5IrFnyWJPncJew5zdHG+L8FRCdfB7O0iO7nI2kHRM9Z0GNkEmLZ+8LQk964qMeZVdd1T0vyX2e8/O+mzO/XervXH06ZbwVEbzpgb1g7VXVWdsJLX5erf8/yoCSvr6rvW9G7hd144DoB0QWoqi9K8j/SfnOYr03ytC0IDHzZiLWPHbKoqr44yT8leVWSP0/y3qr6li34d7Vtfjo7wd+WB1TVosKX90xyrDH3/G7Hf01yQXa+Ju+b5LO7rvvXyZqXZueNYPazbY2+AKzWtye5UWPuaHZarn92ZacB4DC508j1d1vKKXaZvHHCHUZccpuqGvImsAAAAAArV1V3SfLrGZ+B+G4/84Ct9t1pF+Ts9dXLPAjAQREQZZMcVED08j2/XnRAtPWC2kWFzVoBzmR6y2ffPeL4no9j9+5bIyC6ZJNgzB8kOX/X8O2S3LFxyQuS/Payz9V13ae7rntMkvsk+bHsBEZv3nXds5f92BNvmzK/b9Cu67oTaQfo5nGTqmqFGpel9QekK/f8elEB0cvSvoefs8DQSas9NFmDgGiSdF33fUk+P8nLR1x2ZXbCOn1eNe2hsxOU69N6DAFRNs7kvvKr6Q/hH03yw0mevoKQ6MUD1wmIzqmq7pjkN9MOh570uIxo1VxTDx6x9u5Vdb2+BZNg7bOTXLhr+IwkP5PkO8cejuWoqs9P8oUDln7Jgh7ygY3xj2TX981d132467pndF33sq7rPrFr/IokL2zsMeT3AQBXU1VnJPnmAUu/afI9DgAs0iUj1991GYfY47My/Wchux3L8Dc0AwAAAFiZSUnEs7LzeoWxbpLkixd7ImAdTF4T/9gRlzykqs5b0nEADoyAKJvkWj1z8wZEz+7Ze2sbRDP9HtAX8jwZPN3kgOh7GuPXqaqh7yKyqb457TbF/fz3FbSH/puu6/6067rv6brux7que9eqHjfJX0yZbzWIJsmbRjzOlyf5T9lpbn1pkv/ds/YmI/ZdhNbX/qf2/HoVDaKnpr8Ba4zbNMY/keQdC3qMuXVd90dd190ryTMHXvLGrus+PWXNtPDnq7que++UNW9tjN9Ecxwb6N8nefjAtY9J8oNLPEsyPCB6/uQH3TRU1ZlV9aiq+v6q+pqqOmfX3CnZ+f9t3xvD7PZTVdX6Pn2tVdW1M/4Fpg/p2e/sJL+c9otJf6Sqbj3y8ViO7xq47vMX9HitgOiLu64b+me65zTG71BVrea3uVTVsU19fgMwyIOTnDtw7f+qqqFrAWCI2zXGW39/cPuqar2R7KLcqzH+8Z5rWr8PAAAAgIP0E+l/nc1LkzwgV3+t40nftugDAWvhoRkXHD8tySOWdJatUzs+r6r+S1V9Z1XdZwWlG8AMPDHZJH0B0VZQaRENopseEF1Gg2i3Kyy4jIBo35kXqdUgmiQXDNmgqs6uqgdV1X2rasjveV08ZsTaLjt/cD4M/iz9z719G0Qn3jzicd7Ydd3/6Lruvl3X3S87TWWt+9WqG0SPNsb3/tBkb7vyrPoaRJPknAU9zl0a42+eNMCumz8cuO7vpi3ouu7N6W+4/Y0Bj9MKiF4jV20ihrU2CQT98MjLvreqlvmiuDEBKK29DVV1sySvz07A/ilJfiXJ66rqksmS+yW584gtL0zy6AUecZXun3aYs/WXIF/Qs99/TP/3xqcm+aEB52KJquqmSe47cPltquoGcz7euUnu1phutYLu57k9cw8bsc9UVXWjqnpmdr6PvaKqXl1Vj1rkYwDwGVV1alWdfgBvKjTmL3PPT/KkZR0EgMOlqo6m/QLFX2uMH0n7zQ0XpfWz8RckeXtj7hZLOgsAAADATKrqXkm+vmfJTya5f9d1L07yjMaae1fV2DfcZoGq6rqTN33/pqp6aFXN0gbLkk0Cgfeuqq+uqks34E24v7Qx/r60y6S+bEln2SpVdePsvLb+j7Pz+rAfz06m4M+r6pYHeTbg6gRE2SStgOjHu65rvdB53oDoJ/fZe9MCostoEN3dJDlPQLT1+KtqEO0LiF407eKquneSf0zy/CQvSfLmqrp0MUdbnqq6MMmtRlzyuq7r+gJ8W6Pruk9k55vY/fxJ13WtPygk4wKi/7Lncbsk72ysnevF+zNoNYheuefXi2oQvSztBtFkcQHRezTGX7Og/RftJQPXTQ2ITvxUY/xNSX5xwPVv6ZlbdcstzOPrMryx86RTkvzA4o/ybwa9KcXEzZZ2ig02+SHks3P1+9GNkjynqs5L8vgZtn7cnEc7KA9qjL89yc+1rqmqq30PMAl0DPn38MjJDwQ5OGMDzZ8z5+PdL+0/zw0OiHZd984kf9OYbv0Af7Squmd2vu97VHZegJ3shMafWVX/TSM6wOJU1fUmgfyPJrkiyd9W1f1W9NiV9vdCLf+pqm67jPMAcOhcnPafk/4gV/8Z+0m3XsppPuP2jfG/TvuNBf0MCgAAAFg3T+mZ+60k37mrKOKne9b+58UdiaEmgcPvzc5rZ38lO69f+f0k766q79iwgp6tNglj/32SlyX530n+NMlbqqrvzecPTFVdK8nnN6afmeRXG3OXTt70j4bJm9W/Ism99pm+R5I/m5Q6AGtCQJRN0gqI9gXXWg13ewOhZzfW7RcwXVhAdPIN7ZHG9BVj92tYRoPo7gBna/8h95fW468qIPrBtFuUegOiVXVmdv5Qubs576ZJXrABLyq7z8j1f7uUU6yvJyX5+J6xtyf5hinXDQ2IXpnk/fuMr3tAdO9zZVEB0Y+kPyDa1x49yCQ41GqNe8W8+y9D13XvSPK2AUuHBkR/OTtf27v/O/5Lkod2XTfkDQnel6s/L07SaMhGmHzf9Z2N6ePZ+eFw6+v80VV1hyWc6ZQk1x1xiR+o7O8b0n6x4/WS/ESSRzbmX57kfzbmLp38EHHTPLAx/oK02xqvmeTz9hm/W5Ih7/Z2SpJvHLCO5fnikevnDYg+oDH+zvQ3l+/n/zXGP6eqxrQs72sSXn5ukvMaS74t/e80C8BAVXXNJH+SnUD+scnwbbPzph3LbkdLdt4g5MLG3Jsa46cm+RlvFgDAArRaN7vs/P1B6+8QlhYQnfxdVuvnt6/Pzpug7sfPoAAAAIC1UVX3SXL/xvTbk3zdpKQjSdJ13auzE27bz5dW1c0XfESme3KSH8nVX596rey8rufXqqr1enpWpKrunp03Bd/7M8vrJfmDqhr75uWr8IVJWkHPZyT57cZc3+uKD72qOpbkWWn/3Wuy87rHZ3ruwvoQEGWTtF6c3RdSajWI7g2EthpElxoQTbs9NFmPBtEhAdF5GkQPNCA6ebeg9zam+76hSZKvzs43vHsdS/LEec61Ap81cn1fc+DW6brutUnump1Wxeck+Y4kd+q6rvVCwpOGBkTftfuHEbu0AqLXH7jvoqw6IHpZdgLxrbD2OQt4jDulfb9dy4DoxEsHrBkUEO267njXdT+U5IZJHp7kYUlu1XXdoADH5Gu2dS/QIMqmeEDaoftf6rru27PTMNrypMUfKedm2PdMJ3lx3h6TFzp+25Rlj0/7/wM/nORpjbkjGd9AdaCq6oK078vPT/Jnaf8Z6Q+r6ueqavf3HmPe/e8/TP57sGJVdZ2029Jb9nt3vzFaQeQXNr7X7fOMnrlF/OXCL2b695Q/O/mLDgDm85PZ/80lrpHkv6/g8T+7Z+4Baf/s5UFZYHM1AIdWKyD6jq7rrkjyxsb8MhtEb5uk9SYIr0/yT405L5IEAAAA1sn398w9oeu6/cqEfqax/pQk3zX3iRisqi5N/3/DJPnytN/gnRWYBAL/b5IzGktOSfL0qmr9HPSgPLgx/i9J/jzJa9POftxzGQfaEk9NcsmAdXdJ8hXLPQowlIAom2SWBtHWi5/3BkJbAdH9/tCwaQHReRpEW/O799zYgOjEuxvjvQ2iSb6mZ+5ha/5uGLcaub71AoGt1XXdG7uue0LXdV/Udd1Pdl3Xd585ec0HstNKO03rxYjr0iDaeiedK/f8emENopMQwYcb84tobmu9QPTjGd7AeRCmBUTfk5HPz67r3tt13bO7rvv9ruta/z9reWtjXECUTfHYxvgnkzxl8vlvpt2c/ciqutPYB62qU6rq3lX1A1X1S1X1xKp6ZFXdN+OfPwceEJ38fh5fVa+oqrdV1bOqamwwbZF+ODtNUbP4lyR/nOR1k8/3s2k/CLxbz9zLuq67Mskf9Kz5piSvrqqLJ7/er1W05ZwkjxmxnsW5d9ov+H1qY/wOVdV6Y5BeVXXDtP9M8cKx+3Vd98bsPA/3M1dYZxL6HPJ1fFqSp03apgGYQVU9OMl/6Fly/6q63ZKP0Qr7v6nrun/JzpuAtfxmVXVV9amqelNVfUNV+fsTAMZovTDq5Jv0tQKiy2zZvkNj/OPZ+Xlv6+fLN17zv+cCAAAADomqulXab+790q7r/rgx9/tJWqUgX1NVmgNXoKrOTvKrGZZZefzk75vYpapOr6p/X1W/VlV/UVUvrqqfqaqHVVUrzDmLx2f6G8ddI8n/qKrWa1RWanKO1mtCfq/ruhNd1306yasaa5b6urCqOrWqbl5Vl1TVuct8rEWqqlsn+Y8jLvmWdfmagMPOCxzYJAsNiO75H9HeRtG+61cVEL1ihv320xcQPdQNohOjA6KTP7DcpWfP87LeYQIB0eUZ0sbYCqC8qzE+rc120Q6iQTRpB0QX8YeiVnDpLyd/+FtX0wKiz5k0Ia9Kq0H0pis8A8ykqs7JTnvufn6367p3Jf/WLv7knq365vZ73Idn5/+jL0vyg0m+Njthrd9J8pIkfzlmvxxwIHvyAvlfSfLL2Qnf3zjJI5L8RVU9asmPfaSqLqqqa+waOyfJE+bY9umThuUuyYsaa+44x/4HoRUQfUfXde+dfP5zU/Y4P8kvTv799rVw7ecXquryqnp5VX1LVbXeeILFuk9j/J+z8+6O+zma2VtqPrdnrvVcmua3GuN3q6p5mmumNQzvduckS72XAWyrSYv4Lw9Y+rAlH6UVQD35ffczkvzplD2OZKcF9ReS/Pasb6gAwKE0LSD6hsb8LZf4ZjW3b4z/3eTnYK2//zmS6W+kCgBXUTtuO3nh8tdX1b/bpBfAAkxTVTeoqidV1fOr6gVV9d1Vdd5BnwvgEPj6nrkntya6rjue5Ecb06cm+SVvkLV4VXWsqm45+bPB+dl5E/Mxr3f6Wa81+Yyqult2SlB+I8lXZue16Z+b5FuSPDv/P3vnHW5JUfTht5acZMlIXHLOUQSJgogkUUQQCaKiSBBRDCgKYkAyfKKCREUlCBIUUCQoEiRJzrtkyQsCC2yo74+aC4ezUz0z58xJ99b7PP3s3plOE85MT3f9quD5TDjalpPWzCbswJLZPwxs1k57NbIyvo11o3j8BidPR2z9RWQeETkGeA6bH74deElE/pZF1O13vkc1ndlqmHN7RGRmEfmiiFwsIveKyO0i8ussIMXy4aA3CDpL/MCCQaJOgegoYMaGv70Iop0WiM6Y2FdXBNGU2LKOCKKeOKnM86WfBaIpUd7aFB9fX4oJMqO2qmKuEIiW58ESeTyB6AvO9m4vmnmTHs1CyrwIy60wJBB90dn/f9nHQjsGMp645aY26uw4qvoo9mHo8cdu9SUjIogGg8yO+OOuM5r+vhC408m7XVkPgiKyA3ABMKZM/pIs2GNvW/sAu+VsF+BkEakj6vN7KzYveEdh78mnsYnNX4jIrMAuQKue8N4CTmr4+w4n3yoD5uHMi5r1jhhZVW8Eriyo58PAT/DH65cmys6KOWc4Dri6E/dFMBXe5PG1wL1M7ehjiFY9oq7nbL9HVf/bYp3nJva1FEU0i3S6Y8Vi+7fSVhAEwaCRGe2uKyK7icheIrJ0m1XuASxUIt/H2mynCC8C210AmWOQ/QEtWd/HMccZgzQeDIIgCLpA5vl9WxE5REQ+nhmteQLRh7N/vQiiM2BOuDqBF0H0ruzfJxJly7zbgyAIgmDIweNu2LrmkOHyydh6yxMicnAYgAZBMMhkRu4nYE61v8+7oogfAw9EpLMgCILOkTmo3MPZfYuqXlNQxTnAOGffGsA3W+tZ0IyIjBGRszA70Aewb4NngQ0rVrUMcETN3RtIRGQNLADBEolss2DC0btE5Jw21vzWp5pt+ddbbKduvOihk4CrG/72BKILi8iCdXZIRNbBbHW+igWcamRT4DoR6VvbFBFZDtiphaJfEZH3YbZKvwC2xtZuVwX2xJwN3wO8KCJ/FJFN6ulxEASNxARcMEjUKRCF94pCPYFongCqWxFE6xKI9mUE0cywyjOu6qZA1DNgTnlGLuMxJDUg7yWLUS666xCvYB9pQTnaiSD6krN9dAe9h+fhCUSbhQWeoLMqQ8/wcYk8v8CidlT22CUi8+D/Hm+sWl8PONrZfjNweTc7gh9BdJGIqBIMALs7258G/ta4IYuecGiiru8XNZZ5wDsFf6zTKjMy9cRRV8giqB+eyDIXsF/NbY7Cojx9jXe/BWbGoob+HTigjepPboioCfAfJ988wHxttNM1svG1JxC9penvLwEvF1TpRWd9EvgKUzuPyGM94NwQVXSO7B3sOae5TlXfxiZY81i1xWa976HrWqxvyDHGzc7uViaewQTtVZ0SrSsiy7TYXhAEQd8jIouIyGGYM7AbMGcpp2CGbFdkC5ZV6xTKC+zXaowIXydZvZ645p2Ibap6O3B8hap3B37Yes+CIBiuZGL72UVkWRHZUkQOEJGTReQyETlfRL4uIiGwG4aIyBLAvzAP/YdjDsLux3cSNrRu8ECi2mVr6l4zXgTRIYHoeOANJ0/cv0EQBEEhIrIBcDf2fblKTpZZMGeEJ3axW0EQBLUhIvNjwox9gTy7iLmBS0TkQ93sVxAEwQji0/i24z8vKqyqE0kL2Q7NxrRBG4jIZth3wa6YXU8ZvGAVAAeJyP4j2dYkE9r9kfLaBMF+L/eIyHdasLXdpWL+D4tIPwRS8iKZXq+qjRqQlK3wGnV1JnNkfjk2RnSzAceJiGeX1Wu+gm/z+Gngz86+rTFb7zUL6h8NbA9cJSKniUirwSGCIMghBKLBINFJgehsTp48MagrEG1hMNoNgWhKbFn0DCgTQbQlgWjB/n6IIJoSiHoelxtZsoW+dIOqXqjvy6IrBOVoRyCaEmmMrt6VlikbQfT5mtobiiCa+uAH+yD4Xgv1p4xb+zqCaMbvgPOatj0J7JqJ2LqJd41GAQt3syNBUIVM6OOJmc5S1bxxx5/wI/huU8Jw/iDaiwD9eGJfrV7LKrAj/nh8iM/V7AV8X2BbZ99a+OOtpwvqfR74QdM2L2os5Bu19CMLAfM6+94jEM3EeBvxbhSTKlyhqo8BPy2Zf3PMW2HQIiIyvYh8W0TuEpGxIvJzEZkr270cML1TdChyrPc8qxxBNFuE8L6HPI+LZfm9s31FESnzDfYO2be5d989DKyeKH6+iESE9CAIhhUiMkpEDsWegd/FHIg1szlwg4gcWnGOc03Kz4NNC6xdoe4qLIO/WHlf09/fwH/v5PFtEflKS70KgmDYkD1LNxCRo0XkJmz9aTz2jPkzcCywN/BRYAfgSOBxEfmriOwiIjP2qOtBjYjI+sCtTP0+S31DPASgqq/jz/l4UbBbRkRmB+Z3dt+T9Unxo4iGQDQIgiDIRUSWFJHjReRRzGlcGYdrXxaRqgbHQRAEPSVzoPt3fAetQ0wHXCgi/WorFgRBMJBkaxX7OLtfpvw8/wXAJc6+aYHLWnGgGRhZJO3LqBZkaRzm0PqsRJ7jgFM65Xh0APg+sEgL5abFHJ9ekc0PFpL91rZ0dj+XKPrVin2rlUwEu56z+8rGP1T1BfwAKSvU1J9RwJmUt/c+SUT6yiZNRGbFhN553IvZMnuOeGfEBKRV2AO4Jht3B0FQAyEQDQaJTgpEvYFpXnlPIDqKtOAzj1T+NyvW5ZESEBWJODsWQbRgfzdFT55AdP6EMVyZhfp+jSCaEr7m0WxAF6Qpc76qRhCF9kRGVemmQPRtVR161nkfX418R0SWr9iGJ3x4QlWLBEQ9JxOBfhb7EDoHEzStp6oP9qA7KRHv4l3rRRBUZ7fEvjPzNmbGcakookd64wQRmQX4fPnu5XIn/nioV8Z5e5bIsygmLGibTPzWLOIsgwLrk55EPkhVx7+nkE0Eeu+FfvB4V4bUgkVzBFFU9U5sXJuKDJvHNdm/P8Am+ctwWJcjog8bssWOS4AjsMgvY7AIsDdmvxNvrPM2745N73DyrNqCk6O18cU37QpEz8N+w3l4E9Aey+Ibpp2c3f9ef1cEHhWRH41kj6RBEAwfsnfJBdhCcl6Ug/dkz/JVGYd9omKX1q+YvyyeAd7bNH3PZh7Dd8a+t4scVg1xgohUPdYgCIYBWaTQ7TDjh+uAA7FxcRnDJME8mP8GeFhEtulUP4POIyLrAX+h2IFWI1N479z3/U6+ThiSp9apGvvxpJMnnAIGQRAE7yEbFx2MzTvuR9pBQh5HZWsoQRAEg8JJlHfmMicWSXSkiliCIAg6wbqYiDCP01R1QplKMhugL+Pbms+GielqEYmNJERkDBYAw3NqncfrwMdV9VXgYNJ2s58D7hSRDVvu5ACS2cju22Y1mwD/EJH5SuRdGn8ucF/86JufypyM94qVea8WpJGrc7bd4+St67f/SWDjCvmnBU7tM3uqnfCDrv0kC8RxFb72ohXWBs6uOShFEIxY4ocUDBK9EIhWiSCaqscj5TF6uEcQTbXdDxFEp8Mm795DNhBbukS9S4vIOlnqp2et5y3awzNWCPK5n6mFlM20EkF0qnuxg3gC0ebfZcozUFlebfh/GYPMUcDXKraxrLP91or19AxVfVNVz1DVXVT1+6rqeXTvdD9ex7/uEWUr6Euy9/Znnd03qmrqPXcpOaK6jA9hEUHy+AztR35+Gn+MUrtANIuC4o5Xsiisnse1Zg6pSVD1FaoZXA7xV1UdC+wF/LppnwJfU1VPPOpFEe0rb20JvAnxR1Q1d5yhqpNU9XuYd8ay3JSVnYhF+D4MKFp4GUNN4uERyBHkn7slgZ/jR0i+R1Xfzv7vRRAdjQm7q+C19wLwSMW63oOqPokZ3OexS8VJce9+m4ItUIFFi07xLUw8VAoRWUJENhGRpcqWCYIg6DSZQdqlwHYVi363TMTMbNxXVTSZiuLcDp7jokezxcr3oMbZmEOBz2BOmVJzHQL8dqQZIQRBK2TCgfVF5FsicoyIHCwiawyi8w0RWR0zJLmQcpGxUiwI/ElEjuizNYOgBCLyfuAifIMjj0dVtXG972EnXyecjnqi07d47zqFJxCNCKJBEATBO2Rzc6cBP8FfTy5ifmD/2joVBEHQQURkK/x1Zo9lMadCQRAEQT2kxo4nV6koW4v+UiLL7MDvRSRl0x00ICIbYMLBKsFP3gY+raq3A6jqf7E1ec+RNNi82d9EZOtW+zqAHI7/3XUTcDZpYe0QK2Hnbu6CfJ6ocQrwV+AYZ/9MwKdK9KNTeE5p3wRuy9neaYFoK6LeNYEv1NR+HXh9eRFz+k627lo2gnNZtgW+WXOdQTAiiQXIYJBoRSD6Jr7YsHER1/PeVVUgWnVh2IsgqhSLzMrSiQiiU5z/lylbpu1uCkT/m9iXF21zDOUixU6LffzcCNwtIutW71pHqBpB9PqO9GKYkhl6PFCQzYtO9ir+vd8PAtFORBBtFIiWFRR8RkRGV2jDM9wK8XNreELeEIgOEJkYcBURWWgQjTMrsilmgJnHGamCmQfBQxJZftosVsrO535O/vHYWPGIVLsZz9EF47zMaPezWCSLSSJyj4jkib+qGP1/kAqCKqdf0wP7tFj8aDDxoqruBWyQbfshsLKqepOWAP9xtg9KBFFPrOAJ7qrmAbuP3zFmzc7zocB8wBbYefb4Ysk2ggwRWQgTS3t8Ej+6b6PA3bu3wfe46uEJRG/InpvtcrazfQGqeVr0BKI3qeqQAP9c0t/LAD8TEc87IgAiMo+InIf9Nq4CHhSRO0Rkiwr9DXpI9j7cWkTOE5H7ROROEfmFiHjOZoJgIBCRmTAxfJXnZyPHicimBXlWwxdmPu5s77pANFUoG8/8NnPKNB+2AOm9H6YHzhORedroZxAMa0RkDcxByT+AHwFfxUQEt2CGKKv2rnflEZH3i8hpWL/rFoZ/G/i1iLQqrAi6TCboPQNo5fl/X9Pf3nvJe4+1gycQfURVG991IRANgiAIkmRrHycCu9dQ3cEV13qDIAi6jojMCvyyxeIHZeWDEYCIzCoic4jIXCIy+wiwvwjaRESmz+6Z2eJ+SSMiC+PbqlyuqpWdF6vq75ja0XgjK1LOpmdEIyLTicjPMTuTMtEpwexirwU2UNVLGneo6hXANwrKT4tFGCzb3sAiIotjztrzeArYTFU/izng2RG4t6DKFYG/FIxP1nK235o5pL8Q39Z+j4L2O8kGzvabm5z2DeEJRJdtN4qniKyE2czl8QhwXKL41/thvUBEVsS/F05X1Tcb/q4i0n8RC+hTpA35fkRyDoL2CYFoMEhUFohmBqpeFNEyEUTfyNk23msPmCuxLw9PaPhWTca10JkIopOd/5cpW2Z/NwWizyb25YkpW4kGsxxwlYj0Q/SpKgLRccANHerHcMaLPgZTewt/h+w3P94pV8XLUruUEoiq6hvkPyOr0Pj8fgzfEKWR6YFtylSeTaR5EX8fLFNHMBXdNGAKOoCIbIsJWO4AngDuEpFWDcYHgd2d7W8BfyhR/kpM7JPHClikoUY2A5Z38p+aReL1Ivk18hx+xGlP8NoKBwFnYhEEBev7dTlRkao6uviNiPxRRL6ZRdOrurCxFa0ZXd6Aea57B1X9p6oepKrfVdW7C8p77/DlRKSMg5CeISJzYZ7/8ri2RBVlBaI3532nqOr/VPVKVf0uvpe4j4lInffvSGBH0t74BZjO2ffOdVfVV/GdcaxWtjPZhLgXTbiu74bzMUdPeexapoLsmeP188qh/2TRhk8qqO79JJwFZJP8/2HqxclVgMtF5Kzh7GVWRGbsh4WKdhCR2YGLs/QJzMP7Spio/QYRGRQnAcEwJjMsWlNEdhaR72Zph+z975WZE3vmbdZG09NgYkhPXAKwm7N9MnCos2/RrH9105JAtBlVvRjYO5FlHuDkMN4JgqkRkY8B/8TGQnlsAtycOSrqW0Tkk5hRzR7YmLsT7A78LnOQFPQ/B+A7oSmi2VGh9222aAfG1t47vDmKaQhEgyDoW0RkURHZVkT2E5GjROR0ETlbRE4WkR+KyL4iUnp+K2iZg0lHW2rkt5hNxdHO/vcBn6ujU0EQBB1kb/w12UeBRWhak2xgduCjnehU0HsyQegeInK5iDwP/A+L4PYCZvP1vIhcJiKfGPT1k6AeRGSW7J65NLtn3sLumVeBZ0XkKhE5WkQ2a1ecNAz5Cr6N8f+1Ue/eZFHwHL7qOFYf1ogFGyicC83ynE3x98G5mA3SKpj95pyqupGq3pyXWVWPwr4TJibqnB34aVEfhwFfwZ+X/rqqvgbvOEA9D3N6vwfpYFtrAqckrrHn3PWGrK1JwFlOng+IyHKJtjtCdixeBNF/ONs9geiMtG//mnKa/3Esyvylzv7F8EXB3SQl9j2l8Q9VfQj4TYk6bwbmVdU1sd/wx/BtIqfDnGvG+zAI2iAEosFAkD3sPe8VqUEN+ALRxiggnkA0L1roS/he5Oct6EsznqG5ZxDbCp2OIDrQAlFVfRubpMnDiyDaCjPjG8Z1kyoC0eOavEgH5bg6se8vBWVfcrb3YwRRaD+K6DsRRDOxybkly328ZL75ee+zvpGiSK9BPhFBdIARkW2AP/Le67UC5iXM8/40sGRG597z4kJVHV9UR/ZsOjiR5QdNwkEveugU3hUh3VXULl2IICoiy5Dv+XBa4FciMl2WT/C9g6XYHvgxJrD9c0VPubu30N7/gM+26WTFi7I4LSYY6goispyIfENEDhGRD5YUH3wosa9WgWiJPJ5H5WkwwWNQnirRe5tpvu53OPlWrVDnCviOm66vUI+Lqr6CCfXy2EFEvG/3RpYCRjv7rmn6+5s525r5qohM5XQkE2ZdRvoba1fgD2IRh4YFIjJnZpD5LDABeENErhGRHQdNLJW9wy/FFiHyGA2c0+9OAoLWEJGZRWSRfhNxi7FJZuz8z+y3Nh74N2Zke1iWzgf+KyKniMgiTXUsigm0vEVRsLHT/pjY8TP484dzABdnYurmvs6IL96/Gvhbov1OiK9rEYgCqOoppOfxdshSIdk1XVtEvi8ip4rIESKy8dAzMxPbfzkzHHtQRG7LjILOz67vL0Xkt9nfx4rIpoP2vK1Kds5WEpHPZ+PiL4vIasP9uAedhjmHoufqdMCZIuJ9P/cMEZlBRE7F5ihHt1DFk9g38ClAkYMisPH+hf32LgreSyY6+kkbVTRHEPUEotNiRuZ14jk8bRaIPuHkWyCMcYKgfkRk6Wx8838i8gsR+bqIfCDGOoZYJJptReQ0ERmLOTS+CDge+Bo2d/wZzKj7O8AJwG0icqOItCrmDxKIyC7YXH8RDwDbqOpnVPXhrMyrTt6vxDsmCAaf7BvqA9lz+4N580eDSDYffKCzW4FdVfUJ4NP4NoufqrE/04rIAhXXWoMaEXPgt5WInIZFTzsN2AKYOyf7XJhA+DzgYRH52nD5bQTVyH67B2Hj2dMwJ9nN98w8mEO1AzHR+WMicpCIeLZuI4bsmfcFZ/eDwJ9brTsTuu2SqEOA40fKN1r2jDsGs1N6WUT+KhZ8wGM3it9z/wB2UdX7VPVOVX0oc2qdRFVPAzbGF48B7CYiaxbVNahk9hCeQ517yHHYrqqTVfUMYA2mnvdrZCdyflfZ/PSKTplbG/5/eqLuXkQRXRyzD87jn872B7DxXB4tR67M7EG838U/s9+BAvvgi6C/1mr7dSBmJ9gcKGOIf6pqXkCefYHbEtU+Bew4pENQ1ddV9TJsHOVpe9bBt78MgqAEw8ZALRj2pD56WhWIlokgOpVANHtReaKoquHrvYX/3AiDLdJOBFFv/3CKIAo2eZNH3uBx0Tba+Zgkojt0CW9APBZ4u+HvP1AcTSfI5/f4zyXPA8wQ/SAQ9X6beQLR59psq/k8/Yq0F6ghykayS/1eHypZR/BeIoLogJItOpxK/rt9BuC3w1D88Fl8ZxxnlK1EVW8FfufsXpTMkEFMcLmVk+8iVX0s+/8jFI/1Oi4QBT6PH3lwaWAoiuhC+GPcA8h/PzTzEUxgU8bb4Lz4XnXPA27K2f46sH1mdNIOD/Le8VAj54rIPiKyQJttuIjIbCJyPhap5qfA4dik5R9EZKaC4hs52x9X1XElmn8Yf0zcSBmB6LX4jhhqWxAf7ojI3FSP3jvEA6ra/Azxohd/sIIx1ged7RMx4VJdnO1snwXYrkT5tZ3tU4BbGjeo6gTsGfWdRH3TAcc1PsOyCf4zgYVL9Gcb4Msl8vU9YlHH78EWJ4YcZE2HvTP+gEXc3H6ADPx+TFpAB7YQ9P3Od6XziHk2/4aI3Cwiz4rIU9n/f9jJ91s/ISIriMj3ROQmbPzwGDBBRJ4Wkd/0ekFZLGLt9Zi4aG/suZtyRjctsBfwUGY8vY2I7Iq9r1Oeev8LrKeqJ6jqC6r6W3xDC7K6zsn5bW+PCUjzOBNb9PPmOTzBSkuIeeP35gAqC0QzDsfmKTyOSxnqZGO7L2KL5zdhgtPPAd8G/g68KCJPYo7r/g8bAy+FRffeBBOg7oVdm52zvw/AhLd3iMgu2WLtsEJEPoQZj9yJnf+fYufnNuw9s/VIMczpFzLB7ryZIeQRInKGiFySCVp2zozdlsW+m6vck8dnYoO+IDOC+SPlolkp5tTki9izenFgZlVdWFU3U9UvYEL4NfAd6AzxUeCP/S4SFZE5RGQ7ETlGRC4Qi5Ryroh8R0z0XsaRy8CRHdc5VLu3m7ml6W/PAR/UP8fabgTRaai+7hkEXSObk11QzPHL/P0+NhKRzUXkemze7P+wuYIvAkcC/wLuEZG9+v04OoWILJ4ZJT+FCUL3oJrj5nWAK8QcqxTO14jI3CKybAg20ojI8sCvE1nexOZXVgSWU9VLhnao6ouYsDePMdicWRAEA4iIzCQiPwSexd5hF2HrWS+KyMUislINbcyevTu/JeZ06zMiMqbdekuyK75jyJNU9V/wznPuHCfftmJO3Fome1ediTmPewo7v6f2gd3ZwCIWHW9xEdlCzGHHD0TkJBE5R0SuEJFbRORREXlFRKZk//4XeBmz99oD38Y0j0WBo4BxInKgDD97jMBBROYBrgB+Rr6Q2GPBrMyTInKkiIzuQPcGhT3xHbgd327QE1WdiAkdPRuJtYAt22ljEBCRFbG5+K9iAvfZgc2Ai7J3zrRN+T9CcfTWh4FPZ0Lcyqjq9dj3RSpIy/daqXtA2Bp4n7PvuJTTfFV9BFv7vj9R//Ei0hwtdCX8oDLvCERV9X5s7JfHZ3swn+Gt8ytZ5NOpdqi+gb9u2LJAFFvb8573v2ho/3F8G8R1st9kr/go/rp0rjg4C86xMRZdtln3cSW2Hv1YTrl7MLGsxw9FJALWBEGrqGqkSH2fsA9mddKSBWVvccp9oyHPC06eHZ06/+Pk/3rF49rDqeexGs/dXIlzt3JB2S865R5syLOzk+eZgrrnT/RruS7fX1c6/Tg2J+/vEv0uk/bo8W/pZadfn8K8U28BrNLLPg6HhBnsNZ/jm4FRBeUud67PUV3s+xVOH36ck7fd38PZOXV+AYtEVFR2vhLHsoNT9k1Aen2fDGLCjFS9azJbr/sXKXntDizxu6o0junnhHn0u985zieAaSrWtwQmgGr1ebdhU323FeRfHvM6m7fvlZrOz1MFfTg+y7trIs+cWBSNsudhmxJ9OyBRfgNgJmyy93FMbPt7YIka752ia/MmcAwwS8337DSYGMRr9yKcd1d2Pcc65c6q0IdzSlzDeUvW9Z1EHfN38Le/ICaoORz4sHfOBiElngFl0k9z6tsikX+9kn36rVP+XzUf+3SYUD6vrctLlD/BKXtnQbn3YQJ+7zwdBMyQ5f16xWvyX2CmXt9XbV6Xz2CT+mWO9x5g8173ueB4NsBEw2WOZzKwbq/73MaxzozN3TyROMY3MOPkgX1uFpyDxbCIm2Wu9ynAHDl1TIcZsK6ARe7eFHOqUWlcmejj7pT7Fm43PYsz7wYcW1D2MmD2hvx/c/KNH3rmYQuweXl+1oFr7PV7pTbqnQG4K1H3MTllVgVOxqK0dvp6Poa9nxbp9e+shmv4PszwvMxx/6Od6xqp9DVZGBtXPVNwPe7DnMC1cg9PBNbpg2MVzCFRmT5fBaxasf6tsXdtqt4rgFl7fS5y+j47ZsDydkH/J2HGQicBPwJ+jn1j/hl7X/wWE498AViWARhzZPfFaYljfg0T/6fOy3hy1gSw74O8/F+ssf+zJvr14aa8qXXEnv9GI/VPAqbHnMktg0W66epvGTNWXB/4Ibbm9mbT/fo2Nk7Ylz76Bse+JX5Z8j2jmIPTD/a63108P6Mx4UTRu6ZKeh34BjBtU1uCRfC+vSn/jdg38Qy9Ph/9lDCHo943nWLzaBsX1DF/4tpe0+tjjBRpJCVsfW3p7F3e0js8e45uiL8G2/hO3q2F+pfG1h3vwp+7vRZYs4PnaRrMoWxe228A8zTlT9lPTDVvVKEfS2GOXPLqfQZYv9f31CCk7F22ATbveT3dma9LpUeAT7b6G4w0GAmzv3yopnvmeSwKY8+Pq8vncBb8uZOXqNFWA3MC753/m8v8XrH34zKY47lvYFEaO2YTUeOxzw08XXAPXo2tjS0EHEfx2uqZwFw19W963o32mJdW6/U57NB1+ZNzvC9Qcq4DWACLXuydu6eBRRvy7+3ke52mddDsPvfqLbQJq/lcneL0444Wz/E5bfTlW06db2LOJRvzrpw4h0f28N67MHEfFNoFZ/fdpzG7kmVK5BfgL4lzcSUxZooUqaXU8w5EilQmFbwQ5ykoe41T7rCGPJ4B1lZOnX918lcybkoMrB6sUk9BG3Mkzt2qBWW/5JS7ryHPTk6eZwvqXjDRr6W7fH+d6fTj9zl5U4sgZdKpPfwdjcL/SNusV/0ajikbvB4CvJg9Xy6hhLEecK5zfX7Vxb574pTDc/KmPvieLfF7yH1mZs+HzTGPVF7ZwnsW2M8p+0iv75FBTdikj3dNkk4HIvX82v29xG/yOYaJAUT2DPGO89AW6zy5xXf/HTRNWGCes1Jl5sYWq7z9bQmysQXWon7fm+X1xkn3Z/tnpPz4qFBExtTGOe88u5vPY4funbJG6bcAc9bY7ldLtPkDp+zqiTK7VejDNgXtX1OhrqUS9ezeoWv3WWxisrGtU7tx33ToeLzfXpk0lQEvZvzhGaX/qGSfHnPK1yryydryRJ6TgfcXlL3JKXtKyfsodW4nA6+2eF2+0uv7qsTxj8LG4gs3/nawKMWtOEr4Vgf7OuTgaHfMudWmNBl+JsoWLSjmpQdoWrzp54R599wLW8hpfjam0mG97nsHzsUnK54DxRZGv4kZDl2GGXNMcvK+jAlgWvoewozOjm7xuVI1PQ2smOjLtPhO1IbS/ZiwZ/FEnv9rqNN7n/2p5uu8aaI/bQmusLGWd/0nkTlaw+YwbuzStcxL/8A8ns/Y699dC+d4UeDuisc7EYvwPH2v+z8cE+ZY4LWa7s2xBfsfavd3WtPxFh3Hg9g3U6uG1BtQPI68DVig19c/6+8oYMcS16/V9Chm+F2bw6eaj18odoi1B/ad9XIiz1+c+v/l5K/NAAhYJdGvMTnH662T7tDr6xGpdwlz4LAjcAb2rm4eE/0P+wb/BTZ2PhL7PluozXZHAWti6+gHY+LBv1PNIcHjdNkw0TmWBfEdq6TSRGB/BnReq+S5WQhzbPl8B94zQ+lmMgc52PdOkVD3YQbc6VzN16jIgd2nS9aTWg9ZtdfHOWgJM7o9DHOeeSYWXauv5qywb7zdsPHUScBPs78X7XXfhmPChNibAR/DxIrLkq0jYvNOO2CRDxvnd++kQHCEjREXA7bHvr8vpNr3wRRg25LHMDO2DlvWod/bwKc6dD49GzgFTszJPwp/rvl/tLCWiM1f31FwDiYwghxKVDh3go2/tsyePY9XuGe7mS6nzTFzpP5M2PrauA7cM+cAo3t9fF08j99MnIufdKC9SxLtuY6zsnfA3th3RF7Zsdg7dPZen1On/ynHaK2k3GBMbfbxY4n2zu/1OezA8c6B72DnpIp1rcbUjrUa071kDnPxhZbX59Q7G/6660VdPl/3tXKuMAeHeeX+00ZfvLmfvzr5r3PyP01Jm4eaz+Xs+M7Uz+hgu4uQduDxzW6fi0iRhkPqeQciRSqTSBvIJ41AsImuvHLHZPtHJerO9XiIHznlzIrHtb9TTzKyScU23pc4vjUKyn7FKXdPQ55POnleKKh7kUS/umoUgL/Qf21O3iKvOUXp3op9E2A+ajDuIi0WTt4LkVo+58mIoTn5T3Wuz++62OdrnT4cmpP3/Yl76owSv4evleiP5xHswBJlf1r2tx2p9P0xLb5hbBgL9WnCBHxloxF9ttf9reF458aPkDUJWLDFehegNa+iO+fU5TnhUN4VXqaM7pdt8xwVCaAUE0HNhD/2ObGhvtmBP5Q8HylRwjKJct/r0v2zR4VrewU1RA3DPGC+ULLNqSL9YkZ43v1e2jsjtuCciiy7R8Xj8iZjz23IMxsm6N6aNgS3WJRfb3J7u27cOzXfh6Pwx0BF6Rb8aLPe4lbhRDewZKLNbTtwDtZKtLdfotwM+BPXny957j1j7XbT4/RgMr/k+Z4Bc3DTGLn1SeACykfT8tInavxdrI+N8e9x2nqizG+ecpHV89KvsSg5fXEdMQOv0WTfndh7e2fgj7QXeaXwO20QUnbPfL9Dv+e8NJGKUb+wyF4pw4M6072UMMTE5o6KBNRvYu8bb//qDfV5UcXvq3KuSvT78047SQd2Feo/JnG8twHHd/FeK0qPAbsC07VxvAti3wwnYgagl2MR7U/HInKtSE1G89g3QDvzrffShmgv0lTXYzpM3FPX/XgcNr/9tYJ8P+/hMS+KRXn0+jaZmsTImNip6NvvVeC7mJO20djcwJqYoffWmLHyrpjx2bcx0dQvgJ9lv8+1afM7FYuEfFuN90FRuhIzWm/5udWB+8J7fw2lc4eeO8APEvl2c+o/28lfm2Fbdk7z2ng77x7Bj26yf6+vR6TuJezbcBVs/fpy/O/rojQFuBhYsoU+fIR0BPeq6ds9OI9DYpzTSRtjlklnMIwcYmBzgftgws1uvWcmYw4Oi6LdNaZXMecvv8AEo23PAQ9awuYYPGdxCnyjQl1rJOo5rdfH2uL5mS+7N7bFHHJ25XsEGwfmrfc9So/FtpjAb3d8W4Oh9E9M1NpTJzGDnLDvhG0xJ4vePKmWfAedTn5Eo9+SdoRSNj0PzF1wPB/CnMRWrXsSsH3N53Za/PfFJJocrTSU84JDKPDDFvpxSMlz8CSZsGMkJmy+YTlsbPFrTGhRdr21H9KLFETijjRYCbOZqPNbpjmNAz7Q6+PswnlcDF98NoEOOFfD5t688/7TRLmi+aOh9F/gQ70+t019X6/m+3MqO5aa+inAv502JwOL9/pc1ny8qWAtlR1DkB6jKPCLLJ83F3yCU+8ZTv6JwHxdOlfzJI5rp4Kyuzjl3qIFOwBsPs2zy8z9di641lv04N77TKI/G3a47X0K7tMf0cG1A8xWblVsXfTbWDTYL2IOhGPtMdJApp53IFKkMgnfE8iEEmV/75T9VbZ/1sSLZW2nzmOd/LnegBN9O9ip5981nrvU8a1VUNaLvndnQ56PO3leLqh7sUS/xnT5/jrA6ccDTfmmp7zHulQqNUGHLSoMGeg+C3ypzeNcItGnYfWxNKgJ3+Dwsi724XqnD4c4+fOMWa7ABslFv4WkV8qsfi9ic6FXJOA3Ttlzen2tBzlhERPyzutUUWYj9UfCFtbKvqP+3uv+NvR7EWwx+QeY19gfZsfifnxj4547Esd3UZt9Sgk789I95BvdzY6/sPqVLM+MiXo3avM4ykZDTU0AbZtT7+qY98pUnakJ9JTR8Jgu3XcpEVxealu4Cny5YpufaSi7IP5E499a6Mv2Tl13UNEYDT8a2njM8PwzvDfyw5uYIXQlBxtZW55TCKVE5Np+S5g3xyr3RGNyHTaQXgBYrKBPX0+UnacD50DwDTHce5t0BLlS0f0wo7VWvvtew4wRjk3k2bbX91fO8c6JH3W1jvQkbUYxANal2qK6K9LDFovGJ8r+qkT9j9PwLO7BNVsDM7YeEoG+iRkGpI6rSppMny1Ut3COZsaEG526r1OplMMVLMrrrRXrnoB9j1U1dPoHFRwxYIK9Vu+n25rq8hzLvU2NYmvgx047N9RU/2zY86wX91Sr6QngG9n1dBdOsXfuApiIoci4tDE9ir3zVm/jvK4KPFPT8V5PwVx3pMLrsSD2vKjrHryUhrF9dj96eSeTRePt0rFOj43bNiTtmOVFao7Ighlbd9pg9RnMaGJMxb4J9n3arpipnX4fTo4Beda3ZbHI9vN2+P44oKCfj9OwxoPN31yTk+9snO9bfCcWt9d4HN764/1O/r87+X/Wrd9mpO4mzHhtc0zMfzUmzPCcQ7aaXgM+VrI/ozCxeyeeL6WFbDWc12Wp3yj8b/RpxJkK50Uwx3wvtnEeHs3u1d9igqYLMGchnbhnmtMD2LzpiDEMJD1nfXnVc4GJAvPqepMOzC128LzMj4mQmp+XzwJ/ye7LK7C5tv8Al2Hjsg/Qwrx3U9ue84eh9AI9iNAJLIWtBbxU8Xf1P2y89AmyaJdZfdMCK2GOUXbDbMVacvw6XBIm2N4su5duwr6f6nzG3Ql8FYvWdiX12EQ1pn+TP8YflbXZzvFMoEZn+Nk957X120S5mfEjYv+Pas5cl6aak46je32Pdvn3MBsm6jiLtNPbbqTnMKdNm2BOVlbG1qhOr3ANJwJ79fq8Rqrl3pwee4amrvdr2Hzqh7G14E0w5zznUt7h+yQsEMqwFIdjzna8+Qmlg3MU+PaJD5Ez9sWCalR5Xr9BH4nCsXFrXc/Ds2hzrFvQ160TbecKGAc1Je7Dx1s5x9i3eMqG663sXvYcD+/m1JuyQ+yKI2Jgu0QfklG6sbUpr+wy2XlbG1vj3GpoW6K+1PnIXbfC7Aa9Z3/XbZuBPzl9eaqTv++s7TJO3J8AjqCm4GNZm5sCZ5IOFjIWe1f3jXPLSJHKpJ53IFKkMgnfY0OhF3j8iHznZPvnSzzcV3Dq/KaT/7aKx/U9p55/1njuZkoc3zoFZb/qlLujIc+2Tp5XC+pOGd8v0uX761NljgHzJp4ahJRNG5To04eYemFhSpmyiTpT3o5Gd/OcR3Kvkedt/B9d7INnHP5NJ/+8vDdS83WYANwTmDSmTUv055dO2UtKlL3aKRtGLe3dI56hdVeEzNjExHewKCYXMICR4XpwzbzxRl+8h3P6OwNwEv4C5DU4npCxBZfUsa3bZt8Em9wscx4nkRhrYYv5ze/6fwIzNOR52ak76e2sxHHcUPIYPNHCJBJGSdgCvicmH4sf3dB7btdi2F/hGlfxVDwF2KxL12MoTQCWysqmIre2dJ9g314vNxzf+VRYvG6oJyXU+11i31lUEIxk18yLGtwXz7UWzp0nxnwb//tWs2uVmpheOFE2GVEDf0L2pg6eh0OdNififL9gwpa8Mq9WvK9aMUr9TFZ2QfwFwUt7fX81Hef0VH8GNaarSS/UDqWWnR0BH02cTy9Nxvl2xo+6rMCZWR4volNzOqwH1+zL1G+0nZce935nbfR9Dix66z8wMc69wP/RZmT0nHbGALd34Rx5aRLw0YI+zojv8bgxXQN8BXunLsy70WKnA75A8ftvChYJcIYWzuOGtCYS3aepnpUTeWtZxMva8Ra4a1tExYxW270/xuIbPr6KRZT9AWbk80vs+/tc4DRMGNCqkeYkzJDlMuxd+cPsnN2J7429SroYWK3CuRyFRb55o0TdZfI0HucP6JNIz4OUMIO0Z2u4F4bSIzQJ0yn+nr6KDosuMKdSR2a/t6JjmAis2aF+dEMkOnQMJ1IQsSfr0+y0Hzm+rjQecyA1fXbf7MrU0a1vBfaiZuMUih2DvQWsn1Nuemy+8jYsyvbuqb5h3sjz6n+lrt8BcIrTRu43Cf7v83ed/F32W8LmJT+BiSbPytKx2fX9IjaftyEWTbvyXEmPjmkUFmlsCWCt7P47j3LPwjrS28DmJfrZKXHoUDqgC+d6V8zou2yfbsUi7ZURxtxGSacvmFH1msDOmMBqOTpszFfQn+kp54ypOb2GjYN3IPEuw4R3t3fpfv4LPRDg9eCaTYMfWXoSLXzH4zsPUgbEAS2wBe1FVLyHFtcSMAPmMt9utwAzdul8rJn9Jur4bU3G5qKewJ8HfAB7P6/DMBZrY+try2a/mcOxuddeOXCpM91PgxgceB++EXrVdAc1vOew99WjiXt0uYLyqShyP6rQj9S6X16aRA+iTHX5dzEdFmX+t1SbJ+pEegabU9uWtEO2+bHfcNmx4bHEfNbAJmAWit+Jd5Jw1ovZ3h1BeYcqE7J7cbM6noH9krB5ce+YX6XEHFcbbe+VaHvFnPyHt/AMeS2vrh6c5zmovvbqpZ+S4zS/5v4KvmPL16ngILWfU/bu8OYHjmyj3hlJO4Y8vcq933BNvG/Ge+jCeB1z0pDX/tiS58Q71weTbxvzNGZDsDtNDmzw7VpeIfF+x1/bnEAXHYVhY3Pvm+P4LvVhWco5S5iM2ZS+r8V2psXmy+4s0VZjutv7PUSK1I+p5x2IFKlMwvdQ+GCJssc5ZS/O9i+eeKiPcerc08n/ZMXjOsKp56oaz90MieNbr6CsF8Xp1oY8XnTX1wvqXjrRr656ACTtwWOWhnwfrDgo8NLeBf0RzKNkXtlKUWqb6t3cqXMKw2iyYJBT4jd3Rxf74ImBDiootyiwEO8arJaJfJUrwm+q99tO2TtLlPXESQf0+loPcgK+5ZzXp5vyvQ/zorQ7sF4dzxnMECBvEn3fXp+Xfk6UE240pm/1qJ+zYuLy50r0cQoWaVAayn+6oMwfa+rnNNjkTmoxfjIlokdhBgVXYAvbJ9Dk6RG4r+7nGDbOeCXR9zKpMCIj8PlE+amEs9gktCd4SQrXOnAvVo0UO46GMWPFtlIR3lPpauDjif3P0IIYpOl6rE0bwg3sOyTlaS2VzqWkBzbKRX1tS1Td7YR54feu+wzkLzJeXuY+xB/r3Ycv3n5/4tx27J1B2nPjVNcUe7495t1TFdueFjM2KHvPHtNU/gwn32T6SLCMeZ1v5TeqmLMOydKHMYGyl9e9vwr6twytC5ceockgDhNjpIRZ82f55qC89/Evd/F6eePwqmkyZmT7g8T5UOD/aujz9Fikr1/jG+9Mwhbb2l4szO7FMgYUd2Tnc0tgR+Dhms7tUJqAY/SJ/WZOLyg/CYteljwn2Dvh45hwYWgMPQUzqjyLNiMoYL9BL5qzd9zN49mZE/m3rPH3cZ3Txo9rbEOAP7dwPzyHGbYskdUzO7AxJs7YFXNctz4ljHiza3IK9Rlv1J3Ow8a3s5IzB8C7UeTLRNV6FNgkK7c6vufsvHRpmfMZScFEQ9+mfMSWZ4CLCvI8jxO5HZsrGpcou00Hj3URqkUZ+16Hz/2ymGi8G7/N8cBBON+ImHF/WUdJb2KGMEdlv7WqkaKqpMdLnKMrgVkrnPdZsvtwRt47pzQ/vqPCoTSJmhzVYc99r51ajNrIj2qqwHFOfu/b4AFMGLkPMF8nfxe9TNi49UtUjxj+KPAb4HO0IBrDxgU7AodhRuE/xubU1gOWx4x998LG7kdgBqjfAfbD1qp3xsYUhwG/x5xBXIUZst2LjUO64WCmKL0GrJ04Dwd1qR/70wEjRSx6XhWRy/PARg3lx1DOUdHt5BjAYePU5bP74k/kO3p5EYvw19XfMfbbqjqGfhp77lR5vk+LOdfJO/ZO3M/702Ej6F4m0pFYTmqxzmmxd7t3Tufv9XEX9P8T+FF1qqYTq9w/mGDEm/PMS7+mgwbZ2Dgq5YCtG+kRbF6nJaPgXifsO2wBbEy4K7bmeBY2d182glw/pbOBuTBnPKl8f8LeWUviizzy0suYs7lUnk/WcF12T9R/Zony78Ofl3yNEtGSsfd5K87BJgEnY+/PvbA50nmdNhbCBMhHY46LHwJuxOabtsH/blwAc+b4KcyZXWm7Pmw+aElsPuyTwN7AIdj492zMYdqFmMhoH+x3sT1mK3pG4ry2m54Crs/uzdOx79xvYY75dsBs7HbAIstumR1D1QjaQ9+aZeZd/kWNDvUidT5h45vtmdqpVXO6mZIRP7F5i8Mxp19l7+UHsfHp7L0+J22ezy0LjrOjdmHYmMv7rR7WlHcU6TnOVHq47P3QwWP9QqJ/V5c8jifpYkAHfHt9pcv2RDUe07TZe2LW7O99E8dY2kGn09ZcVLfdeYO0uNGz6VUKAlfVdP5udNo+u2R5z664TJqCjV1Wzuq6xsmXDICDOcDw2vhcF+9FL4CbkuMssYP92L3CNXiSAofNTXXPgD37qgSMaE6v0DCfFylSP6eedyBSpDIJ3wju3yXKet5a/p7tXynxQM+doMEXRb5NhckAbMIlr57aorBhA8mWXt7AN4rOOzYBlJdnQkHdyyX61dUFAGzhzuvLUg353EijmHFh2YFCcuEEWCVRdiItGggk+v9iN893pOQ18sQ0j3axD544+YCK9cxW4rdQxnu99wEyvqCc4BuTt71AMJITJmjzrul82bk/kKmFnJfRxkIdttDgTca9SR+JLfopYZHEq3qWbUnE0UYf3w+cSWuL61/P6lictOjxGWoeX2TndsPsfr8VM1p8AjOWzTWGbaGNq53j+UkbdS7UwnluTt8v0c5c+AsXx+bk3ynRXi3ns8I5mhYzpqtyTo5qsa1DEnW2I9zap85z0sa5vLCNY/gNJZwLkBbKDqWueLWr6ZxNjz+GOaThHt0B+Dm26P/xMucqK3tg4jyt7pTZJ1Gm1sh/Te0KvuHYVFFsSAtKd2mx/R0LngcTsnMqTWVTzoX6YpEKc9pUZYG5MZ0NzJRT5/8lyny4Yv+mo1yExVT6RtP1TDnNOLip/aKF6KE0ueqxtXi9PIdPVdLzWBTilRvq3a2gzDWYwfk0DWVmxwzRT8DE6X/GnkXfyerbCTNgv4Rqi41nUtI5gPN7/QblDG2+Q5MhJiZiPIp6jecn5N0b+F5kh9J4SkRYcs7BrMD0Nd97o0l7Fm5MJzp1eM/y/Wvs51injVrHRNhYuoxDG8XG8p+iDacdiX68HxsrtrOA3en0NiYwvgR7P5xGefH9P2iKypbd47tQ3ijw1LrP+3BLwJzYXE3RuZyCGXvMQzbmycrmCVn+hON0s6Hd7RNtPUAHImZk/a3iDOA6uiD6wObRbu7i7/JRbHw7dB1nyq5tmfmYyZhR66xNxzAKE7vuiY0zrsXGzxdg4oRjsKiA52Bju1YjIafSDcBszjleEDP8+B1TP4MmY2s7ZcYrU4Cda7z2CyTaqiVyLb7Q8StOfs9Rb2N6i5zvn0FO2HfH52jdsLM5PYwZ138PM3j/IzZmPheLoHgoNl7eGRv/9joCUjfTC+TMIeBH1E2l17Exxj7AGpiDijWxCAJFz5mLqMkYFxNJ/Yxq89p3AYs79e1B8Vz+RbzrqHUpbEz4RIX2387qSDqRrun8jMKev2X7NgETO5cWhua0uSDlIxqOx5xOntviPX0TsEqvn2MdunbeN+BEYOE26vVsTxQ4udfHnej3uhV/52XS7ykxB4LNFZf9Jm9Mv6EDIpHsN9bN8WtRegl7Dm4HrEAfjVEwgc/qWd/2wp5v52KRagZRBJqXrgQ2bTjmGSh2ynN3yeN/HBM7Ls67TgpTUeXupY1vuKz+O5y6J1JStAd8M9HHn5Yon3Ja+RXMiUKVa3Qztg65OXYf/rNEmfGYKHOj7Lysm13rvLx3YTaZW2T5N8K+Ob+JjYmvwubsyjql6mQaGgPtnR1Ty+ONFu+xFbGxQ1E/38DGtAt0sW/TEkElqp6zlbE5kOdLXNOHaCHqJfZ9U3Xu9zVs7XjpXp+jFo53JtLf5f/oxn2KzWvltf80DWM30o6/yqQ/00OHM/jjy8ew77i1sHW/vG/Ne4CvAzN3uc8z4DuMaMt5epePYxQ2P34579qETMzOt+cU5n7qcbJ7WMX79IaC+hbCf8f/ssPncWZ8O4cvlqzjwjZ/x0PX7rP4Tl0PLOjDNPjju+u6eF96Ts+eostjBGwuv8oawq9J2CNj69zfzJ4T7V5vxcZqbTlojhSpG6nnHYgUqUzCn+j5W4myBztl/53tXzfxMM+NwIINgr0yoysc10lOHbVEuMraGJXo64YFZb3Jq5sa8nhCobcL6l4x0a9Cz2k131+zJPqyRUM+L7rjvZgnprKDhKsL+lO0GPqJFo9zb6e+h7t5viMlr5Enjnm+i3242+lDruFIQV2pgfVEyok+NkjUMXui3OhEuY4vfA/nhHlN887tR4DjE/v/RGvRo2ag2DturjHySE+Yl3nvnP0+sa8WY7QS/VuW6otZjWkS5lHf8wymmKFfxwRMHT4/ngHNGW3UWYfAJFdEltOW5x3+ZZomaLDFiry8j7Xy3Kjh3M+KeTt+AJv0upS0mHNy2fPS1I733h36Vvl6C9fnLmoWh7RxHlORZMukX1IwXsBESEX13NSN463pnKXGPh+oof4F8Cfqj3HKeEY/93XhfHjfzONpMqLCxF3eu6It409sLLI/cDEmmPsj5sgq10s2ZjjheUEvdHTVpXvt4hZ+ky9h35VetNlFE/fXxRX7l/I62phSEUZfJTNcxCLWefkeJSfSHBatvEwfnqWFBf4K52LmrI+tPEfHYe+zDXEENxRHy1LMe/nq2PxcVecjVdINwIcouZCLRXv9Lv77tPle2b6gviWz83UjZrhxPSZqOxgz6FsR+x6aHTNY+GlBmxNoiIaHCQFS+ccCy/X6+ZBzXqbBdyY1lMbjRCMC/uaUaTtKbVb/KHxj3W07cD7WxZ4v3rl4job5xC5cnxUw44F+iA5WR7qaRFR0TFD3m5J17dXr308/Jszwb0fKiaFeJBHtF3M4sQMWUamUWAAbJ12daHPXDhzzBRXuwXFUiIRSQ9+mx94zL3fxd/YoZoSUcrTVmC4Glq/peOfGDL1vq/mYbsLmmMYAW2ORFm+vsf7P13zdR+GPqeqIfpSK4J37jsKiBZU9H78jx2FMiX7Nj4mDzsWiTn8LG1/Ngo03RmXX8CNYNPWTsnznZf//HDYmXQIbty2IjcsqG1ViovfvUD1i6EhNT2PjjZ0wx8uLYnOyX8QMoy/A5s6KvlseAxZquA57USwYGIeNy8/AImRuQOJ7ARNZFh3PQ7Q57s76cUfFc7hPqu9ZvetSbGj+R6oJL710MYl5c0wAu2p2rReteH4Ef06nOd2FGaouVKWNgrZ3JR2d7koyJ9FZ/t0pF+Xeq2s7OuDkohcJWDtxrL9ts+7ZMbF4Xt2TUvdjD8/HrHQu6vulFLxPMedcrdY/lopr4pgD6O2y3+SR2PzcR7Lz8DFsDqxKH+7GBFmt/r6qpsexdalLsnYvwMYdv8O+I0/F5pF2xwTiG5I5P27x/pgWWASLivh5zGnAZR28Z4pSkeOJ2zAnFlUcCwylh4Hzs/O3DfB+55ysQvvRnE8lxw4Ee16nInZv1cZvfaNEvb+q+Mzw3uOv40T1zMougz8uuhsbK6ec7UaaOj2BjXf2osfR+hqeGSeW7Pv/MBvFlhwqFvRjGuyZ/nvenRuaggmv/oKtTYdz9qnP26jsvFVxMv0CDYFJWmhzVmx9ouq9PwX7ju6KzU9N5zdlEzGeLkXXJR3B8QsN+U5O5JsTc+ZzUcF1Oqwbx5RzjAsm+vSjnPyzYd+F61Pxu7ADff9Oou979Po+zunvNLzrqE+Abak2jzCUDq2pP0tUbDcZBCmr07MJe4UOiohJj91WKFnHD1u4FlVToQ0Z9t3llc91MFbzuXwf/jx1TxzxZ7+Vlyqc53tocK6BvbM/iDmvrRo5t0x6nC5rXCJFqpp63oFIkcok/EH1BSXKetFO7sv2b5J4kOcaI2MLX16ZZSoc1ylOHVNFQ2nz/Hl93bignDeo/ldDHk94Mrmg7lUS/WopQmab58gTp+zTkOdYJ8+VmGHgnSUHCEmxH/DjgvKHt3iMnoFtXxgoR1LwI/K+1cU+3O/0Ye8W6kp5NL2rZB2LJOpYKVFuhUS5RXt9rQc94Uf9+FeJZ2BlIyfM0KSo3v8Sng3zzp3nZOMl0t68TuhC32alWgSPVtIkahBU9fD6eWOPy9uoMzWpXSY9ScnFctJRyU5syusZh5ZeeO3SNfGErArcQgVDINLRXA/I8ozCxGhlr89kYO1en6eSx1g2/Sp1z1G8uKLAS70+FxXOmSd4fbXK/VXQhuft+b/NbZAeU7X0XVKxrylR+8YN+WbBN6q/qkfXMrWY2dPFdeADBb+ZK3l3svw5bCH50+SIKHPq9gQYkyk5DscMx5uj0Temf2JGVwtm+VML5Ldkffc8dyrw8URftidtVDqUzung9SoSITanVzDR53bNv2mn/lkoH9WvW+kNzJjvizQZCWOLqFtgxiplIy48DqzaoevzsxLt/zi7jqn+PkUXPcO3cJwrkBYHp35Hv3DK/Lmmvs2X6FdlBx4l21yOqb2Jvw2chWMk2YVrtAxmRFmniPverM4jMQP/f9LZqA+/p6TRALAaxdGhJgAr9vr30w8JE9Tvg42dyz7zb6CNCFEF/VkV3wv0Q9QosMAM2sveg2MpiIDa4Wt0CGnj+dexsdkT2HzKzZjQ83ws6mndkYjeJOEcpM3jFUyA8mvSDj/6IR3QoWt+n9PewTXUnXLQmmtUiT1Xq5yXh8mJlt5U57SYKHgD4HTSY3Kl9QizUzDh4VAE21sx5xY3Y7+NyzGDoP2xdbLz6azTk+GQ3sLeA98H1qHkvDs2j1Vk9P4QJvQ8vyDfJBqcrVT8DZRZT3iB1py9LQD8ocK5vAtzFFNaVI0ZbXZ63rzxPJ+EOer5FPbtciImcGp+Pt+HfV8XvhewaLmpdt/GvpGW7MQztuFdsxYmOD8FG6t/h4TTA8yY+4PYnMO5VHsuPYk5UN2gzDnq14TNAXnH2Pb3VXY9vPpvoM+EtrQn0CyTrsJ3Wp+yY1LM6UoZB6yPYesvl2LfBFO1hwnCDyM9H1c2vYytba3Y1MYKwNGUi7bW7fRydv9diM1HXY85D30Vc3r9etbvB7Pz+SL9MZZ4EotI/lmy+bPsWi6GiTi2xu6j1TExyJBAYS7Kravcg73D3Ig8zr27PK054XgN2Kmg7hXwn80t29nhR5CaQsV3FeloyT9PlDszUe5TDfmO6YN7r9/SZOw3fBzwZUw00nW7wwr3yD6Ud/R2CzUK47DnQRlni4rZex2KPUvWxJz5zN6hczI99pxaGbMnXYI+iQaY9eloqov/X6AmgSYmDq/qpGEo/Q2z7e3b8SkWAMITAk0h4byuA32ZA9/hwnhs7mR6bCyQl+eihrqmwZz7pJ5dq/bgfH850adSwroe3itzJa7PPfTYZjC75tth6xxDQVUmYs60nmvxN6y0ITTP6eMNFdotFN0Cn0yU/0wHz7Xn3P+lsvcBNr/R6jUpk16mhFM70vO4h3bhvt0l0f76Pfw9LYg5iyv73TUFWzP8K9XEpY3pLWxO+Rb8CLVDqbYgcJEidSL1vAORIpVJwDnOQ/a0EmV3c8o+ke3f2tn/eqLOlPfdDSoc11lOHWfUfP48w53NCsp50TL+2ZBn48S5SBlyr54oN3sP7rFmo66hdGxDHm9B5LRs/7zZAGNKllKT2ynPcBcVDC7+1OIxekaLV3T7fEdyr9H6ievelckv/EXnylEXSEeiKRUpBDMi8Sb53YgcpMUEfRFVbZATtoiYek6l0mNU9DCPRQEoU/fACgE7eK1udc7V+dn+K5z9z9OGR0pM/LkZZog5m5Onitjh5Rbvt2/3+hq0ef0Odo7rjjbqLCNiSCV38TKnrdlIewreKMs3M/5C2O69vg5NxzQ7aaOLL1Soa/dEPQs25Et5DW5OR/T6HOUc59Vt3nMKfCtRfxnhltLHi8ENxyL4Y7FLamzns4nz9NGmvCmPhR0z4mtofwZ8r37HNORLGX/WGu2nQt9TXjj37/G99ttE3z6T5RlFa5F4Nmr3GYUvJlPMuFua8s9L+QhYzenq5vpy+iOY45pfF9R1Wt3PGmAN0sYiN2DeWW8FzsaipMzaQjudXgRrN92fXfuLKO+cq/Eau3MwNVyjUfgO4Mqmt4B1e/lcKHmsn2TqBbE3KFjkxR/T1hKJOvudeOe2Y9c+a3thTLD8ISoaTHawT/NSLDLz0lhswXU3/CjZc2FjCS/CeCtpMhZFrrKhEha58uWC58f82LP8/dhc9u6YYdWwj4aAGaV8m+JIMs3peDo8f0ba+HX3mtqYDt8ZXmMaiqzQ0WdGhX7PjRmGrImNKeeghGEL9r36JWzurd3f5QPAKl063tmz+7QT3rzbSZOAL3fwuC9z2v1lDXVv59Q9ET+q/Cz4EblT6bdYVOJ9gaOy39JNmAOiXl/DSOXSeMx4cX/MQc7ytDcvPAp/Xb9K+mybv4P9Sh57qTUFTDi4H+WNOicCB9GigSrmdK1bItGq6Y84DqQwh8pFIuEX6aGRYcXrsApwYwvn6B7M8Dp3baRfEzbu8Oahr66pjRlICyy+3+vz0NDXj5AWCR+fPRs+gn3PHIc5mByKvPlt/Pd9Y/onTY6GKI5cehu2rvIBqr+/nwe+OXR/YpGL763h2XAbFu076fQHE1VshTmGfCZR39sF+0dieglzzvdlbN2oLbFPdu2PwpyU3oeJxv4CHA58mBbmhhvqXpFi5yCN6SESAv6mun/v1DGBFuZmMEGt9+yrvC6Djau98cJkcr6zgCXx54Dva7wWmP1MHZHEBz39F3NysQ09sDGs4R2zGeXFC6/QghP2nDZ3oR5x+1PYeP/L2HNkKVqIEoc5XtkfE+V79/8z2Fjs99jYei3aeDZV6NvsmMOsf7d4jsZR8plWoU+zYYLdVp193orN73f8/LVwbEck+l3aNqXG/qTWKN8iLbLeMee6pcZZ/6bLDlIw2+a8vtzd63uhZP9PSpzPjgkSS/RrS8yZSN3vuzNq7qfnrDwvrVyivhnwBdNXd/B8e7aOF1eoY+kOXK/GdFGFvni2nY/QYYE/vibiKfogUAu2NvIl3o16Xneags1zfYyGNTFsnHJJQdmP9uq8RIpUlHregUiRyiT8idNjS5TdwSn7crZ/J2f/cwX1eovVO1Q4rnOdOn5R8/nzJoU3Lyh3qFPu2oY8H0q8AN2PSuyj3StX2ZixhnPkGXpe0pDH86ByWFNdc2KTfvMkjnGTRF+KjFYebfEYT3Xq+323z3ck9xqtkrjuc3epD+Oc9gu9AuXUlRJpJr0/NtXjGZPsniizh1Pm2V5f5+GQqDZhkJfuA5Yu2dZclPfSPNBiwA5cp7kT5+6LWZ6UJ6itW2x3T95roPsmJhiftSHPchR7W1IsKu1SmDHvVyveZ3+nDye4K57L3Zxj+28bdVbxcJ+XKk1wAD9M1HV9lmedRJ7len0dco7J+75QzGij1CQ+vkBrqsl3yi32nksfTNDl9H27gn5PwRYRi7yTb5tTt5QoN5TW6vW5KDhPs+N/Hyo1CgqxxShPJHB+Q75p8QXR/+jiufGiijyc3QOCvxj3Mo4X/i71/Q6nX9f0sE/z4c8R3NzucyS7Hp5w+1kKxCbYXIE3fnkZJ8Ii6YitXppIicWtpnaOLajzORo8urd5LmclvZjYtnigqb1vt3AOW0lPZb/rViNEVUlH04XFdcwI/lct9nEK8IlePRNaONY1sDHMVcBPKCGww0Qjecc+gRoWNoFtnfrfog/HRl2+XjNhRpnbY0Ld07BvrJuAi4EfYd+EawNzVaxbMCO8dgyJp2TPg9XaPM4io+gXscgvefsuwBHDDkLKrsOawBewKCX7YxFipsMWzv9c8Zr8j5reYyX6njKAfYQ2xEkNbaQcozyAGYGsNMj3gHPcM2FG/959X5R+Qw8ELZiY+1eJ3/Mt2Jzv4208d8qmxylwsFrD8XoGbVfWUPdBTt0PFZQrisw8ktJb2Bza2diz9GYs4kOrv6t+SpOxdcjjyN4ZHbi/p8ccvLTax4Nq6seXKRZOvUYiGi72vjqFasb0NwNr19D/5ek/8fxQ+h1TO29ameKIVK/VcW66mTCHG/vRWmTFVzHB7DK9Po6Sx5oyhv9Yje3snGhnMvChPjgXy+EbOivmWKfU9yy2Xl70W34O2Cu734S0k7L/Ags31P9pyq23NadXMMdC7c7PPIUZ07bi8GcU9j2zK7a2uAf2jb86mfNszNHPbtj7uGzEveGQJmPr6X/AvvXWYMDWPDHBcJlj/SsVnO6RtkFpxaYl5fS8pW8C4GuJOm+iafxF+je/S079gjnNHA5j0yrpNWxe8iP0WcTpFu+ThbE51rLH/3McJx0l2voMnZ2Pn4w5atwbx/kW9sxfDougem0b/XkWi/BdS3TOpt/VBphDs6qO1hrTOcDoDt4302S/gfNo7b34EDZntFivfwPZ8cyPRerO6+v/gHl60KdFac2B1v/IEUtj848pJ7eX0qW1bMym2Rs3Ht7r+6HkMSyZeH6MpcvRh7Ho7Se38cxIpaeo2V4Y2LBk2xMob/d0fKKe2qJgN7Q3Lf731Tcq1lXGEeq22FpY6jjz0ucq9GP/RD0dc7BF2ln7Cd38LZXo66zYXGZd45mJwOnAsok2p8F3TqPYOlZfRDyPFKk59bwDkSKVSZjXvLwH7PdLlN0i8YAX/EmpsQX1el47v1ThuP7k1HF8zefPW7TasqDcYU65qxvypCIeuouKmBcpr1ylyHI1naNvOX15tCHPE04eN1IUNjGRV2a/RBnvw7cxVTbQwDxd5NXVdW9LkdxrtFjimi/epT486bS/awt1CfnP75epMCEG3O70KRVN7BCnzG29vs7DIWGGI0XPqaL0AubddFbsY3oXciKRYV7sytZ5Qa/PTZvndTbMq9gONHkLbrG+lPhziSzPLPgf++e10OaBiTZvx0SrAvwtkW8C9hG+LlMbmZT1Pv8Cw8DAE38cO5kWF4LxHV6UTaMrtjc7/hhKsYWgPZ19r9GHRv3ZPeyN45USngmxRTBvnHhcTv73F5zHf9DiomCXzlfqN39Elm8z0sZ2r9Ek5MKcCJS9d0s7p+jBOZob+E+i71NwRHFttPkbp623yRbbME/uXp9KT2jX0NfdEv1YjfS45Gc9vrbfS5znnghX8cfJSk3GftgCv9fGpxPlZsAf+yvwtUTZ6bJnYdlngpL4nki0MyPlxFDfow3hG+WMAefowP2xJSaYqXIey6RXgQuxSH/TZW2tS3kv6VXTG6l7rUO/rVZFot/sZj97kUg7iavju8d75rTkYC1S5fM/EyY+rSIUfRNzZFeboTwWua7VZ8YLwEd6fS5bOOZVaT2SQV66h8RieIeO4bREf9oab2Lv0lsS9a/T62vYhfM7L2ag5EXDaU6vYN/nHfVKXqLfc2Gi519hBo8/Bz5ONg+CORLrVHTKB7G5rY6vUeHPoT1cQ92ekftfCsrt1aHzOkjpbex3s1DiPM2AGXN/HHMgk/qeL5uewYxCb2RqQ/9nMSHBXzGHeDdiIrzHsN/CE9gY/gLgGCz6yiGYcdku2Pzimtj60+x0aa4Nm/e/qYVzcWjN/VgZ34lR43Xfl4boU8Bo7Jus7DN06DruWuc5xkRXZY2TJ2HOQA4HNsK+X2fBHC+OreE+bU6fyPo4CjiA4khxb9Nh8X2H7+lFKBcNMi9NxoQMfTl/mx3fCon7/d6a7+tRpOeLn6dL6+I5fZse+AoWYdjr3xNUjFKIOeVJCU6H0oP4DueG0lSiduy7+6EO/M6L0r+o4bu+wnmcB3vGtSPc6bf0CjYfegHwM2wufHV6YDPVoWv2ycS9/yTmzKHSeidmqO05tvx7xbrG4Atl7qbFbyNsrmRs4rof1pB3Jfzn74MkxBnYeOVzmJD4FsxIvey30oPAWZhj8DNIP/fqvucfwcaJf876cBy2ZnUT5sjkKWxM/BxwHeZcZ+vh8rtouoajsLnNstftdiq+I7HfYZUxbbtpMvbtcihmi/lLTAj7cgfaugH4FCWc3mDzRIthItCPYk4N98QcgfyM4mAeqTRk39JVZ8XAgth70bM5KEo3YfO6U9lpdfEYUtEgD+1hv7z13VQ6s+B3mCp7M11w1kbamd7qvTrfLRxHyin+EV3qgwAfxI/82G56mZqF8Fm/Z8ieWUXt31ihzlW6eT2wOS6vvfUq1vWJgvPwMA3jQWyuq4xznkeoMG7BvnO8ek/p4H2ccrziBsDqZcLe44+08dt6A5ufKXSAnLU3M+m53717fU4iRcpLPe9ApEhlEnCn83D9aomyH0w8nGfAPvTy9k0Vuaep3n855X5Y4bg876lH1nz+PMHhVgXlvIhPf2vI84HE+XUXOQquSzKiSIfuse0S/ZkL8zzieV5yI2lhi7V5ZU5y8s9ScqDygRaO8Wqnrq58GEUqdY1SIodVu9QHb+KxJeNaYCHe69X9TXK8HBbU4UU7cD3V4HtnuqSV44g01fmdieLF/jLpVaZeHDmRho9kiqM0NaZxvT43LZ5PwSb+G73GTca8T7VsMIDvGGAs753AON3J9yYNRjEl2luT4sWFfybaUwrEDphHu1QkraG0Ta+va033xiqJY5y/xTqfauM3+2CLbaYmlX4GHOXsu7nX1yBxTIviG2fdQ4HBDGbM7Z2T3DE6ttB7OLYg2viseE+E3n5MmGHyXTnH+ksaFv+BD5OekL6fhm8FzGt22fv3kF6fB+fcCMWRnS7vQLsbJ9r7apbnSmf/G1Q0gqrh/vE8AZ6Eic7y9k2hxx5wC37rXReiYIsWLzj9GUtNXuiB9+FH1ribHKMWzBAitaA3lgIPjJinYc/hTXP6Oa0b+KxDucWfQ1usf1rMsDtVd8eiu2XXYiv8ea/GdBoWVenf2CLZeGyMfzcWFfC7wIdwDDQwI6x2IgvlpSuA5bv9+2o4d4dX6Ovp9KEzjA6cl7kT56Dy/FZO/T926r6u18c+0hL2/F8le05+AjMCOw2bk/wb8H9YdJvZO9C2ABe18eyYBOzZ63NY4Xh3ppwhR5k0BYuM1vVvCmBx/HfqWNpYJwDWSxyza7A1HBMWge7SxPl4GZt/63pUhjaOaVGqGWDdhc0/fAwzuP8A9v25HRZleVvMgVXXxLFZu3l9nUib43L8KDQnFpSbBRO41TUuG6Q0ARMlj2nxnM+HveNOxiKx3oiNc0/H5r1+iTkbewqbV38RE3WeiRm7T9dQ1yjs22Y+BtwIHhsHFkWUHEqTSDjXbbMfs1Huu2NCdp0Op/y35VC6gBbna0v0fxPSEWfuw6KIjU7UIdgcbZnoGGXTWMyI8ZISeacAn+z1PVnDtRDMwWfKCUUq/YOcMRcmSlwOWJbe2EkI/jyg0oFxMrZ+nHIa9SzdF1lsh+8kvjG1NKcHrEj7Ti5+mah/VtLOxupOP6NH0VKwd+SB2Dt3LP0dWfQtzKnDrdjc52HY99xa2JpnT52zdOl6vQ9zAHM65gDmBOxZ2s73nreuOIWGCLsl6kk5e9urzePeoeDe+CzFDlZ3a7HtJTEHEVdh87VTsHWd2zAx5io5ZWbAxqV5/ZmC2b5tkfV5QWzO50amFgBPwBwLXJpd6wOyelcgJ7JepPec/wMpFxX2ZUraQmARz1qJMj1o6QksKuacTce/BOYI6be0ZyPhpX9hAtWOC/tK3D+fpfy3V166Dovk3c3139S84PO9PK+YM4LUXFpe2jhRn2BrV6nyF9PhcQH+mvq4Trdd83EsjT/+m0yHhG3YfM2mmC1fO6LyoeSJzm6kA5E3G47jryX69n8V6/TmaZ+i5qjf+E73JlBxfEnxWOwrOWW+VOL8TeXUp0RfvCAFr9Ch+UHMRjevzfGUcL7Qq4TNN95e8ff2PCb+rxyVF3P45NkrPU5EEY3Uh6nnHYgUqUzCJszyHq6Fk9GkDevnwo8cmTRIB851yp1d4biuduo4vObz50UGS04Y4BtYXdmQZ+3E+XUjomAGgl65WgeFJc/Rgon+fARbpPD2r5yo9xdOmSuc/IuXHLC4UUsTffE+Kg7q9vmO5F6j6RPXfIMu9cEzGG954RbzpLITNpm0VAvlvcUsN7ohNnGSV+YXvb7OwyWR/kBuTK0syv2RbPKJ6pGg5ur1ual4HqfBFzQrtrhZ+b2ILSp6kfiOb8qbiry2e4U2PeOzKqlQQA4sQNoIsNCByKAkbJHbO85VW6hvevxJizLpd20cy/VOnc/iT0Ce0etrUHBMKWOL7QvKft8p9zYFhtmYcGgtzLtp17xz13C+ZgJ2x8bHJwMbOvl2LLgP92jI+/EK9+/pvT4HzvFuXdDvt4HVOtDuKOBRp827Ma/VXp9+04PzdHULz6yL+uD6jsImm/P6d1QP+nNw4nwdXHNb3rew0iTYxhZfji24ntuWbHcZiiMmHEebojzgM5Tzur1dxXqXozjKzjl0YaE2uy67O/fwnynpWbNkOx/DIrF4wuKiNB44mh6LwhuO6RMFx/I85iBmYBbca7jG3tzkzjXU70XFPqfXxx6puwn7Dr6vxefIUNqn18dR4jj3oL3vuqH0FiZMWqHHx3Nqoo9fb6PelOOJ2qLXDlLCImXsjhnznwh8HRMLdV2IUtPxzIiJuPIEjeMwsdaXgUV73Ven/6sk7tG2+oy/ploovsMM2fOeMY8X/F6rpBcojvz1JDbXeGqWbsKf62wnPY59Jw3UnPIgJWAO/PWaoXQ3HRaCYUbTnkPFdtKdJAyBa+z/4pioptFx58PA16jwHMfmKT6deE50Ik2iYT5vOCTsG2cdLOpZVWeqF/FuVOylMXFS4/fSa5jzDtdxA7ZusCc23rkbE5xfi0UPrvytjomIvP6OpUPGjhRHa3mVLkR9x0Tkvyt5/dpy9I6JgFt1xvAYJUQbWISqqiL35jQBW5/NmxO6Avhgr3+HTcc8OruffoCNdY/BDPdPwtYifoWt51yIRWh9kvqjJT6PRbI7ExtbbI0Jk2pxyBdpqmu+SuJalJrnxhxTeuPLsbT5nUQ5MVBqfPsIPTLMx8YdO2GCs4+QcO6cd9y9vj8GOWF2EGWEO5o921wBHbAlxeOUP2EOkz6CjSPuqPnZ2O30CjbfcTj5jovrSBOxMdi6vb5fcq75KGytpaqNVWN6HXMK+ilaENFU7K83r6/AAX1wPmfCvsHKnLeLKHj+AUtRLAKvFHCj4vHMgj8Xc1yvz3cLx5Nah34T2JeE7XrFthbCHOKOreEZMglzsLtKVveM2DP4AOA72Biyo45lsTnhon7uXrHOlGjSDb7UYv8vdNqpFEm+ob75yH9nnJ93LbAx3hmJ4/1xi/1IORfZqQP3gWBz6Hnt/b6T92BN/Z8NGwul1srewsY6O9OmoxJsnsZr54u9Ph+RIjWnIcP7IOhrRGQ8MHvOrk+o6gUFZZfAFkjyGIN5CjokZ981qrpxot4jscFSM/9Q1Q+l+tRQxw3Aujm7DlHVI8rUUbKdVzCvbM1sr6oXJcr9FPhGzq7LVXXLLM8amJfMPGZX1VedujfCjHzzGKU9eDiJyNPA+3N2fQ+bgLnBKTqXqr7k1Pk1zHtdM+NUdbGc/Osm2mnkJFXdt0S+xrofBxbO2fU5VT2tSl1B5xCRN7GF6mY+pqqXdaH98eQ/bz+uqhd2uv08ROSH2EdwM9er6vpOmVsxb/DNfE9VD6+zfyMVEfk89qGV4tuYKOwyzHNtFXbGnDG8gk1UlWVDVb2uYls9IzGeaOTrqpr3LknVewAmtMjjPedIREZhxlAL5uT9q6puXqK9tTFDrXa4DtiozBhARGbBnHzszbvRl2/AInX9rc1+9A0iMg0mDhuVs3tLVb28Yn2LYYKwPJ7FJr5SHKGqeePmMm3viS3AV+EbqvqzVtrrBiKyNGaAnnd9rlLVzZxygkUZXS5nd/IbZKQgIj/AxuB5/EdVV83yfRUz9ihD6e+0biIiV2FC/TwmYQtB53ao7UOwRdI8xmIG5Hmsp6plvllqQ0R2wRYKq7Cpqv69E/2pgoj8ARM+N3OHqq7WxX7Mik3yz5Wz+zUsUs6LNba3EmYom8dkzJDspizvQZjxlscfVXWHCm3PihnJ7oeJhYa4EfhB1fdnop2NscWAJRLZXgHWUNVHCuqaBjPI/CH534NDjMOcRLxSrbetk427NsUiXbyCLbDd16G2psWMbLfCDBlWKijyd2wR+GJVfasTfWoVERmDzTfuiC1SgY3DTsHmdF7rUdd6gojcSf71bHsOVESuATbM2fUzVc2b1wyGMSIyLxb9aJU2qtlDVc+op0f1IiK7YVFXpMUqJmCGctdjUXbH19S1lsmelw9hjnCaeR0Tcz5Vsc6FsHfmNDm731nbCIYH2bzWYtga2ATgv/1wbxchIu/DxlZ5bKKq3vpZUb0zYgZ/ec+JrVT1zyXq2InM2Djb9CSwtareISLrY9Ewl6/YtdcxwefZmDOfSSKyKCYenKEhvQQ8qKr/y+nXdFhkTcHmAmfO+jgfFiVpHmyO5lXMGHAGzNBufmwcMm+27znM8Ouv2DzMpIrHErSAiGyCOUn5IHbdX8Xmc08DLlHVyV3ow3TYe3SXGqqbiM2/f1dV366hvlKIyGyYcGC8qj7bRj0zYdHcdgNW5t135iPYvOVEbG7ocszp4CXkv1eLeBrYtR/mZzqFiIzGvl8/hTn0y5srbuZv2HrKN4DpnDxPA5sNfX+LyPTARtg1+xT+9ZiMCeK+oaoTCvo+BjgIc6jgjS8/1am5yawPP8eMiT1ewaKv/LtD7c+IzS18oET2q4HN231vZO+/84E1KxSbiK2f/atkG9Ng38nLYOv+82N2UWXWW88B9lfVF7L7blXsPfs6cJuqPlGh331Ltk4zNybaXQYTxM2GGRi/lKVnsXtwOmysOTs2xngNOx+vYe+zsd2cqwuMxFzTPaq6Yony38NExXnspapV1zTz2lgImyOfo4XihfaQwfAke4Z/C7s/i8YVY7HgKtc0lJ8D+BzFaw2HYgFM3mObISIrYJFH1wLWwGxIWhkHDjeuxZwAXFznWlqnyL7dD8bGqe3wKCYcfg1bt34EuFRVvfW/sv1bFYtqnDcGfRybD3yznTbqIBsv7Ik5nvDGUeOA1VX15RL1bYiJlfLsMsHmX5bqxLFncz2/c3YPlJ0dvLMOcA82nvN4HbNR+rGq/rdC3YKtiW6FRc/+EOW+8xo5BxMOj8LG0zNiEbb/pKrPVayrVkRkHkxPkacnAJtXXNizh3fqHI05wpkxZ/e5qvqpqv102hmFzevl2TscpqqHtljv9JgjxdWwb+orVPXWgn58D1sHHnpHPofZJf+yxT7MgJ3DvHHjX1T1o63Um2gvZcuxi6qeU2d7naJh3LIS9t38GvauugO4UVXfqKmdhbN68+ZwHgOWjDnmoK/opho1UqRWEjZI8lT+m5UoP69TVoEVMIPivH2XFtS7j1PusQrHdptTR60RHbHJy7x2Pl5Q7iin3GUNeVZNnF/XixhmXJhXZkoP77WLnD5dgu/B8g0SHoDwIwJNIcfbJuaZyzufjemaFo7Pi9aQjHAVqev34XPOdardE0zF+2TrHp4T73n7SKLMf50yhZGnI5W+LnOR9jj4ApnHQmzh8PaSz7ehdDdmaFSljAJ79/rcVDiHm5U8ptdwvEVjRq/fxSa1TsC8fy+H7/ntcXK81eK/8ycD85c4ljNauFaNaQItRC3BJoznpCDi4iAnfG/Su7dQ14aJa/CnEtfpS20cx2xUjwq2Va/Pf4nj+n2i/4s7ZT6cKLNvr4+pHxL2DXhh4jwtluU7rsL99HSvjyvnOBfG/9Z9nM5Hz0i176UbenSuZsT/rs1Ld9Mnnqoxg0uvnx31vtvUj1T00B91qM1U9IVHsHf4Zwqu5bPAAi22Py02VtqQDkVcxjwIH1HwW7qNRLQNbAHu0hL39UT6LEJDF+7bRTDD129kz/zjMcOWz2KL5D3vY4ljmAYz4J6zX55LPToPXtSoU2uo+2Gn7sIoaZGGZ8IcVJ1A9WhOQ2kyfThfmr0z24kcei99GjkTE5t5/f4zMG3F+o5I1Ldlr483UqShhM2f5t2nLc9hY/OC3v2/dIV6ZsPWtz5KU7QyzBBm92wMOxZbUxgLXIMZzB6OiVA2x9YQF636O44UqVMJm3M6sY336ZOYsf7CvT6WGs/JdNg3izvHTjo6i5f+yAiLzps9736ceL5XTW9gtiy/w0RqVcr+DZjJ6eccmGC/aGz5Lzr8HZvdf1cX9ONNzFloYV+wNaMxmOAvGTEoy3tmyfN5Seo30sJxz4DNb5SJjj0J2LGGNucGjsbml/LauZcBWJOJFGkoYfOF3u9m2YKyM+DbkzxOjZE7gY+38Py/ttPP30j9n7B1jadK3jM3YVEt70g85xvTDyv0YxRmG7QUJjb8WTZGKPMOK5PuwUQ2q2POf+bC3uObA58HfoQ5G5pQU3tV0tPY2G4g1iKc67ciFvW+zH1RJf0JmLfFPgk2VvXq3r3X5y2nzwsDPwXub+rrOGC5inUtj4mJvOP/coeO4SKnvWcZ0IjnlH/Hvo6tMbrzYtl9uQ5wJP6aU5n0FLBxr89NiXO3Z+IYDmmxzrOd+t6kQjTygjZWSPR70x6cx6Uxpwxb02aEyqy+nzvHNpmabR2woC95bU2q63oNt+Rcnz9hzsJ73r9IkRpTVa8GQdALZsX3WFjGC1vKI/+s+N5dXi+o9zFn+0KZB9IyeJ6a6o56MMXZXuThyXtGNHpx9epOlU+13XEPsQk8z5NrkR95E+BJVdVEnQ852wXzQthMUeSuIVbMvNWUIrsnveh9pb29BF1hKs/YGZ7XnrrJ89YPNvjvFc8429+f9zvI7vd5nTKVIg4EPmpe8U5JZDlQM0/vqvowsGvFJlbAoj7lMRkztM+jqvf6npB5MzuzZPZZsIhSjeXfJyJnYJP8h2GTN/tiXsjuxcQKeZyu+d7YPc9Po8iPetbYl7mAnVJ5SvAlVb2naiE1XtLhHYHJ82Q3fwt1LeJsfxl/zNJIy8/Q7HlQ1dN45XuiB6Qi3u3ZvCGLNneJk18xUeSIR1WnYN7rPbbJ/l20QrXvF5GZW+9VR9gF/1t3R+2QZ/wh1Ly9/6VisbIRW2tFzVNqlQii3yz4TusmqcjW63ejA1mEES9i+Wt07rp+A3/eZnHgRWyxyOM14KOq+nQrjavqJFX9j6peq6reN0VbqOoEVf0O7wpd81gNW3icChFZAotsulVBU0MRha9vsasDiao+rqp/UNUjVfUAVd1fVQ9R1bNUtczYpeeo6mRVfTobs/bLc6kXjHW2j2mn0mxOYCFn95Pt1B0MLqr6mqruB7wf2AHYH9gDWA8zMpue9LtvFPAbEVm9030ti4jsjM0hpOaDn8KMLfK4AFhHVR+ou2818X38OdEtgTPLrrlkEdG+6Ox+ELiicu+CoHM86mzPWzsqy5LO9imY4WIpVPV/qnqJqv5ZVV9t2jdRVc9Q1Y+p6mKqOlv270aqupuqfldVT1XVK1X1DlV9TMODetAnZHNO+2HfyBMrFH0Ui9y4mKoeqsMkgh6885t+umCO/TDMKL8Mb2Ai8R10AKIr1Un2vPsW9o2yO/76ZllmwtaGdqL6OvGmwB+bx1Ai8iHgP9g8Rmps+QbwuU5/x6rqRGB7IBWxaAYsKuq5WWSa9yDGJiLyC+w7cCxmvP+SiJwtIos59X4Vc0CVYgIWYW27OtehVPUtVT0Ec+zwB3ybm6eALbSGKK6q+oKqfg1YAvgmJuL+KyYA3x5YSVUva7edIOgiv8Wfj922oOyn8W2zTsyeTbWgqn8kvd7VzARgnxE+jxgAqnot5nAntcY0xNqYTccq+DZfQxyDOSAv248pqvqiqj6kqpeq6tdVdT1gZmA0Juw8AhNUlWHI1ueH2LtnBVU9TFVvU9Vns7YeyL4nT1HVb6vqpsA82Pil05HpJ2PODrcFFlHVbw3KWkQeqnq3qn4WWAz7BnIj4lVkG+D2bI2rKtthY9U87iW9btgTVPUJVT1YVZfFnOtsgR3DUqp6X8W67sXWBL15kv2z6IS1kY2ht3R2n+fYkPU92Tv2FyWyzoytETwgIjeJyCEisrmIbCsi+4jIWZiDiBux30kr9zWY3cXqqnp1i+W7yemYAL+ZPwI/abFOzwZyBgrsDivwIWf7JOz6dRVVfVBVf53NodYRqdI7h6Mw26I62cbZ/k8tERF5hPIT3p1LHBKGbquJaLNB0CtCIBoMArMn9pURiA55EMpjNuoXiI4CFizRL+ieQNQbxBc9AzwRZ+MEdeoDISVAHSSB6HzAus6+ImMzzwAO8g3aPVFbM3NVyAv5oeeHiAFdf/Gqsz0EolMzE/nn5f34i5ohEK2XH2DRn5o5XFXPatygqndjngSr4Bn03YM/cdm3AlERWVtEjhGRq8iiYVUo/i0R+YuIXCMid2Kiwd0qduEtLCpHHrdjhpJ57FxQ7274Y5rzC8q+jkVFOKMg30imGwLRxzEPmEW0a2R/WoW8b2D96muyiZ7bnd17NhrgiMjnMQ+n3u/lYlUNIUOGqj6C/6zfJPu3ikAU2jOyrZVM0OI9x+/GvP12g5TIuZnH6K2I+VjKGW/+XlUv7XRnyqKqj+LPH3RcIJrdaz/DviHzOFFVX+hE25nB7N4tFp+EGZMOxIS6qp6DGTR47C0i3xGRfUXkUhG5U0QewIwmliuo/hVg2zqMAYOgh3jzY56hblnmwh9bDRuj/aA1MmH2H1X1hEzIdEO2bWJmGP3VRPGZgYtF5P2d6p+IzCAie2XvhXsz45SjRGRMU76dMMOo1Fz+dzEHh0tjhn73YeOPq4FPAJ/UzIlXP5I5cjg0kWVn4AIRKTJyBDP0TY17Ug4vg6DbeO/Hdr5dl3K2P6aqb7dRbxAMG9Q4ClgWOIriedGTgZUzRzW1CUYGCTXHTT8tkfUhYM3MQHLECltU9U1VPROLfNXLMdhHgNNFZJSIzCIiR2DRnj3H2I18paqxe6uo6njsXJ1XkPUTmBBh7aENIrISdkxXYWuKjetu02NCkvtE5BONFYnIFqTnRacAp2JG/4d1ymheVceq6k7Y+/t72NzrtZhT112AJVX1qprbfFxVf6qqO6jq5qr6JVW9aFCFAcHIRVWfwhcCuALRbL7cmw94Hfvt14qqHk36m3eIScDOmV1FEKCqz2Pv8yPwbV+r8HPgoDrGaZlw9BVVvT1zerA0sAY2R3UJ8ECW/gKcCBwAbATMrqprqDkWKn2vqzmE+20mFl0Z+DWt29e+hTkwfQyzPboJe/fug4lCt1XVi3UYOTpS1SdV9ShVXRMbdxyMbydblgWAi0rO1wEgIsuRdqT/nX4fk6jqM5mA+e+tfh9m974nbFwaiyBcJ5/ExsZ5/L7mtrrNV6gmKl4bOBxzIngRcBIW8MJzRFrEFMzpymaq+lFVfbbFerpKNi/yHewd80vgBEz4/Ik2nn1X49uUVbVv9NjA2X6rqhbpPQaBm7F3Zx57VgkolUJE5sN+C3l4AQ9GPKr6OPbMWV1Vt1NVL7hNEPScEIgGg0BbAtHso9bz5peKIFrk0SFlsF5W8DGoEUSHq0D0lsS+jzvbk0b8qvoW/sLimJxtVUSfK1bIO2diXwhE+wtPIDpbpxvOPiK8iZte/jZTHnbzDPU8ARSEQLRWsgnpzYAzMOP287AoT99zivyqpqZvxTzH5dF3AlERmTnzOHYTtuC0SUERj49gE4Er4UcITfFLdSJwZeMlL4roOiKScn7hRYd9EjPM/Bz5Y7ELgaVV9fRE3UH3BKJlvJm3+wy9Hl+I3Mx9A2S46y0Wvx/YGkBE1sQm+VMTdkfX3K/hgOex/IPZuGVgBaKY0dOyzr6zumhEdy3lve0e28vFUFUdiy0ip7gX+HwXulMVL+rjB7vQ9iH4Tjc6GT0UAFX9Pa15+91DVa+suz8d5gekvXn/EFtg2wobzy1dos4rgBVV9c/tdy8IeoongFlYRIrmJ1OkFu3D8UaQRFWPw4+wDeYE8uy6Ft0bEZF1MKcgp2DvheWwBfmvYQbsXxORaURkTyyKemot7xBV/WFm1PGEqn5NVZdX1TGquomqXjAgAo2T8J3vgH1bHZeqILtW+zm7/0faAC0IeoEXQbQdBwpeBNGy0VyCYMSgqo+q6texOdMPYe+Z+zBxyOPYO/gDqvrlYWJo2C4/wkR4HldiEcu7IiocBDLD7x2AXgr0d8Eclj4DfJv0/PQQh3Z73SazqdgFi1iTYgzwDxHZW0Q+iwkbvCgyQ8wA/F5EPgggIkthhvDeGPsFYD1V/XwmQOs42fPocFX9uFpE7l1U9RxVfbMb7QfBAHORs33dhMOnTTBxWR5naIciJqnqYdh37fNOloeAD6vqRZ1oPxhcVHVyJsDcCBjXRlUnA/t2ao4om5e6LZuj2kZVl83SR1V1P1U9XlWvrWNcrap3qepemNOLQ0k75FBsvukY7Dc4h6rOqKpzZ3NnK6rqutm79+eePc1wQlUfVtUjVXVtLOrs0dh4sRVWJIvILiLzZ2O0I0Xk0yLyHpsmEZkDi87q2T9eh0VkGykciW+LuUNdjWTzpV92dj9F9UAPfUUmKN4Dc7ZSt829x0TggqzdhdScrtTq1KVbqOoVqrq3qu6fCZ9bfkdk18KzCfiAiJRZF3fJIut69pbXtVN3v5Cd/7Oc3cvhC2SrshX+3EAIRBOo6q9UNbWOFQR9QQhEg0Gg3Qii0JpAtOiD9FUsOmkeZT2Le55Z+j2C6GTn/2XLl627q6jqS/iL5J5oroyx2Thn+5icbalIn81UEYim6n2pQj1B5/EmrroRQTT1TOilZzRPHAX5z1vPgOZVYHzbvQneg6qOU9U9VHUpVd1RVf+SyP4HfMOnKtyCefLL4/3ZxGJfkEUPvAxfRNnMmZi3wroZh02IpfhdYt9H8zaKyPLAqk6ZX6nqJFU9DXvn7YcJe34IrIZFBRv2E+w10C2BaJGh4ET8RctSZJNZZaOIer/xfuQc/O+CL2WT7ieQfs+er6r/qL1ng483kTsX5oU25QQljyXa606tfM3ZnhLs1072u/wKUGRsdB+2eNxrDgE8T3xPANuoqvf930v+6Wxfo3mBtBXEWFNEPi8iB4jIRiIyrYjsBxyWKNqx6KFNfAXfuUceB6vqbzrVmU6RLXwNGV62y/8wsfOWGtGlg+GBF0l5Olob1w7hCUQnAc+1UW8wQlCLHpaKAL0psHudbYrIF7GxgSfimhGLZvYiFg0hNcd+qKoeUWf/eoWax/1dSBv17SMi+yb2b4QZtuVxmvZxFNVgxNKJCKIhEA2CimRG9/9Q1a9mThZmVdVFVXVXVfUik404snf1Vtgcf+M80otYBKKtOiWqGWRU9a+Yo9VxiWyvY+LNqsbZj2Jih5+SHkPNTTlHxOOxyHWpuaSOkd1jn6Y4itH02DzlmfgO2ZuZBvidiCyGCRNGO/newhzh3lSy3iAIestFznYBtp9qo63Xec84BY6vp1tOA6qXYuP1L2AOo87Gohl/GFhOVa/pZPvBYKOq12Hi5qpRbl8DDgT20cFxzlwKVX0+G7csCXwTuBx4BFvTvAw77kVUdfXModqlapHLgwxVvVNVD8LEth/DHF57c/kex4nIKVm5kzGHfOcAd4vIGgBZlNE/4M9ZKDVFtx0UVPUJbFyax/aZGK4O1sG36TpnODwXsm/6wzHHvCfQpl1TgnsxG48FVfUTqnqGqpZxxD+SSDlobDeK6ErAfM6+YSEQzTgLPyDYl2pqY2tn+wOqWjboQxAEfUwIRINBwBOITqS8kDIlEJ3Z2ZcUiGYfJN4Ar12BaN1eJCOCaHlurpi/boHo6Aptr1Ahr/c7mkRxtNygu3gRRLshEPWE0NBDgWjmHdVbVM573noGNI+OpMmkfiS7ljvhv5fLkoogCm1EERWR2UXkQBH5i4hcLiI/E5F2jLK+jxkoluE2YG/MEKBOnsMEM0nHGtlHvndeP+Zs3zlR5TuewVT1RVU9MfMO+V1VvSN+j6XplkC0SLjzYE2Tw2dRbrx3Rw1tdYVsIckzWtkM85r5gUQVj+B7bRzp3IR/v+yYKOc5I+iLCKIish224J/Hn7RLnumHUIvssBP+d+j/MOOwXkY7AEBVJ2Dn7nTe/WZ/DYs4tYaqPtKrvhXgRRCdDlirTAUiMquI7Cgih4nIwSLyIREZlUX5vhKLmPAr4FjgamzOJGXQ8hTwk9JH0Aaq+irmbKKMcPJ4zChmIFHV54BPYee/VR4C1lLVU2O8FAwjUkYl3hi1DJ5A9OlMtB0EZfgeaSP0o0Vk4aJKMocNHxCR/xORO0TkMRG5WUR+LSKfEJFZRORzmKFVag5uiJTjTIDDemW83ymycemWpNdmjhORLZ19h3pVY+PFIOg3vG/XeUVk1hbr9IwtH2qxviAIgndQ1bdUdT9snLIatlY9fxaBqJeOZvuazDHgssA+2PzNK5gD539jzkqWUtUfY2tJ38FfKybb9ztgO2DpTOzwTWA9WncK/TCwP7CEqqYciXacbP5xZ+xc1e1UfWHs3btsIs9eqvrvmtsNgqBDZGvb9zu7d8nZthX2vMzjUlXt+JhZVV9V1VNU9Quq+llV/Yaq/i3msYIyqOr/VPXz2PpzkePhJzAnEkup6rHDea1BVZ9T1Z+q6paqumTm9OVj2XGHA84SqOpEVb1MVb+kqmOwefePAz/Gosn9PVF8NmAvpraDXhy4QUROx+5Hb20c4McjdAx2rrN9AWDtmto4OLHvVzW10Reo6uOquj+25nQA7TsRnQJciwnQVwNWVNVjVLVTAtSBR1UfwGx88ti1TeHzFs72icA1bdTbV2TvrUud3TuIyLzt1J85L9/c2R3RQ4NgmBAC0WAQ8AwhXqnw8dqJCKLgC0QXKFEWfI+GdRvethpB1NvfWF9KKJCqv18FolU/NgclgqjnFfTV4TwJNKB4i35lPLu2S18KRDOqCPJdgWhNfQnaIJvUWws4H1uwuQ4TRqUmFBuZDNwJPI3/e2lJICoiG2R9Ohr4CDa5cBDm2S4lhPTqWwTzjleGF4FPZCLaU/E9xVXhDeAMYDVVvatkGe9jf7PmCGeZl1XvvFyvquNKthmkqUUgml0vVyCqqq/jR64AP/pdJTIPeqlIw0PcUUd7XeQXiX1nJPZdAawfk8j5qEWCvNvZ/Uln+yRsoj6PWgWiIjKziHxRRM4TkWNFxItW1FhmDdIRQnsijFPVP2EeRJvP3d3Ahqp6R9c75aCqL6nqnthcwYzA7Kq6b5//ju7BjP/yWF9ENheRy0RkvIg8l91TQ151RUT2wMRVfwC+iwk7r8W+NR/AjAGqMAnYLRNudgVVfQxzOJGaazkbOHDQv1FV9VrM6Ucr/A1YJ1tAC4LhxHj8+dl2BKKeaC8Mf4LSZO+dPfHnhecALh96NzcjItOJyOexcdO/sDmOVbB7e62s7vOw30DVKA8eP8QcUg07VPV6bD7GcxY3Cjin2ZmXiGwCbOiUuUxVI3pi0I+k5qvHVK1MRKYHFnV2x28gCILaUNW3MyeQ94YwtByZuPbnqrq2qo5W1bmy/393KOpMZpj/I2AxLDLNVdjz+w5s/nkLYB5V3VlV/9QoJlLVuzHh04SKXfsFsIqqnqCqrQpMa0WNnwPrAt2MXnKUqv6mi+0FQVAP5zvb1xORd8Sg2Vg5tf4ysE4Lg5GHql6lqh/C7Ab3xd7npwBHYRHaVgDGqOo3VdWzNQgCF1V9SlUvVNVvq+o2qrop5mSjql3vdMDupG1bLsXWPkcif8a3E9+h3cpFZFvMsUweVwzX+VJVfVNVj8fm1vbEglCUZSJmz/R5zBnSRpkAPYIglMeLIrowsHEb9XoC0X9ldkXDCc/+bDrsnm6HzfCDqoVANAiGCSEQDQYBVyBaoQ5vADAb7QlEn3a2txtBtG5viK1GEPX2D+cIolUFomUEZ+Oc7WNyto2u0PYKmdijDJ648H8V2gu6g3dNRmwE0YwQiA4jVPV+Vf2kqi6nqhuq6sn4ntGauUdVJ2QTL17Ew8oCURFZB4u+lTcxORPwGxGpOgH3dezjvIi7gQ1UdSyAWpTGXbDF/yJeAH6EjZdmBTbBxK3LA7Op6h6q6o1X8vC8UM2c1d3IupihQh6/rdBmkMZbtJm9WbRbwGjsHsnj8exfT4gHJuaui1+XyHNHje11g39jUYCrcLWqfiQW5gq5w9k+xtn+KL7h0BLtdmYIEVkMuB2bnP0E5oXyn40GBzllpsFEAd5v9wZV/VddfaxKJgLdGFgJi3y7HrCqqt7eqz6lUNXJmXFdHdGNO0pmsHeDs/sITCz+Uex9Pg92T90sIgdiHp5PA+bMKbsw/pyG2x3gM6paZpxRK6p6CybcyPuN/hrYcxCuZxlU9TRsjFa6CBb9dUtV9QQxQTCwZN9vjzu7PSFLGbwIoiEQDSqhFqX8s/gGOcsDt4jIdSKyU2ZYiohsDNyHeVtvyVlVC/wI+N5wNkjJRKLb40fkHg2cLyIzAojI3KQ93oehb9CvPIG/fteKg6Mx+Gv/w9LoLwiCYDiSOUc7RlU3U9WlVHW1LJrTlWoRNr1yN2JO9cqs6b4EbJ/V+0Zdfa+TbK5yDcyhWFn+jjk2vaZic5djkYGCIBg8Ug45D2v4/0H4EYQvV4v2HAQDhareo6onZe/zL6jq11X1rMyJx7BYawn6h8yx6S9rrvY+YJeRer9mjnz/6uzeqp26RWQZfKEewM/bqX8QyGwLT1fVNYGlgAOBqzHHhIqtBTyGOcs/Blufn1dVP6qqp/a5c+p+5vf46yy7tVKhiMwCrO/svqKVOvucK/A1B19sMxLrds72FzEHqEEQDANCIBoMAnUIRMc72+fEN6YsMxFeRbD0HjLjYE8kOUgRROsWiPb6g+92yotUlXKL6uOc7fPlCDtGl2wbTDDoGcI1EwLRwaGXEURTv9lBEogu5eRNRcYLes+fsOdqETc3/L8WgWj2LP4dFoXMzYYZH74uIuNE5MIsOoVX5yyYcWkeE4CTgUOALTHxzX2NGTLvVh8B9sHEUW9ik1QXYwtYn8OEO/Or6ndU9VVVfV1Vr1bVK1T1vhYnUW/EDAPy2Lbpby966CQsOkpQDynx4HwV6klFZhoy1ve8gb2BCajr4jLgucT+uwZNHJMZZ59csdjxnejLMOQ/FfM/BDzi7FuszcnSRk4Blm7aNivmUMB7n2wNrJqo89Aa+tUWmYf+u1X1bFW9oTESQdA2XmRbj1FYVPOy0cjL8gVV/UPNdZZGVW/FxmpbY4Z3BwFrqupeOvyijhyCHV+zuOUFTPh7GHA4sBewjKoeOAzPQRA04glE24kgGgLRoDZU9X7suZxiA2z+4DkRuQ9z7FSHE5LrKZ6nVWD/bA5g2IpDh1CLyP3FRJbVgN9mDr9uxL8Of1fVOh0eBUFtqOpE/Pej55QthTcvrsTceBAEwYhAVS8DPoDvFPtF4EhgWVW9qFv9apVsrWw3YG985yFgNiZfBTZT1d9hBvX3lGzmQeDTMQ8aBINJtsb+T2f3piKyoYisDHwvUc136u9ZEATBsOS7+PMYVXkZ2CYTSY5kLnS2LyciLTnXzOzVLsK3u78VP3jAsERVH1bVY1V1E1WdE5hGVWdQ1TGquoGqfk1VL1DV8b3u66CT2Xr9ydm9g4i0YgO9IX4wrjpt2fqCzN7TE+SPwexJK5NpVrZxdl8SdgpBMHxIRQoLgn6hDoHoi872uWkvgmjLAlH8AQuMjAiiZcSnXUdV3xCRu4FVSmR/TFXfLJMvsW8R4IGGv0eXqK+RFTEv00V40SdDINp/eBMfEUE0n/c8b0VkHnzBlBdNLOgDVPW/InItsFFB1j83/N9b3E0KREVkZuDjmDHha8AclDe6mhmLcLMosJ2I/AgTeW2MjR3+qqpvYWJK73d7gKqmIlsAkH14/xz4uYhINwxAVXWSiFwG7JqzexsR2VtVp4jIdMCnnGquUNUXOtfLEceziX3vx3dE0YxneD+Zd5+xvwF2x8THjXyzzmuqqhNF5Gzga06Wk+pqq8v8DjgK//ulkdcYnp7sOkErAlEvavj0wAK0KRoRkbWBTZ3di2FRoPMi5e6ZqPZkVfU8hAbDgz8DP+5h+wp8VVVP7WEfrCNmcHcpw3zxMRu7HS0if8S8zi4G3ASc16/ROYKgw3jzYyEQDfqJn2COnNyo8BmzU27cX4avq+pRIrIIFunyk5iTqkbuAvZT1WtqanMgUNXTRWQ5fIcZH89Sip47YQmCAsZihj3NtBJBdEln+xMl17KCIAiCYYCq3pI50VgD2ByYC1tnuBO4OlvDGhiy+ZVfisgt2NrBuk1Z7gK+rKr/bCjzhojsCNwCNDvsbuRx4KNhCB4EA8/3gb85+/4PmA6Ywdl/tqre1olOBUEQDDdU9SUR2RZzdjdzG1VNAT6lqmUCswx3/pLYtyXwixbqPAQ/avYUYN+RGrV1iJHggLHHnImtczQzM7ZmfnrF+rZwtj+PBYQajpyGOZueLmffAbzXfrYs62GamTwuaqG+IAj6lIggGgwCnRSIzkV/CkTrjiDqDej7MYJoP3hm/HvJfA8UZwHSnpPGDP0nE9t496PHiiXzRQTRwcG7JnUZnaUYeIEosEKijrtq6kvQOY4t2P82713c8SKILiQi7/xmRGQ2EVlBRGYVkQWxRfCzgQMxb6H7ttHnb2ML67/Hoi8+KiKbAx928r8EnFW1kS5PTnmevOYD1sn+vykwj5PvnNp7NLJ5BYsgm8f8FerxvAs+OeQZW1UnYGLnPYETgB8C66jqiRXaKctPyH+234lNFg4cqvo65X/ffwnjzNLcV5zlPaQEolBPhKdUJCOYOuIyIjIH8FEn/03Afu12Kuh77gKe6lHbDwIfVtWIXNwDVHWsqv5MVb+sqmeGODQYwXjzY616wRZCIBrUTOaoaQegW8ZJB6vqUVnbj6vqp7DvvK2Br2DjzjWBVUaaOLSBb2GRWlvhN41CgSDoU7zv1zoFomFwGQRBMMJQ4xZV/VEWDedIVb180MShjajqrar6AWx+dxtgR8wR7Cp5Yz5VvRf4LH7k0XuBDVT1kQ51OQiC7vF34Dpn3wrA0s6+8cBBnehQEATBcEVV7wC2xxxiN3MFsA/wdKKKScCe4TjZUNWn8R1mb1m1PhFZFt9RO8CPVfWGqvUGQUWuwA+GsFsL9W3ubP/rcBU7q+pzwAXO7g+LyEotVLuds30CEM/kIBhGhEA0GATqEIh6EY8WwRdEjS9RrydYmkdEUgJQ8L2TQf0CUU90WfQMKBNBNDXAStXfzwLRkygXxbWUsXpm/O/dK2Ma/j86UY334ZwSwzUSAtHBYbyzvdcC0V7/NtsViL4IPFdfd4IOcSlwY2L/Wara+NzyBKIAq4rIEiJyPibKvBsbOzxJPeIgjwUwL027O/v/MACisCvw34PbZ//u4ux/A19gGrRAJg7+r7O7ikDUi8z0nkhOqvq2qp6uqvur6ndV9eYKbZQmi0i6KfAH7L55G7gY2HaQjVQo78Hxwo72YnjxX8o57xniQVV9GXjZ2d+Kke07iMi05AhAm9g453twY/xvoK9lYoRgGJM9z1vx5FiWKcAR2P15KnA+5nxjc2B5VW1VWBEEQVAXnkC01Qiio/G9lD/RYp1BgKr+F/gg9n3SClOwd/7+wCnYnEQzLwK7quqROe0/p6qXqur/qeqvMkP4EevRPHNotDPVHW3cixmkBUG/4wlEF2uhLk8g+lALdQVBEARBX6Kqj6rqJap6nqrekRorq+r5wAaYw5G3snQ7JghbU1VTjr6DIBgQsufA91oo+vXM+D4IgiCogKpeCayM2UbchDn63xf4mKr+HLPJ2jHbf39W7G3M6f5aqjqQDsM7iBdFdFMRSdmY5/ET8iMODrVzaMX6gqAyme3Lb53dG4pI6XlPEVkEPyLulVX7NmCkgjkcWKWizOnu9s7uK8LBdRAML0IgGgwCnYwgmhKIjC9Rb8rbzXwFZVMC0rqN4j0RZyrCJ4zQCKKq+ijw1RJZr6hQ7Thn+5iG/49OlPc8nS9Xsv0QiA4O3rNtNhHp9Ht7ECOIzi4iMzX8vaaT7+6RbEw3KGRenT5Nvpj3ceCbTduewBcAHQDcikX+GLq3q/6GUmLVFKn3398S+/oCVX0N3zPUViIyM/6kwUVZFMWgXtqJWj+EZ3jfMwMIVb1PVXdS1VlUdQZV3VZVx/WqP3WQeSW/tiDb23RWJDasyN7fVaKdDBm+eka27ToJWB+YqyDPrMDqTds2c/I+AfyrzT4Fg0O7v/3/AR/H7q8TsefNNcDRwIqqeoiqXqyqn1fVT6rqgar616FI0UEQBD3mMWf7aBF5Xwv1edFDISKIBm2SGYhuh713q4zVzgAWV9WtVPUEVf0C5khqQ2AvTDS6FbCwqv6m1k4PY7Lr8XHyIxPkcR+whaq+2rleBUFtjHW2L5YZ7lQhIogGQRAEQROqepOqbqaqM2ZpdVU9WlUn9LpvQRDUh6peC1xeocgFwK871J0gCIJhj6qOVdUvqeq6qvphVT1pyCGyqr6ZOfP4kqouhzl6nE1Vt8kikAbvxROIzoLZJpRCRFbGd3T9LLBLrBkHXSQlBN+9Qj1bJPYNd4HoDZgIP49dRKSKzeA6+A4JIxBIEAwzQiAaDAKdFIimxFDjS9TrGetDscH+cIkgOuwEogCqejJpjzkvYJ4myzLO2T6m4f+jE+W9gZ634N9MCEQHh/HOdgFaMZiswiAKROG9z9sPOHnuqK8rQSfJxGHrAb/Dfg9TMLHiBqr6YlNexX8+bkd7kXcvyfqxB/B8G/U0c12NdXUS7+N/eeAr2ERkHp4HsKA9vAiiAy0QHcacXLD/IlWt8i0TlI928hbvRgx7xMmzVJt98QTyzTRHNd/Uyfe3cGIxoriC/ChiQ0wAPkz+YsYVwMqqeqGq3q6q+6nqRqq6saoepKr3daLDQRAENZIady7cQn1emSn44+cgKI0aF6rqB4FVMY/3nmPHu4GPquoeqvoeMbSqvqWq16nqrzPR6J/DGL06qnoz8CGKf98XAOuoagjFg0HBc240MzBv2UpEZDreu97USAhEgyAIgiAIgpHA3kAZR0Fjgc/H2kwQBEF3UNUJqlq3PfRw4gb899dHKtTz7cS+g1TVC8AQBLWjqnfi2+vuLSIzlqxqc2f7naqasiceeLKx6tHO7ukoFwRriM842ycDl1bpVxAE/U8IRINBoJMC0RTjS+R5CV/MWWSwP8gRRIe9QDTjcHwR6JGqOrFCXeOc7Ys2/H+0k2cKcLuzb04RmbNE+yEQHRzGJ/a1I3Yrw6AKRBcEEJG5gWWcPDfU3qOgY6jqI6q6s6rOAUyvqpurqmdM7AlE2+X/MmPQM7Bn9Z607zHpLlV9oe2edQfPQx3AT53tL+BHHg3aw3sGzl+hjhCIdo8LSUetKhKQBlPjiT2nypdFowZ40MmzdKudyKK3bFcy+zsCURFZJNFu30eWDuojE4N4k/gAJ6nq31R1C0zM/BlgV2AZVf3IoEdZDoJgxPM0/hzlos72FF4E0WeGPJUHQV2o6n9U9UvYmO5wbMH8CuBHWGTvlVU19R0d1ICq3g6shkVqbZ6bfwz4FPBJVY0572CQ8CKIAixRoZ5F8Of3QyAaBEEQBEEQDHsyh01fKsj2PLBFiGSCIAiCfiGzQfZsrbYsU4eILAB80tl9G+HsP+gNZzjb5wV2KSosItMCmzm7h3v00CEuxNY+8thHRAodDIrI9MBOzu7LB8iWNQiCkoRANBgEPEHU+Ap1VBWIvqmqbxZlyjw0tBrRKSUQ7fcIopOd/5ctX7bunpJd352Auxo2TwJ+AhxXsTpvkDam4f9zOHlewTdwh3JGAiEQHRxS4vfRHW67bwWimWHXeGf3Ytm/3kQHhEB0YFHVovfCvzrQ7N9pmEjIvNmdrqrbqaoAHwVea6Hea2rqX8dR1aeA/1Qsdm5F5wlBeTyBaKkIolkUiQWc3SEQrZnM++Ve5Asgfq2q13S3R8MCbyzdTGOkUW/8vFQm9GyFxfHF1s0s3/D/TRL5PIc0wfDlaPIdXFwPfHfoD1V9WFV/q6q/UdXU92AQBMFAkH0rPO3sLvt+bcQTiEbUwKBjqOrjqvo9Vd06c97wnSyyd0Qd6RKq+l9V3QMzIvkINn+/HrCEqp4b1yIYQJ7Hn2dcqkI9qbxelNIgCIIgCIIgGFao6jnAfuTbnj0OfFhVH8rZFwRBEAS95HJn+woisnCJ8jvg24IfEXOmQY84G3jD2XdgCbudtfDtpa9otVODROYQ9zhn98zA10tUswUwl7PvNy10KwiCPicEosEg0IsIouMr5PUM9j0j/CFmSOwbpAiiXt2p8qm2+0YgCpB5x1gV2AAz7F5AVb/VggBmnLP9/SIyY/b/0U6elzEDugnO/jJGAiEQHRx6KRBNPRP6IfqGZ8gyJJL2PAuNA56ovTdBv3Ad/vOxFR4DdktNjmVRQVYCfg7cCjxbsu6/t9+9rlI1+kl4nOscnkOSshFEFwS8ibUQiHYAVb0C2Ip3o3S8hUUa2rtnnRpsyt6nDzr/b2QWSoqrc1i/Qt5GgegHnDx3q2rZd0gwTFDVt4ANgQMx5xF3AT/DDFPqngsIgiDoNzynDyEQDYKgEqo6XlWvUNU/qOoNJRyMBUFfks1Bet+vy1Soakln+1Oq6hliBUEQBEEQBMGwQ1VPBFYHzsHmiW4BvgOsqKpVHSQHQRAEQTfwBKKQDpgxxCec7Q8CF1XuTRDUgKq+BJzm7F4ecwCZYnNn+wTgn632awA5BXjO2bePiMxXUP4zzvbXgItb7lUQBH1LCESDvibzEPE+Z3cVgejzQBUvKC9XyOsZ7M9TUG4QIoh6+zsZQTQlOO0JqjpFVf+pqler6vMtVjMusW/ICG60s398ZiTwsLO/jBFdCEQHhEx8/Lqz2xPM10XfRhDN8ASii4vIvFi0gDzOCU9Yw5cs4vffSmR9DbiUd+/lOzHx/wFYxK5rgB8Aa6pqoUGxqo5T1X1UdU1VnR/7GE/xEoPnvaqKQHQcEam3k3gOSeYTkTLfdKmxQgjoO4SqXg6sgDmOmTeLNNQP79NBpKxA9CHn/82s2GI/qghEFxSRobHVWk6e61rsRzDgqOpbqnqsqm6sqiur6jdUtU6HF0EQBP2K905ftIW6QiAaBEEQDBc8gejSFerwBKLeulIQBEEQBEEQDFtU9U5V3UVVF1bVtVT1R6oa9lFBEARBX5LZqd3l7P5iKtKiiMyP2b/l8TtV7Tt77GBEcRy+dqMo+uUWzvZrM3vREYGqvg4c6eyeCfiuVzYTj27n7L4gHAsGwfAkBKJBvzMr/n1aWiCaGWJXicwyvkJezzPDvAXlUhFE6zYcbzWCaKGIMxNdeQO4VP1lxKfDiZRR+5js39HO/vHZv085+8tEQAqB6GDhPd9Gd7jdgRWIAh/Fj473m850J+gjflqw/2pgYVXdGpgLi7q4Wib+P15V188EGt/PIke3wvGknRz8agCFHzdgwtYynB5C7I7iCUSnxe7pIjyB6HhVfbW1LgVlUNW3VfWZOM9tU1bI/I4oNPNG6P12VmuxH6tXyDsKE3HPiEWdzuPmFvsRBEEQBIOKNz8WEUSDIAiCkcwDzvY6BKIp50lBEARBEARBEARBEARBf3Ces31pYL9EuR3xbSbPb6tHQdAmqvoIcKGze2MRWTtvh4jMAazjlBu0AB11cDK+VmVvEVnO2fcl/GBmZ7fdqyAI+pIQiAb9zujEvioRRAGerpB3fIW8nvC0SCDqvXTf6oDAopMRRFP1txJBdFgKRDNRkBdtdkz272hn//jsX+8eXiDVduZBaFZndwhE+5PxzvbRHW43JRDth9+mJxBdCviAs+8h4P7OdCfoF1T1euCHObsmAQcDm6nq+Czvq6r6bN0e0lT1HuDbzu5xwE/qbK8bZBGN/1Ai61vYRETQObwxBJRzFOEZ3JeNyhgEveYVyo1bmw1fb3fyVRF6AiAi0wDLVyy2ELAK/hjrlqr9CIIgCIIBpxaBaDbXFQLRIAiCYLjgRRBdSkTKruVHBNEgCIIgCIIgCIIgCILB5TR8+8zjRGT/5kiimQ2DJx59ALinxv4FQascldh3sLN9E3z9wpXtdWfwyCJ9egFUpgFOzHk+zIgJRPN4HLimtg4GQdBXhEA06HdmT+yrKhD1oi/m8XKFvK1GEPUEom9XaLssHYsgmhEC0XKMc7Yvmv07h7N/fPZvSwJRYBZ8L0EhEO1PxjvbU8/EOuh3gajn7XweYENn318jquHIQFW/C2wNXAJcD5wIrKyqR9YtBk1wJLA/0Bgp9H7gI6paddzSL5xWIs/Zqvp8x3sysnkOP2J7CESDYU/2Li8yan2BqcfLtzl5W4kguiQwY8UyCwFrOfteJ5xYBEEQBCOPx5ztC4pIak6imdmB2Zx9IRANgiAIBg1PIDojsHBR4cwYcHFndwhEgyAIgiAIgiAIgiAI+hxVfQq4OJHlOOAPItJoP7o1sIST/7ywmQz6AVW9AfiHs3t7EVk2Z/sWTv4ngftq6djg8XP8ddZNgS80bTsAX8dyoqr2gz14EAQdIASiQb/TK4HoSxXyegLR+QrKzeBsf6tC22XxhDF1RRBtpf6RKBD1Bmdjsn9HO/uHBMvPOPuLhCGewRyEQLRf8Z5vc3a4Xc8Yc3KfTBikvFot42y/uxMdCfoTVb1UVbdR1fVVdT9V7eqEgBonAPMD22Ef32uo6gPd7EedqOotmOjW4y3gZ13qzohFVSfhjznnL1FFCESD4cCNBfuvzxmveBFElxKR91VsfyVn+xT8b82FgDWdfbfFhGsQBEEwAvHGn9NQ7ACtkZRYJsa4QRAEwaDhCUTBn/duZFFgOmffI9W7EwRBEARBEARBEARBEPSAEwv2fxK4RURWFZGZgB87+SYBv6y1Z0HQHj9xtgvw9fdssEiYnkD0ij6xY+46qvom8M1ElmNFZHUAEXk/8B0n3+vAqTV3LwiCPiIEokG/4wlEJwJvVqyrikC0iqd5z1h/dhHxRKDQ3QiirUT4TO2PCKKtMc7Zvlj272hn//jsXzeCaHN4+CZCIDp4vOBsL4pM3C6eQHRSh9sty3P458ZjpHoMCnqIqr6qqn9S1b+r6hu97k8N7I0fbeDLqpoyYgvq47/O9oggGowU/lWw/58527wIogCrVmzfE4g+hB/lfCFgDWffvyu2HwRBEATDgdT40xuzVsk7BX/+LAiCIAj6ElV9FX/eZ+kSVaTyeN+rQRAEQRAEQRAEQRAEQR+hqlcDJxdkWxKzNRgH5EVeBPiDqlaxgQ+CTvMX4C5n364islDD30vjrwNeWWuvBo8/ANc7+2YCLhGRNYDzgFmdfKeq6vgO9C0Igj4hBKJBv+MJRMe34AWi2wJRgHkS+zzxaCcEop2OIBoC0XKMc7YvJyKjKBaIehFEZwDmSLQbAtHB41lne1Fk4nbpa4Fo9tyvGhH03k70JQhGEqr6NLAh8FvMQccU4GZgW1U9rZd9G2F444BkpKXMicSizu4QiAaDxLX43zUAl+Zsewx42cm/WsX2PYHoXfjfjwtjCzR5pMSrQRAEQTAsUdVXgFec3XUIRJ9S1b6YwwiCIAiCijzgbG9HIPqkqr7eYn+CIAiCIAiCIAiCIAiC7rMfcExBnmlJBxopKh8EXSWz+/2ps3s64KsNf3vRQ6cAf6uzX4NGdh73xA+wtgBwC/BBZ/8rwBEd6FoQBH1ECESDfscTiHqGRCm8xdU8nqiQNyUQTQ3CvQiib1Vouyye6LLoGRARROvlHmf7aMxwfLSzf3z2r+dBGmDuxL6UQPS1xL6gd3gC0U5HEPV+l/1kXOn9jvJ4CXi+Ux0JgpGEqj6tqp/B3inTqeo6qnpxr/s1wvAiIS3kbB9idnyvYCEQDQYGVX0C8ETpf1DV+3PKKHC7U2b1il1oRSC6JjCjsy+iuARBEAQjFW8M6jk1ycMTiFaZ0w2CIAiCfuJBZ/syJcp6AlGvziAIgiAIgiAIgiAIgqAPUdVJqvo1YA9asyU/R1XDWXXQj/wBP8jSF0Rkzuz/nkD036r6Uu29GjBU9UHgWy0WP0xVw546CIY5IRAN+p06BaJVoshVMSZ6ET+STSsC0W5GEE0JOMF/RjTX10qE0pEoEL0N/1ytA8zl7Buf/ftiou45E/s8geiEiKrQt3jC8xEdQTSjSgTRe1uINh0EQYJsIjIVwS/oHN74dOGCcqlITCEQDQaNrwM3NG17EPOi6eEJREtHEBWRmYElnN0pgahXBuDRsu0HQRAEwTDDG4NWiSDqjYFjfBsEQRAMKp6Ys50IoiEQDYIgCIIgCIIgCIIgGEBU9QxgXeDhCsWeAfbtSIeCoE0yW/WjnN2zAl8WkRmAjZw8V3aiXwPK8cDvK5a5DTipA30JgqDPCIFo0O+MdrZXFoiq6nj8yEvNlM1HJpLwPCqkBKIzONsHIYJoc30RQbQEqvo6fvTDjwLTOfuG7q/XgYlOHk9cCr5A9H+JMkFv8SKIzi0iRcLudhgEgWiVCKJVHAMEQRD0O3ULRCdTYcwbBP1A9k33IWBv4JeYYHR9VfWca4BNcuaxvIjMVLLpxQFx9t2NLxD1eI2085cgCIIgGM7UIRD18oZANAiCIBhUHnC2L1ri2zUEokEQBEEQBEEQBEEQBMMMVb0DWAM4t0T2ScCuEWEx6HNOx9db7A98GJjZ2X9FR3o0gGRBc/YE/lWyyPPA9qraiQBmQRD0GSEQDfqdOiOIQjmx0FOqWlWk6Rkkj5QIonUKRId7VLIbne07Jcq8CO8M6jxD8lYiiIZAtH/xBKKjgLk72K4nEO0n4XYVgeh9HetFEARB9/EEovNlHtQ8POP5J1W1n57vQVCKLJLxL1V1b1U9SlW9yeMhvAii0wArlmzWiwQ6GRhHdYHooxHlPAiCIBjBPOZsD4FoEARBMJLxxJyC/01KJh713oshEA2CIAiCIAiCIAiCIBhgVPVVzLZ4D3xh3WvAx1X1qq51LAhaQFXfwKJf5jE3cKGz71Xgpo50akBR1QnAFsDlBVlfALZS1VhDDYIRQghEg36nboGoJ85rpJUw5K0IRAchgqi3v44IomXrHm78tYUyLzT83/PwExFEhxepKFjzdbDdvo8gmnm5eqZk9oggGgTBcMITiAIsmNi3qLM9Jn6CkcKDwBvOvtVL1rG4s/1xVZ0IPFWxT49WzB8EQRAEwwlvHLqoiHgRu99BRKbBH//GGDcIgiAYVB7FXx/zIoSCiUe99+dDbfUoCIIgCIIgCIIgCIIg6DlqnIHNEX0LuAGzUbgPOBZYUVUv6V0Pg6ASP8dEzXl49stXqWrf2DD3C6r6GrA1cBBT25wrcB6wkqr+u9t9C4Kgd4RANOh36haIFnlKADixhXqHawTRslE+64wgOtwFoldRLUrqZN57v0cE0ZHB89gAPY8FOthu3wtEM+4umS8iiAZBMJxICUQXTuyL6ErBiCaLlPsfZ/dqJavxorU8kv37HNXGSzFGCYIgCEYy3jh0Nvy54Ebmx5+/SI2ZgyAIgqBvyZwPec6ElkkU9cSjk4GxbXUqCIIgCIIgCIIgCIIg6BtUdbyq/kRV11PVhVR1eVU9UFUf63XfgqAsqvoy8IuKxS7uRF+GA6o6SVWPxgJIbA7sC3wWWEJVd1TV//a0g0EQdJ0QiAb9Tt0C0ZvwBXYAt6vq7S3U2+8C0U5HEPUEj6n6R6RANIt+eFGFIi+oaqNQMCKIjgAyYxAvSqYXCa4OBkUgek+JPK8BT3a6I0EQBN0i8/o13tkdAtEgSHObs71sBNGkQFRVp1AtimhZZxdBEARBMBxJGSp4Y9eyeWKMGwRBEAwyDzjbUxFEl3O2j83WGYIgCIIgCIIgCIIgCIIgCPqJYymvlfgfcH4H+zIsUNU3VfWvqnqSqp6tquE8MAhGKCEQDfodTyA6vpXKshDjxySynNVKvfgC0fkSZWZwtr/VYh9SRATR/uIgyt/DzYLmiCA6cvCMGssYS7bKoAhEy4gq7m0SVwdBEAwHvIhIIRANgjSeE6CVRWS6EuUXd7Y3Rnep4pgiBKJBEATBSOYZ/Pm/Mk6xvPHt68DLLfUoCIIgCPqDB53tqQiiKznbyzhZDIIgCIIgCIIgCIIgCIIg6Cqq+jTl9RpnZ0EVgiAIghKEQDTod+qOIApwFHB9zvbbgJ+3WOezzvZ+iSDaSoTP1P5mI64QiFYg88yxWcnsLzT9HRFERw5eRI1OCkS932W/CUTvKJHn3k53IgiCoAd4ArSF8jZmwrcFnDIhEA1GEl4E0RmAZVMFRWQaYDFn9yMN/y8rEJ2MHxUmCIIgCIY9qjoZ/71ZZs7Dc47yeDiKCoIgCAYcTyC6rIiIs29FZ3s4JgqCIAiCIAiCIAiCIAiCoF/5GVC0rjcZ03wEQRAEJQmBaNDv1C4QVdW3gY8CRwP/Af4NfAvYNNvXCl4E0XkTi7bdjCDaioAztT8iiLaJqt4KzFwia7NANCKIjhwigqjPf4BXC/L8sxsdCYIg6DJVI4gugP/NFwLRYCRxDzDR2bd6QdmFAC/KaCsC0XtUtRPffEEQBEEwSLQz5+Hl8cbKQRAEQTAo3O9snwN4f/NGEZkeP7poCESDIAiCIAiCIAiCIAiCIOhLVPVB4IKCbD/MAjIFQRAEJQmBaNC3iMgo4H3O7nYiiKKqr6rqQaq6qqqurao/UdXxbVTpCUSnxz+GiCBaru5hi6pOAHYqyPZ0098RQXTk4BlLjulgmwMhEFXVSRQLQP/ajb4EQRB0maoCUS/qIYRANBhBZI6APOPY1QqKL5HY92jD/8sKRP9dMl8QBEEQDGcec7a3IxCN8W0QBEEw6NyV2LdKzral8ef0QyAaBEEQBEEQBEEQBEEQBEE/czDwsrPvTOCwLvYlCIJgWBAC0aCfmQ3wom+2JRDtAJ5AFGBeZ3s3BaKe6LLoGVA2gmgrAtQRLxDNuKVg/+1Nf0cE0ZHDOGf7wiIyY4fa9IxJ+vF3eW5i392qGoahQRAMR6oKRMc4219S1aJIzEEw3GgeVw+xYkG5xZ3tLzT9jp4q2Y+i8X8QBEEQjAS8b/ZFS5QNgWgQBEEwLFHVl/CdD62cs837np0EPFhLp4IgCIIgCIIgCIIgCIIgCDqAqj4KbITZAr+MzWveB+wN7KGqnjYhCIIgcAiBaNDPzJ7YNxwEojM4299qsy95eIOkVIRP8J8RzfXVGUF0pA3oHi3Yf1vT314E0feJyHTOvhCIDiYPOdsFX6jQLgMRQTTjHKb+fQzx3W52JAiCoIt4AtG5RGTmnO1eBNFx9XQnCAYKL3rKCgXlvAiijzT9Xdb49saS+YIgCIJgOOOJOctEEPWco4RANAiCIBgO3Olsz4sg6glE71fVTjijDYIgCIIgCIIgCIIgCIIgqA1VvVNVP6Wqc6rqdKq6vKr+UlW1130LgiAYREIgGvQzAyMQVdXXgTec3cMxgmhzfa0IRL22+zFSYcfIBrEnObvfAu5p2uZFEAWYw9keAtHBZCz+72HpDrU5MAJRVZ0IbA38o2Hz88AuqnpRTzoVBEHQeTyBKMBCOdvGOHnHtt+VIBg4PIHo/CIyV6KcJxBtdvRyNzC+oA8v4Rv7BkEQBMFIwhNzLpBwgIaIzALM7exOjZWDIAiCYFD4j7M9L4LoSk5e7/s3CIIgCIIgCIIgCIIgCIIgCIIgGKaEQDToZwZGIJrxrLM9IohW2zeiBKIZRwITcrafl4ngGvEiiAJ4hu0hEB1AMg/f45zdI14gCqCqTwObAOsBHwMWU9VzeturIAiCjvJkYl9eJCUvgmgIRIORSLPjlUZSUUS9yO3viSCqqpN5r+OKPK5VVe/bLAiCIAhGEo8524V8xydDeI4bwJ9DCYIgCIJBwnMqtKyIzNi0bQ0nb+r7NwiCIAiCIAiCIAiCIAiCIAiCIBiGhEA06Gc8gejbqvpmV3tSjuec7fM52wchgmjZKJ8hEG0DVX0C+AzvPfb7ge/lZE9FEJ2zeYOITAvM5OQPgWj/86CzPc9beB14v8u+FIgCqOokVb1BVS/LojkHQRAMW1R1AvCCs7uKQHRcLR0KgsHiGeBlZ9+KiXKeEOWRnG2XF/ThooL9QRAEQTBSSEX7XCSxz3svT8KPShoEQRAEg4QXQXQaYPmhP0RkQWBBJ++tdXcqCIIgCIIgCIIgCIIgCIIgCIIg6G9CIBr0M55AdHw3O1GB553tXlRHTyDaTxFEvf3N9Xn1p80hDcIAAEziSURBVJ4xIRBtQFX/iAk79gK2A9ZU1amie2XCEE8gnXevedFDIQSig8DdzvZ1OtTeQEUQDYIgGKF4UUTfIxAVkenxDQUjgmgw4lBVxR9b5QpERWROYLRT5tGcbecAbzj5xwPn+T0MgiAIgpGDqv4P33FDSiC6pLN9nKrG3EUQBEEwHHgIfw1ovYb/r5Wo49/1dScIgiAIgiAIgiAIgiAIgiAIgiAYBEIgGvQzo53tr3SzExXwjJrmcLbP4GyPCKIjFFV9RlV/rap/KoiE6EURnSqCKCEQHXRudLYvKSLzdKC9EIgGQRD0P160pUWb/l4EECdvCESDkco9zvYVnO1LJeqaKoKoqo4HjnHyfz9z9hIEQRAEgfGYs72VCKJ5kb2DIAiCYODIHB7c5uzeqOH/6zt5xqrqC7V2KgiCIAiCIAiCIAiCIAiCIAiCIOh7QiAa9DNeBNHhIhD1Ioh2QiDa6QiiIRDtLi852yOC6PDjpsS+7TrQXghEgyAI+p9xzvZmY/nFEnV4xvhBMNzxIoiuLCJ5guplnPyvA087+34AnAJMzP5+DtgfOLFsJ4MgCIJghPC4s73Z8UkjIRANgiAIRgLXONs3EpGhtf0POXk8p5NBEARBEARBEARBEARBEARBEATBMCYEokE/M1wEoqOd7V4E0bfa78pUeALRiCA6mNQVQfTVGvoSdBBVfQo/ytvxIrJ8zU16AtH4XQZBEPQPDzvbm43lxzj5nlXVN+rrThAMFJ5AdDSwZM72pZ38D6qq5u1Q1Umq+gVgPmAeYAFVPUFVvW+yIAiCIBipeALRVATRvPc1+GPkIAiCIBhErnG2zwWsICKzAas7ea7tSI+CIAiCIAiCIAiCIAiCIAiCIAiCviYEokE/M2gC0fHO9n6IINqKgDO1PyKI9hYvgmgVgegUIMQhg8G5zvaZgItFxBObt0JEEA2CIOh/POP3hUVkpoa/vehK4+rtThAMFLcBucJOYJ2cbV4E0QeKGlLVl1X1BVWN75sgCIIgyKeSQFREpvf2ERFEgyAIguHFv4CJzr6NgQ/ir7Fd15EeBUEQBEEQBEEQBEEQBEEQBEEQBH1NCESDfmbQBKJeBNGqAtFBjCDaSv0hEG2dOgSir3lRj4K+48zEviWAT9XYVghEgyAI+p+U8ftiDf/3Ih9GdKVgxKKq/wPucXavl7NtJSfvg/X0KAiCIAhGNI852xcVEcnbjj/XGALRIAiCYNigqq8DNzu7Pwps6Ox7Dri/I50KgiAIgiAIgiAIgiAIgiAIgiAI+poQiAb9zGhn+3ARiHpR/7oZQbToGdCLCKKe2DR4F08gOlfONk8g+r+a+hJ0GFW9Dzg7keULNTYXAtEgCIL+Zxz+eKkxauhSTp4QtgUjnRud7Zs0/iEi78MXWnsi0yAIgiAIyuNFEJ2ZfCdoSybqerT97gRBEARBX3G1s31TYCdn33XhGDQIgiAIgiAIgiAIgiAIgiAIgmBkEgLRoJ/JMwQCXxzXazyB6EwikicG9SKIdkIg6okIUgJO8J8RdQhEy0YnDabmRWd7lQiiIRAdLPbHF8evIyLT1dSO95sNgWgQBEGfoKpv4RvTLwkgIqMIgWgQeFzrbF9GRBZp+Hs1IC96GcAt9XYpCIIgCEYk3pgWYJGcbd749mlVnVBDf4IgCIKgn7jY2T4tMMbZ533vBkEQBEEQBEEQBEEQBEEQBEEQBMOcEIgG/YwXeXPQBKLQdCwiMg2+EOut2nr0LpUjiGbCgrL11RlBNASixXi/gRCIDlNU9WVge2f3tMDiNTUVEUSDIAgGg0ec7UMRRBfGj1YfAtFgpHNVYl/jeOsDTp6XgbH1dScIgiAIRiz/BSY6+8bkbFvGyRvj2yAIgmA4cgtpZwp5XNaJjgRBEARBEARBEARBEARBEARBEAT9TwhEg35m0CKIjk/sG930txc9FPongmjq+VBHBNEQiLZOCERHJjfg/5aXramNEIgGQRAMBg8725fM/l06UfahmvsSBAOFqj4D3OXs3qnh/x928tyiqlpvr4IgCIJg5KGqU/CFL3liUG/u4/56ehQEQRAE/UP23fnrCkX+rarhzCgIgiAIgiAIgiAIgiAIgiAIgmCEEgLRoC8REcGPIJqK1NlLSkcQJS0Q7YsIogX7muvzRGupOkIg2jqeQHQ2EZmueZuTNwSiA4aqvokfrWq5mpoJgWgQBMFg4EUQXSr71xOIPqOqMQYIAjjP2b6uiIwRkVmBDzp5/t6hPgVBEATBSOQ+Z/sKOdu8CKIP1NSXIAiCIOg3TgBeKZn37E52JAiCIAiCIAiCIAiCIAiCIAiCIOhvQiAa9Cuz4QsI+zWC6BvARGdfs0B0hkQ9/RJBNLUvIoj2ltRvoDmKaAhEhxdeVAzPSLIqnkA0fpdBEAT9hRdBdIyIzIQvEH2wQ/0JgkHjD4l9uwBb43+z/bX+7gRBEATBiOVeZ/vyjX9kzhsWdPKGQDQIgiAYlqjqeODYEllfA87sbG+CIAiCIAiCIAiCIAiCIAiCIAiCfiYEokG/0ixya6QvBaKqqvhRRId7BNEQiHaXFxP7QiA6vHnI2b5wTfVHBNEgCILBwDOkH4UZ04dANAgSqOqDwG3O7i8Dn3f2PQfc0Yk+BUEQBMEI5R5n+3Ii0jg36Y1vwXemFQRBEATDgeMpjiJ6gqq+2o3OBEEQBEEQBEEQBEEQBEEQBEEQBP1JCESDfiUlEPVEmP1AWYFoRBANgWg7RATRkcsTzvZFaqo/BKJBEASDwcPAm86+lWmKuNRACESD4F1+52xfANjY2Xeeqsb3ShAEQRDUh+f4ZCZgTMPfyzr53gIer7NDQRAEQdBPZFFEf5LI8jDw0+70JgiCIAiCIAiCIAiCIAiCIAiCIOhXQiAa9CvNgspGxnerEy0w3tleJYJoNwWiEUF0AFHVCfiikBCIDm88o8eFRURqqD8EokEQBANAJlC729m9Mb7jgPs606MgGEjOACZULPPbDvQjCIIgCEYyqeifKzT8fxknz0PhvCEIgiAYARwFnABo0/Z7gS0iemgQBEEQBEEQBEEQBEEQBEEQBEEQAtGgX/EiiI7vc6MfL4Lo6Ka/UwLRt+rpynuoU8AJUwtOWxGgevV7dQXvxYsiOlfT3yEQHV54EURnZOpr3wre7zIEokEQBP3Hnc72XRNlbu9ER4JgEPn/9u4v5rb8ruv4d82cnk5bmBkgILZS4UaUEP4EI8F4gUpMjHdqSDBya0i88IYLr+VCgxeamBij3qkoCZKoUWOE8k8oBLD8KUihpeVvO53OzJnOTOfMMzPPz4tzHnj6dH/XXr+112/vtdbv9UpIZ9ba+3cW2rVpmrznU0r5TDyKRKf6hYj42TZPAwB9KqW8GhGfSG5/3a2/zgLRscAUAHahlPJWKeUfRMTXR8Q/jIh/FBHfGRHfVEr57Ys+HAAAAAAAAKuQLYXBpWULolmAuRbZ89393+edI2f0siCanb/mAHhNXoyI9x64bkF037JANCLiqyLiMyeeb0EUYDuyQDTz6Yj4ZIsHgQ37ZxHxPRExZYn9+0spd9daAIDT/XpEfPWB619/66+/MfnuRxZ/GgBYqVLKr8ej/7sJAAAAAAAAn8eCKGuVLYhmq4lrsUQges4F0TkLnxFfGJwuuVAqEJ3mheS6QHTfnos81vyqBc4XiAJsx69Wfv5D4jb4fKWU34qIfz3hoz8bET/U+HEAoFe/llz/5oiIYRjeE/mCaO0/NAUAAAAAAAAAYHcEoqxVr4HodSmlRYiVLYjOWfg8dJ5A9Pyyd+GP3p1hGIYQiO5KKeXtiPj95Pb7F/gjBKIA21EbiH6wyVPA9n1vRPzSyP3PRMTfFVgDQDMfSq7/ucdx6DdEvvadfRcAAAAAAAAAoBsCUdbqblB5Iwsw1+JBcn1qINpiPTRi+QXRu+cJRM/vaCAaj/59lgV/AtHt+r3kessFUe8lwMqUUp6PiD+s+MpPtXoW2LJSyqsR8Vci4j/duXUdER+IiG8rpXzs7A8GAP34xeT6ExHxTRHxLcn9VyPC/40GAAAAAAAAALonEGWt9r4g+lTyuVaBaOsF0ez8OQGqEG2a7F34slt/na2HRghEt+wSgagFUYB1mhp9vhURP9fyQWDLSikvlVK+KyLeGxF/KSK+PiLeXUr5q6WUj1726QBg9z4aEZ9N7n1bRPzF5N4vlVKy/04SAAAAAAAAAKAbAlHWKgtEt7og+vSdv88WRB8u9yifZ86C6Ng9C6KX90Jy/fa7IxDdJ4EoADd+bOLn/m8p5bWmTwI7UEr5ZCnlp0spv1ZKafUP7wEAbnkcef58cvvb41EkesgHmzwQAAAAAAAAAMDGCERZq7uLmzfWviCa/dPunx6GYbj191kguqYF0bF7d88TiJ5f9i5MDUSzf6+yfr+bXH//AmcLRAG25Ucnfm7q0igAAFzCTyTX/0ZEfHVy72faPAoAAAAAAAAAwLYIRFmrbEF07YHoy8n1ISK+6NbfnzsQtSC6P6cGohZEtytbEH3fMAxj79wU2fcFogArVEr5aER8aMJH/0/rZwEAgBNkgegYC6IAAAAAAAAAACEQZb2yBdGXzvoU9cZWGZ++9dcWRPN72bPy+bJA9OlhGN5x89fJZ65KKVcNnonzyALRJyPiK08824IowPb8wJH7b0bEB87xIAAAMNPPRv4P3jvkV0opz7V6GAAAAAAAAACALRGIsjrDMNyPz1/bvG3tC6JbC0SXWhCtOn8YhmHkfAui04y9CzeBdbYgaj1027JANCLiq048WyAKsD0/eOT+T5RSxv4zKgAAXNTjf5DZD1V85X+1ehYAAAAAAAAAgK0RiLJG2XpoxPoD0bF/0v0zt/763IHokgufEacviA4jZwtEp3lh5N6XPv5Xgeg+vRgRn0vuCUQBOlNK+b2I+NGRj/yrcz0LAACc4N9VfPa/NHsKAAAAAAAAAICNEYiyRmOB6Etne4p5Phf5muaeF0RrA9Gx+FQgOs1YLC0Q3bFSSol8RfT9Jx6fBaLeS4B1+944/A8q+eHH/wMAAGv3kxHxyxM+95GI+JnGzwIAAAAAAAAAsBkCUdboXkT8akT8fnzhSt6qF0Qfh1ufTW7fDkSfSj5z7gXRsd+AlguiAtHTvR75v18EovuXBaIWRAE6VEr5pYj41ngUg74Zj/6hKv84Ir7r8X8+BQCAVXv8n1u/b8JH/7n/jAsAAAAAAAAA8MeyEAQuppTy4Yj4hpu/H4bhnfFoVfRL41EUt3YvR8SzB64/c+uvswXRh4s/zSPZguhYqDkWjwpEL6yUUoZheDEi/uSB21/2+F8Fovu1eCA6DMMQAlGAzSqlfCQi/tYwDO8opbx56ecBAIAZfjgi/mdE/PXk/gci4t+c73EAAAAAAAAAANbPgiirV0p5o5TyqVLKr2/knw4/ZUE0C0S3siB697wsQM3OF4gu44XkugXR/WuxIDr2eyAQBdgIcSgAAFv1+L/7/TsR8VMHbv9IRPzNUor/7hAAAAAAAAAA4BYLorC8NQaiWcA5DMMwJOGtBdH1ezG5/uWP/1Ugul+/m1x//wlnjr2XAlEAAACguVLKg2EY/nJEfGdEfFs8+u8KfyIi/mspJfvvOAEAAAAAAAAAuiUQheW9nFx/5tZfr2VBNOJRCHro/lggevfzAtHL+HRy/SYQ/ZLk/oPlH4UzyxZE/8QwDO8spcz5LRn7zwQCUQAAAOAsHq+E/sfH/wMAAAAAAAAAwIixAAyYZ0sLohHzIk4LouuQBaJf8fhfvzS5ny2Psh1ZIBoR8b6ZZwpEAQAAAAAAAAAAAAAANkQgCstbYyB6bEG05nqUUu4GolmAmp1RE5+Sez65fhOIZguiLzV4Fs5rLBD9qplnCkQBAAAAAAAAAAAAAAA2RCAKy3s5uf7Mrb9+KvnMFhZED51VuyA69ttjQXS6bEH0yx//qwXRnSqlvBp56PunZx47Foh6LwEAAAAAAAAAAAAAAFZGIArLW+OC6FggWrsgeigUqw1ExxZEhWjTZYHoVwzDMIQF0b37neT618w8z4IoAAAAAAAAAAAAAADAhghEYXmnBKIPF36WG2PR5SUWRAWiy8gC0S+ORyui2f87C0T34ePJdYEoAAAAAAAAAAAAAABABwSisLyXk+vP3PprC6I5geh0WSAaEfG1I/deXPpBuAiBKAAAAAAAAAAAAAAAQMcEorC8UxZEWwWiY9Fl9jtQsyCaBai1Z0cIRGuMBaJ/duSeBdF9+O3k+txAdOy9FIgCAAAAAAAAAAAAAACsjEAUlpcFol88DMNNgLWmBdEsCst+Hw6dZUH0Mh5EHu6NLYg+WPxJuIRsQfRPDcNwf8Z5FkQBAAAAAAAAAAAAAAA2RCAKy3t55N4XPf7XdyX3X1/4WW4suSB66CyB6AWUUq4j4vnk9tcl1z9bShH77UMWiA4R8adnnCcQBQAAAAAAAAAAAAAA2BCBKCwvWxCNiHj68b++O7n/uYWf5YYF0f36dHL9G5Prz7V6EM7uEyP3vmbGeQJRAAAAAAAAAAAAAACADRGIwvLGAtFnhmEY4vyB6JwF0ex66wXRsZiVL5QFou9Nrn+y1YNwXqWU1yPiU8ntpQNR4TYAAAAAAAAAAAAAAMDKCERheS+P3Hs6It4ZEUNy//XlHyci5i2IZtcPnZWdn/3GWBBdThaIZv6wyVNwKR9PrlsQBQAAAAAAAAAAAAAA2DmBKCzvYeQx1dORr4dG9LMgOvbbIxCtUxuIWhDdF4EoAAAAAAAAAAAAAABApwSisLBSSomIzya3n4mId418vVUg2npBNIs6h2EYDq2lWhBdjkC0b59Irr9vxlljgaj3EgAAAAAAAAAAAAAAYGUEotDGy8n1Sy2IjgWiLRdEIw7HoALR5Xyq8vMC0X35g+T6nEA0ey/ffhy+AwAAAAAAAAAAAAAAsCICUWgjWxC9VCBaG3COXa9ZEM3OSQPRUspYzMoX+ljl5wWi+5IFou9N1nvHZAuib1WeAwAAAAAAAAAAAAAAwBkIRKGNLBB9Jva5IFp7frpUOHIOh/1W5ed/o8lTcCl/mFy/HxFfVnmWQBQAAAAAAAAAAAAAAGBDBKLQxsvJ9bEF0RIRb7R5nNHwMvsduMSCqEC03nMR8erEz74QeVDINo39/+d7K88SiAIAAAAAAAAAAAAAAGyIQBTayBZExwLR10sppdHzjC18ZrFm9vsgEF2Rx/+e+ejEj/9Kw3+PcRnPRf5+v6/yrCwQ9V4CAAAAAAAAAAAAAACskEAU2sgC0Wci4l3Jvc81epaIZRdED50lEL2s/zfxc7/S9Ck4u1LKW/EoEj3kKyuPsyAKAAAAAAAAAAAAAACwIQJRaOPl5PrYgmjLQHQrC6Jjz0nuFyZ+7n83fQou5YXk+rOV5whEAQAAAAAAAAAAAAAANkQgCm2MLYheIhCdsyCaXT901ljYeeicmrM5bkog+lIIRPfqpeT6s5XnCEQBAAAAAAAAAAAAAAA2RCAKbWSB6JYWRGtWPpdaEBWIzvOhOL6++h9KKVfneBjO7kFy/dnKc7L3UiAKAAAAAAAAAAAAAACwQgJRaOPl5PpeF0QFohdUSnklxtdBryLi+8/0OJzfg+T6s5XnWBAFAAAAAAAAAAAAAADYEIEotPEguf5lEfGe5N7rbR4lIiLKyD0LovvwT0fu/f1Syu+d7Uk4twfJ9WcrzxGIAgAAAAAAAAAAAAAAbIhAFNr4dHL9HRHx3uReswXRUkqJw2FnhAXRXSil/GhE/Ns7lx9GxHeXUu5eZ18eJNefrTxHIAoAAAAAAAAAAAAAALAhWQwCnCYLRCMi/kxy/UGD57jtOg5Hn0ssiGbxaVT+mQLR03xPRPxIRHxHRLwYEf+ylPI7l30kzuBBcv3ZynOy/0zgvQQAAAAAAAAAAAAAAFghgSi0MRaIfm1y/UGD57jNgujOlVLejogffPw/9ONBcv3ZynMsiAIAAAAAAAAAAAAAAGxIFoABJyilvBYRryW3n0muP2jzNH8kiy+z34GaBVGBKFzOg+T6l1SeIxAFAAAAAAAAAAAAAADYEIEotDO2InrIgxYPcUu2IJrFmtnvQ8tANHtGIPcguf7FwzDULIULRAEAAAAAAAAAAAAAADZEIArtrC0QXWpB9NA5tYFo9mdaEIV6D0bufXHFOdk7LxAFAAAAAAAAAAAAAABYIYEotPNc5ecftHiIW1ouiI4tfx46pyY+Bca9NnLvXRXnWBAFAAAAAAAAAAAAAADYEIEotLP1BdGalc/aBVGBKCzncyP33l1xjkAUAAAAAAAAAAAAAABgQwSi0E5tIPpSk6f4Y7ULotn1Q+cIROFyxgLR91ScIxAFAAAAAAAAAAAAAADYEIEotGNB9BGBKLTVekHUewkAAAAAAAAAAAAAALBCAlFo57nKzz9o8RC3WBCFfXoYESW5t0QgakEUAAAAAAAAAAAAAABghQSi0E7Nguh1RLzS6kEea7kgmsVp2TkCUVhIKaVEviIqEAUAAAAAAAAAAAAAANgpgSi0UxOIfqaUki18LqXZgujjQK3mfIEoLCsLRN9TcYZAFAAAAAAAAAAAAAAAYEMEotBOTSBa89m5soBziQXRsesCUWhviQXR7L0UiAIAAAAAAAAAAAAAAKyQQBTaeSHyKPOucwSiWXyZ/Q5MXhA9cn5NINp6RRX26rXkek0gakEUAAAAAAAAAAAAAABgQwSi0Egp5e2I+NTEj19yQTSLNbPfhyUC0dp1UmDcEguiAlEAAAAAAAAAAAAAAIANEYhCW78z8XNbWhDNzsnC0UPn154NjMsC0fdUnJEFot5LAAAAAAAAAAAAAACAFRKIQltTA9Hnmz7FI2taEBWIwrIsiAIAAAAAAAAAAAAAAHRGIAptbXlBNLuenSMQhct5LbkuEAUAAAAAAAAAAAAAANgpgSi0NTUQfa7pUzxSuyCaXbcgCutjQRQAAAAAAAAAAAAAAKAzAlFo6xMTP/fxlg/xWE3AGVG/IFoToApEYVlZIPqeijMEogAAAAAAAAAAAAAAABsiEIW2fnPi584RiGYBZ/Y7sNSC6KHzBaKwrCUWRLP3UiAKAAAAAAAAAAAAAACwQgJRaOsTEfHGkc88X0p55QzPUhNwjl3PzqlZKBWIwrKyQPRdFWdYEAUAAAAAAAAAAAAAANgQgSg0VEp5OyI+cuRj51gPjciXP7NYc6kF0ZpANDsbGJeF6O+sOEMgCgAAAAAAAAAAAAAAsCECUWjvN47c/9hZnmJdC6K1ZwPjWgai3ksAAAAAAAAAAAAAAIAVEohCex84cv8nz/IU7RdEs+uHfmeys4VoMI8FUQAAAAAAAAAAAAAAgM4IRKG9H4iI55N7b0XED53pOZZaEM1C0JoFUYEoLEsgCgAAAAAAAAAAAAAA0BmBKDRWSnklIr4nIsqB2/++lPKZMz3KUguiWcQpEIXLEYgCAAAAAAAAAAAAAAB0RiAKZ1BK+eGI+K6I+PStyz8eEd97xsewIAr7JRAFAAAAAAAAAAAAAADoTBaDAAsrpfzgMAw/HBF/ISI+GxEfLqUcWhVtpXZBNAtELYjC+iwRiGbvpUAUAAAAAAAAAAAAAABghQSicEallDcj4qcv9MfXBJxj17PQNLt+KDQViMKyskD0qYozLIgCAAAAAAAAAAAAAABsSLYQCOxPTcA5dt2CKKzPEguiAlEAAAAAAAAAAAAAAIANEYhCP1oviApE4XKyQPSJYRimroVnn/NeAgAAAAAAAAAAAAAArJBAFPqxhQXR7BmBcVkgGjF9RdSCKAAAAAAAAAAAAAAAwIYIRKEfa1oQrY1PgXECUQAAAAAAAAAAAAAAgM4IRKEfrRdEa87P4lOBKMwjEAUAAAAAAAAAAAAAAOiMQBT6saYFUYEoLEsgCgAAAAAAAAAAAAAA0BmBKPQjiy9rF0QForA+SwSi2XspEAUAAAAAAAAAAAAAAFghgSj0Iws7axdEs4hTIAqXc1IgOgzDExExJLcFogAAAAAAAAAAAAAAACskEIV+WBCF/Tp1QfTeyD2BKAAAAAAAAAAAAAAAwAoJRKEftQui2e9DFnFm5x86RyAKy2oZiHovAQAAAAAAAAAAAAAAVkggCv2oXRDNIk4LorA+b47csyAKAAAAAAAAAAAAAACwQwJR6EfrBdElAtHsGYERpZQS+YqoQBQAAAAAAAAAAAAAAGCHBKLQjzUtiNbGp8BxAlEAAAAAAAAAAAAAAICOCEShH1tYEBWIwnwCUQAAAAAAAAAAAAAAgI4IRKEfrRdEs+uHzheIwvJOCUSzdzJCIAoAAAAAAAAAAAAAALBKAlHohwVR2LcsEH1qwnctiAIAAAAAAAAAAAAAAGyMQBT60XpBVCAKl3WVXH/HhO8KRAEAAAAAAAAAAAAAADZGIAr9WGpBVCAK69QqEPVeAgAAAAAAAAAAAAAArJBAFPpRE3COXc/OEYjCZb2ZXLcgCgAAAAAAAAAAAAAAsEMCUehHtvyZ/Q7ULojWnC8QheVlgej9Cd8ViAIAAAAAAAAAAAAAAGyMQBT6Ubsgmv0+WBCFdbIgCgAAAAAAAAAAAAAA0BGBKPSjdkE0izizc5YIRLOzgeNOCUSzdzJCIAoAAAAAAAAAAAAAALBKAlHox5oWRGvPBo67Sq5bEAUAAAAAAAAAAAAAANghgSj0Y/KC6DAMQ0QMlecssSAqEIX5TlkQHQtEvZcAAAAAAAAAAAAAAAArJBCFfiyx8Dl2zuQANfkzx84GjmsRiL5dSikznwcAAAAAAAAAAAAAAICGBKLQjyy+rAk4I05cED2yTioQhfmyQPT+hO+mgejMZwEAAAAAAAAAAAAAAKAxgSj0Iws7l1oQnbpQOhafitFgvhYLom/NfBYAAAAAAAAAAAAAAAAaE4hCP1axIHrkbIEozHeVXJ8SiGafyaJTAAAAAAAAAAAAAAAALkwgCv1YakFUIArrdMqCqEAUAAAAAAAAAAAAAABgYwSi0I+lFkSzc7Jw9O75AlFo45RA9F5y/a2ZzwIAAAAAAAAAAAAAAEBjAlHoxxYWRLOzgeMsiAIAAAAAAAAAAAAAAHREIAr9qFkQHfttyM6ZGojOORs4Los570/4rgVRAAAAAAAAAAAAAACAjRGIQj9qFkTnrHwusSAqEIX5LIgCAAAAAAAAAAAAAAB0RCAK/Wi9IJotDd5dJhSIQhtXyfUpgagFUQAAAAAAAAAAAAAAgI0RiEI/LIjCvlkQBQAAAAAAAAAAAAAA6IhAFPrRekFUIAqX1SIQtSAKAAAAAAAAAAAAAACwUgJR6IcFUdi3UwLRe5VnAgAAAAAAAAAAAAAAcGECUejH1IAzwoIobFEWc96f8N0sIhWIAgAAAAAAAAAAAAAArJRAFPqRLX8e+h2YsyD6VnL97jKhQBTauEqun7Igmr3XAAAAAAAAAAAAAAAAXJhAFPqx1IJoFohaEIXLytY+pwSiFkQBAAAAAAAAAAAAAAA2RiAK/VhqQTSLOJcIRLNnBI47JRC1IAoAAAAAAAAAAAAAALAxAlHox1oWRMfOtiAK81kQBQAAAAAAAAAAAAAA6IhAFPpRsyA6J+LMlgbvLhPOWScFjrMgCgAAAAAAAAAAAAAA0BGBKPSjZkF0LOI8dUFUIAptXCXX70/4rgVRAAAAAAAAAAAAAACAjRGIQj+y+HKpBVGBKFzWKQuiAlEAAAAAAAAAAAAAAICNEYhCP7LlzxiG4e5vgQVR2J4s5nziwDt+173k+lsnPA8AAAAAAAAAAAAAAAANCUShH2Px5d3fgjkLollI9sQwDMOtvxeIQhtja5/HVkQtiAIAAAAAAAAAAAAAAGyMQBT6kS6IRt3KZ+2C6N3z5pwNHHdKIGpBFAAAAAAAAAAAAAAAYGMEotCP1guipwai16WUMnIGMG4sEL1/5LsWRAEAAAAAAAAAAAAAADZGIAr9WGpBNIs4Tw5ER74PHHc1cs+CKAAAAAAAAAAAAAAAwM4IRKEfSyyIlpGVz7Hzb8dn2dlj3weOG1v7PBaIWhAFAAAAAAAAAAAAAADYGIEo9GOJBdGxiHNsaXDKgqhAFE7TIhC1IAoAAAAAAAAAAAAAALBSAlHoxxILomOR6dj5t6PQe8lnhGhwmlMC0ey9tCAKAAAAAAAAAAAAAACwUgJR6EfNgmj22zAWgU4NRC2IQhstFkQFogAAAAAAAAAAAAAAACslEIV+1CyIZhHnEguiAlFo42rk3v0j37XsCwAAAAAAAAAAAAAAsDECUehHzYLonIhzLCS7HZ8JRKENC6IAAAAAAAAAAAAAAAAdEYhCP6YufB76+ylnWBCFyzolELUgCgAAAAAAAAAAAAAAsDECUejH2ILo3d+C7Ldh7IypgagQDdqwIAoAAAAAAAAAAAAAANARgSj0w4Io7FgppUT+HlkQBQAAAAAAAAAAAAAA2BmBKPSjZkF0TsQ5FpLdjs8EotDOVXLdgigAAAAAAAAAAAAAAMDOCEShHxZEYf+yoPP+ke9lgagFUQAAAAAAAAAAAAAAgJUSiEI/ahZEs9+GsTOmBqL3ks8I0eB0WSB6bEE0ey8tiAIAAAAAAAAAAAAAAKyUQBT6YUEU9m9uIJrdF4gCAAAAAAAAAAAAAACslEAU+jEWYN79LZgTcY4tgN5eJxSIQjtLL4ha9gUAAAAAAAAAAAAAAFgpgSj043rkngVR2Ier5LoFUQAAAAAAAAAAAAAAgJ0RiEI/ahZEs9+Gscj01EDUUiGczoIoAAAAAAAAAAAAAABAJwSi0I/WC6JTz89CNAuicLosEL2ffWEYhicjYqg8DwAAAAAAAAAAAAAAgAsTiEI/ahZEqwPRUkqJPBKdsiAqEIXTzVkQzaLtCAuiAAAAAAAAAAAAAAAAqyUQhX7ULIhmvw3HIs4sJrsdoAlEoZ05gejYPQuiAAAAAAAAAAAAAAAAKyUQhX4ssSA6FpmO/RkWROE8lg5ELYgCAAAAAAAAAAAAAACslEAU+lFG7t2NNudGnFMC0XvJZ4RocLqr5PpYBJq9kxEWRAEAAAAAAAAAAAAAAFZLIAqdKKWUyBdApy6ILhGIWhCFdpZeEBWIAgAAAAAAAAAAAAAArJRAFPqSBaJ3o83styH7/o1sBfT2QqFAFNrJgs77I98ZWxC17AsAAAAAAAAAAAAAALBSAlHoSxZhWhCFfbAgCgAAAAAAAAAAAAAA0AmBKPRl6oLoJQJRS4VwujmBqAVRAAAAAAAAAAAAAACADRKIQl+mBJyH/v7Y92vOz2I0C6JwuqvkugVRAAAAAAAAAAAAAACAnRGIQl+yBdG7vwXZb0P2/RvZ2uDtKHRufAocN2dBdOyeBVEAAAAAAAAAAAAAAICVEohCX9awICoQhXayQPT+yHeyVd+x8wAAAAAAAAAAAAAAALgwgSj0ZeqC6CUCUUuFcLqlF0QFogAAAAAAAAAAAAAAACslEIW+rGFBNFsrtCAKp5sTiI4tiAq3AQAAAAAAAAAAAAAAVkogCn2ZuiCa/TZk37+RRZ63A7S58Slw3FVyfc6CaCmleC8BAAAAAAAAAAAAAABWSiAKfWm9IJqtDT6Z/HXN2cBxSy6IWg8FAAAAAAAAAAAAAABYMYEo9CWLMO/+FsyNOKcEqAJRaGdOIJrdy84CAAAAAAAAAAAAAABgBQSi0Jfr5PrdaDP7bWgZiForhNNZEAUAAAAAAAAAAAAAAOiEQBT6cuqCaBaYHjv/9nlZjGZBFE6XRZ3ZexdhQRQAAAAAAAAAAAAAAGCTBKLQl6kLolkgeizinBKnzT0bOG7Ogmh2z4IoAAAAAAAAAAAAAADAiglEoS+nLogeizinLIgKRKGdLOocC0SzdVELogAAAAAAAAAAAAAAACsmEIW+TF0QzX4bWgai1grhdFnUmUWgEXk8KhAFAAAAAAAAAAAAAABYMYEo9OXUBdEsMD12vgVROI8s6pyzICraBgAAAAAAAAAAAAAAWDGBKPRl6oLo3IgzC8ruJX9dczZw3JR38C4LogAAAAAAAAAAAAAAABskEIW+nLogeizitCAKl2VBFAAAAAAAAAAAAAAAoBMCUejL1AXR7Lch+/4NgShclgVRAAAAAAAAAAAAAACATghEoS9rXhC1VginsyAKAAAAAAAAAAAAAADQCYEo9GXqgujSgei95K9rzgaOsyAKAAAAAAAAAAAAAADQCYEo9GXKwuehvz/2/RtZnDZlQVQgCqebsyCa3bMgCgAAAAAAAAAAAAAAsGICUehLtiB697cg+23Ivn9jSoAqEIV2sqhzLBDN1kUtiAIAAAAAAAAAAAAAAKyYQBT60npB9JRA1FohnC6LOp8YhiH7v/lZPCoQBQAAAAAAAAAAAAAAWDGBKPRl6oLoJQJRC6JwurGoM1sKza6LtgEAAAAAAAAAAAAAAFZMIAp9ab0gmgVl95K/rjkbOG4s6szePQuiAAAAAAAAAAAAAAAAGyQQhb5MXRDNfhuy79+wIAqXNRZ1ZiGoBVEAAAAAAAAAAAAAAIANEohCX1oviJ4SiIrR4HQWRAEAAAAAAAAAAAAAADohEIW+ZAHn3d+CSwSiFkThdHMWRLProm0AAAAAAAAAAAAAAIAVE4hCX66T63ejzey34VjEmQVl95K/rjkbOG4s6qwNRK9OfBYAAAAAAAAAAAAAAAAaEohCX05dEM0C02PnWxCF8xhbEM3i7PvJdYEoAAAAAAAAAAAAAADAiglEoS9TF0TnRpwCUbgsC6IAAAAAAAAAAAAAAACdEIhCX05dEG0ZiI6FbcA0Sy6Ijp0FAAAAAAAAAAAAAADAhQlEoS9TF0Sz34bs+zeyyPN2mGZBFNoZizqzpdAsELUgCgAAAAAAAAAAAAAAsGICUejLRRdEh2EYDvxZU88Gjhtb4q1dEBWIAgAAAAAAAAAAAAAArJhAFPoydUG0SSA6cu6Us4HjLIgCAAAAAAAAAAAAAAB0QiAKfbnogujIuRHjy4fANBZEAQAAAAAAAAAAAAAAOiEQhb5MXRDNfhuy79/IAtGbMM2CKLQ19h5lC6LZdYEoAAAAAAAAAAAAAADAiglEoS/HFj6zvz/2/RvZeuHNedmC4ZSzgSNKKSXy9zALQS2IAgAAAAAAAAAAAAAAbJBAFPqSLYDe/S2YG4geC1AtiEJ7bybXs0A7C0SzcwAAAAAAAAAAAAAAAFgBgSj0pfWC6CmBaLZ6CNSxIAoAAAAAAAAAAAAAANABgSj0ZeqCaPbbkH3/hgVRuLylFkQFogAAAAAAAAAAAAAAACsmEIW+tF4QzZYLb8I0gSi0Z0EUAAAAAAAAAAAAAACgAwJR6MvUBdG5geixADVbMJxyNjBN7YJoFo4KRAEAAAAAAAAAAAAAAFZMIAp9mbogmv02nBqIWhCF9rJA9AtC0GEYhrAgCgAAAAAAAAAAAAAAsEkCUejLqQui2fdvnBKIvnXkbGCa7F06tBQ6tuqbhaYAAAAAAAAAAAAAAACsgEAU+jJ1QTQLOY+tfGZh2k2EZkEU2svCzkMxaLYeGmFBFAAAAAAAAAAAAAAAYNUEotCXLML8o9+CYRjGfheORZzHAtSxtUKBKCyjZkFUIAoAAAAAAAAAAAAAALBRAlHoy3Vy/fayZ8tA1IIotGdBFAAAAAAAAAAAAAAAoAMCUejL0QXRGI84s8D02PlTAtFs9RCoU7MgeujaDYEoAAAAAAAAAAAAAADAiglEoS9TFkRPWfnM7t8sF1oQhfYsiAIAAAAAAAAAAAAAAHRAIAp9OXVB9FjEmS0XTlkQFYjCMmoWRAWiAAAAAAAAAAAAAAAAGyUQhb5MWRAd+13Ivn8jDVCHYRji8ILhse8CdZZaEM3OAQAAAAAAAAAAAAAAYAUEotCXLMJ8Mvnrqd+fcv+JE88GpsnCTguiAAAAAAAAAAAAAAAAOyIQhb5MWRBtFYg+eeTsY+ukwDRvJdcFogAAAAAAAAAAAAAAADsiEIW+tF4QzcK0iIh7I2e/XUopR84GpskWRO8duHYoGj12DgAAAAAAAAAAAAAAACsgEIW+TAlEx34Xjq18zl0QPRaeAtMtsSD6VinFqi8AAAAAAAAAAAAAAMCKCUShL60XRI8FoocWDKecC0xXsyCaBaJXCz0LAAAAAAAAAAAAAAAAjQhEoS9ZiHn7t6BlIJqdnS0eAvWWWBDNIlMAAAAAAAAAAAAAAABWQiAKfWm9IDoWet4bOduCKCzHgigAAAAAAAAAAAAAAEAHBKLQlymB6NjvwvXM82/+DIEotLfEgqhAFAAAAAAAAAAAAAAAYOUEotCX1guixwLRQwuGU84FpqtZED0UjUYIRAEAAAAAAAAAAAAAAFZPIAp9uXQgmp2dLR4C9bJA1IIoAAAAAAAAAAAAAADAjghEoS9TAtGx34VjgehY6Hkv8kDUgigsJ3sPBaIAAAAAAAAAAAAAAAA7IhCFvpy6IHo98/ybcwWi0F62IHrvwDWBKAAAAAAAAAAAAAAAwEYJRKEvpwaiFkRh/ZZYEM0iUwAAAAAAAAAAAAAAAFZCIAp9uWQg+mQcXjCcci4wnQVRAAAAAAAAAAAAAACADghEoS9TAtGx34XrI+fPXRAd+x5Qp2ZB9NC1CIEoAAAAAAAAAAAAAADA6glEoS+XXBAdC0QtiMJyLIgCAAAAAAAAAAAAAAB0QCAKfRGIwv7VLIgKRAEAAAAAAAAAAAAAADZKIAp9yULMYRiG4fFfjwWi1zPPj3gUiB5aMDz2PaBOtiAqEAUAAAAAAAAAAAAAANgRgSj0ZSzEvAlDs9+FUkopR84fC0jHFkTHlkeBOlkgeijQFogCAAAAAAAAAAAAAABslEAU+jIlEM0izqMrn48D0iz2HAtELYjCcrJ3sGZBNItMAQAAAAAAAAAAAAAAWAmBKPSlaSD6mEAULqtmQfRQNBphQRQAAAAAAAAAAAAAAGD1BKLQF4Eo7N8SC6ICUQAAAAAAAAAAAAAAgJUTiEJfpgSi2e/C9cQ/YywQPbRgOPYdoF7NgqhAFAAAAAAAAAAAAAAAYKMEotAXC6KwfxZEAQAAAAAAAAAAAAAAOiAQhb4IRGH/LIgCAAAAAAAAAAAAAAB0QCAKfZkSiGa/CwJR2IYlFkSzyBQAAAAAAAAAAAAAAICVEIhCX05ZEL2e+GeMBaKHFgwjBKKwpCzufHIYhuHOtUPRaIQFUQAAAAAAAAAAAAAAgNUTiEJfTglEWy6IZt8B6o2tf96NtLMFUYEoAAAAAAAAAAAAAADAyglEoS9rDUQtiMJyxoLru4uhAlEAAAAAAAAAAAAAAICNEohCX6YEotnvwvXEP0MgCpdlQRQAAAAAAAAAAAAAAKADAlHoiwVR2D8LogAAAAAAAAAAAAAAAB0QiEJfLh2I3l0vPPYdoJ4FUQAAAAAAAAAAAAAAgA4IRKEvlw5ELYhCezULonf//sZYZAoAAAAAAAAAAAAAAMAKCEShL1MC0ex34XrinzEnELUgCssZizvvBqEWRAEAAAAAAAAAAAAAADZKIAp9ufSC6L3K7wD1xt6nu++gQBQAAAAAAAAAAAAAAGCjBKLQF4Eo7N+kBdFhGIb4wkXRKWcAAAAAAAAAAAAAAACwAgJR6ItAFPZvLO68/Q5m66EREW8s9CwAAAAAAAAAAAAAAAA0IhCFvkwJRLPfheuJf8ZYIJqtFQpEYTlj79Ptd/CdI58TiAIAAAAAAAAAAAAAAKycQBT6YkEU9s+CKAAAAAAAAAAAAAAAQAcEotCRUkqJiJLcFojCPiyxIHq10LMAAAAAAAAAAAAAAADQiEAU+pOFngJR2Iex98mCKAAAAAAAAAAAAAAAwE4IRKE/xwLR7HfheuL5AlG4oMdLwdl7bkEUAAAAAAAAAAAAAABgJwSi0B8LorB/bybXbweiFkQBAAAAAAAAAAAAAAA2TCAK/RGIwv6NvYc3LIgCAAAAAAAAAAAAAABsmEAU+nMsEM1+FwSisB0WRAEAAAAAAAAAAAAAAHZOIAr9mbsgej3xfIEoXF4WiE5dEPVOAgAAAAAAAAAAAAAArJxAFPozNxC1IArbkb1TtxdEs0D0jVJKWfh5AAAAAAAAAAAAAAAAWJhAFPojEIX9m7Igej/5zNXCzwIAAAAAAAAAAAAAAEADAlHoz7FANPtduJ54vkAULu+kBdGFnwUAAAAAAAAAAAAAAIAGBKLQHwuisH+nLIgKRAEAAAAAAAAAAAAAADZAIAr9EYjC/p2yIHq18LMAAAAAAAAAAAAAAADQgEAU+rPGQDRbOwTmyd6p24GoBVEAAAAAAAAAAAAAAIANE4hCf44FotnvwvXE8y2IwuWNvYc3LIgCAAAAAAAAAAAAAABsmEAU+nPJBdF3JPcEorAsC6IAAAAAAAAAAAAAAAA7JxCF/lwqEH0yLIjCuVgQBQAAAAAAAAAAAAAA2DmBKPTnUoHo/YgYKr8DzGNBFAAAAAAAAAAAAAAAYOcEotCfSwWiT834DjBPFohaEAUAAAAAAAAAAAAAANgJgSj051ggei+5PzXiFIjC5WXv1O0F0SwQtSAKAAAAAAAAAAAAAACwAQJR6I8FUdi/bEH0diB6P/mMBVEAAAAAAAAAAAAAAIANEIhCfyyIwv5l79Tt99uCKAAAAAAAAAAAAAAAwIYJRKE/FkRh/05ZEBWIAgAAAAAAAAAAAAAAbIBAFPozNxA9dUF06e8AuVMWRK8WfhYAAAAAAAAAAAAAAAAaEIhCf66T6zdh6L3k/qkLokt/B8hZEAUAAAAAAAAAAAAAANg5gSj0Z+6CqEAUtsOCKAAAAAAAAAAAAAAAwM4JRKE/xwLRbEF0asQpEIXLsyAKAAAAAAAAAAAAAACwcwJR6I8FUdi/LBC1IAoAAAAAAAAAAAAAALATAlHojwVR2L/snbq9IJoFohZEAQAAAAAAAAAAAAAANkAgCv2xIAr7ly2I3g5E7yefsSAKAAAAAAAAAAAAAACwAQJR6M/cQNSCKGxH9k7dXgi2IAoAAAAAAAAAAAAAALBhAlHoz7FA9F5y34IobMcpC6ICUQAAAAAAAAAAAAAAgA0QiEJ/5i6ICkRhO05ZEL1a+FkAAAAAAAAAAAAAAABoQCAK/Zm7IDo14qyNPUsp5bryO8A4C6IAAAAAAAAAAAAAAAA7JxCF/qxtQdR6KCzPgigAAAAAAAAAAAAAAMDOCUShP2tbEBWIwvIsiAIAAAAAAAAAAAAAAOycQBT6Y0EU9m80EB2GYYg8ELUgCgAAAAAAAAAAAAAAsAECUejP3EDUgihsR/Ze3SwEZ3FohAVRAAAAAAAAAAAAAACATRCIQn+OBaL3kvutFkSzpUNgvtEF0RgPRC2IAgAAAAAAAAAAAAAAbIBAFPqThZ43vwfZgqhAFLbj2ILoO0e+a0EUAAAAAAAAAAAAAABgAwSi0J+5C6JTw0+BKFyeBVEAAAAAAAAAAAAAAICdE4hCf44FohZEYfssiAIAAAAAAAAAAAAAAOycQBT6Y0EU9u+UBVGBKAAAAAAAAAAAAAAAwAYIRKE/aSA6DMPYb4IFUdiOUxZErxZ+FgAAAAAAAAAAAAAAABoQiEJ/xhZEn0zuRUwPP6/rHkcgCg1k79W9YRiGsCAKAAAAAAAAAAAAAACweQJR6M9YIHovuTf2vc9TSilRtyIqEIXljb1X98KCKAAAAAAAAAAAAAAAwOYJRKE/cxdEJwWijwlE4bLG3sFjgah3EgAAAAAAAAAAAAAAYAMEotCfuQuiNdGnQBQua+y9ekdE3E/uXT1eAQYAAAAAAAAAAAAAAGDlBKLQHwuisH9zF0TfaPAsAAAAAAAAAAAAAAAANCAQhf5YEIX9m70g2uBZAAAAAAAAAAAAAAAAaEAgCv2xIAr7d2xB9Knk3sMGzwIAAAAAAAAAAAAAAEADAlHoz9xAtNWCqMVCWN6xBdF3Jfdeb/AsAAAAAAAAAAAAAAAANCAQhf6MBaL3ZnzvEAuicFlj76BAFAAAAAAAAAAAAAAAYAcEotCfuQuiAlHYjrH36l7kgejDBs8CAAAAAAAAAAAAAABAAwJR6M/cBdGa6FMgCpc19l5ZEAUAAAAAAAAAAAAAANgBgSj0x4Io7N/YOzi2ICoQBQAAAAAAAAAAAAAA2AiBKPTHgijsnwVRAAAAAAAAAAAAAACAnROIQn8siML+WRAFAAAAAAAAAAAAAADYOYEo9GduIGpBFLZj7B20IAoAAAAAAAAAAAAAALADAlHoz1ggem/G9w4RiMIFlVKuI+I6uX0vIp5K7glEAQAAAAAAAAAAAAAANkIgCv2ZuyAqEIVtyd4tC6IAAAAAAAAAAAAAAAA7IBCF/lgQhT5k76FAFAAAAAAAAAAAAAAAYAcEotCfOQuipZRyXfFn1ESfAlFoI3u37kUeiD5s9CwAAAAAAAAAAAAAAAAsTCAK/ZmzIFqzCBoRcVXxWYEotJG9WxZEAQAAAAAAAAAAAAAAdkAgCv2ZsyCafSdjQRQuLwu7xxZEBaIAAAAAAAAAAAAAAAAbIRCF/ozFnu9IrlsQhe2xIAoAAAAAAAAAAAAAALBjAlHoz1ggen/Gdw6xIAqXZ0EUAAAAAAAAAAAAAABgxwSi0J+x2POdM75zSM2CaM1ngeksiAIAAAAAAAAAAAAAAOyYQBT6MycQrV35tCAKl5ctiApEAQAAAAAAAAAAAAAAdkAgCv2ZE4hmoVmmZhVUIAptZO/WuyNiSO4JRAEAAAAAAAAAAAAAADZCIAr9OUcgakEULi97b58e+Y5AFAAAAAAAAAAAAAAAYCMEotAfC6LQhzeS68+MfOdhiwcBAAAAAAAAAAAAAABgeQJR6M/aFkRrYlJguiwQfXbkOxZEAQAAAAAAAAAAAAAANkIgCv1Z24JoFrEBpxGIAgAAAAAAAAAAAAAA7JhAFPpjQRT6IBAFAAAAAAAAAAAAAADYMYEo9MeCKPRBIAoAAAAAAAAAAAAAALBjAlHoz9oWRAWi0EZtIHodde8uAAAAAAAAAAAAAAAAFyQQhf6MBaJPJddbLojWfBaYrjYQfb2UUho9CwAAAAAAAAAAAAAAAAsTiEJ/LIhCHx4m19+dXH+91YMAAAAAAAAAAAAAAACwPIEo9Gcs9lwqEK1ZBRWIQhu175ZAFAAAAAAAAAAAAAAAYEMEotCfsdjzqRnfOaRmQbQmJgWmE4gCAAAAAAAAAAAAAADsmEAU+nOOQLQm+hSIQhu1gejDJk8BAAAAAAAAAAAAAABAEwJR6M+aFkSvSiml8mxgGguiAAAAAAAAAAAAAAAAOyYQhf6saUHUeii0IxAFAAAAAAAAAAAAAADYMYEo9OftkXvnXhCtDdiA6QSiAAAAAAAAAAAAAAAAOyYQhc6UUkrkkagFUdgPgSgAAAAAAAAAAAAAAMCOCUShT1nwmQWiUxdBaz9vQRTaEYgCAAAAAAAAAAAAAADsmEAU+rSWBVGBKLQjEAUAAAAAAAAAAAAAANgxgSj0qXZBtDYQnbogOjUkBeoJRAEAAAAAAAAAAAAAAHZMIAp9yoLP+5Wfz1gQhct7WPl5gSgAAAAAAAAAAAAAAMCGCEShT7XBZ6sFUYEotFP7fr3a5CkAAAAAAAAAAAAAAABoQiAKfWodiE5dEJ36OaCeQBQAAAAAAAAAAAAAAGDHBKLQp7UEohZEoR2BKAAAAAAAAAAAAAAAwI4JRKFPrQPRhxM/JxCFdmrfr9eaPAUAAAAAAAAAAAAAAABNCEShT60D0alh2tSlUaCeBVEAAAAAAAAAAAAAAIAdE4hCn5oGoqWUEtNWRC2IQjtTl3xvWBAFAAAAAAAAAAAAAADYEIEo9Kn1gmiEQBQurTb4tCAKAAAAAAAAAAAAAACwIQJR6NM5AtHXJ3zmasa5wDRT3sHbBKIAAAAAAAAAAAAAAAAbIhCFPq0lEJ2yMgrMUEp5MyLerPhK7eIoAAAAAAAAAAAAAAAAFyQQhT6dIxCdEn8K0qCtz1V81oIoAAAAAAAAAAAAAADAhghEoU9rWRCtideAejURtkAUAAAAAAAAAAAAAABgQwSi0Ke3Kz/fakFUIAptTX3HriPijZYPAgAAAAAAAAAAAAAAwLIEotAnC6LQh6nv2KullNL0SQAAAAAAAAAAAAAAAFiUQBT6JBCFPkx9x15r+hQAAAAAAAAAAAAAAAAsTiAKfTpHIPpwwmcEotDW1PDzlaZPAQAAAAAAAAAAAAAAwOIEotAnC6LQh6nv2IOWDwEAAAAAAAAAAAAAAMDyBKLQJwui0Iep79jLTZ8CAAAAAAAAAAAAAACAxQlEoU8WRKEPAlEAAAAAAAAAAAAAAICdEohCnwSi0IfXJn5OIAoAAAAAAAAAAAAAALAxAlHoU23w+eaMP+PhhM9MjdeAeSyIAgAAAAAAAAAAAAAA7JRAFPpUG4i+PePPsCAKlycQBQAAAAAAAAAAAAAA2CmBKPSpNhC9mvFnTFkQFYhCWwJRAAAAAAAAAAAAAACAnRKIQp9qA9E3Z/wZUxZEp0SkwHyvTPycQBQAAAAAAAAAAAAAAGBjBKLQp3MEog+O3H+9lHI941xgugcLfw4AAAAAAAAAAAAAAICVEIhCn84RiH7myP3PzTgTqPPSxM9ZEAUAAAAAAAAAAAAAANgYgSj0aQ2B6KszzgTqCEQBAAAAAAAAAAAAAAB2SiAKfXq78vMtAtFPzTgTqPPixM99uulTAAAAAAAAAAAAAAAAsDiBKPTpHAuiLxy5LxCF9qYuiD7f9CkAAAAAAAAAAAAAAABYnEAU+tQ8EC2lXEXEKyMf+WTtmUC1B1M+U0p5o/WDAAAAAAAAAAAAAAAAsCyBKPTpHAuiERGfGblnQRQaK6W8HRGfPfKxT5/jWQAAAAAAAAAAAAAAAFiWQBT6tIZA1IIonMdLR+4/d5anAAAAAAAAAAAAAAAAYFECUejTuQLR50fuWRCF8zgWiFoQBQAAAAAAAAAAAAAA2CCBKPTpXIHoT4/c+52ZZwJ1xkLtCAuiAAAAAAAAAAAAAAAAmyQQhT7VBJ9vl1KuZ/45/yIiPnbg+ici4ldmngnU+Y0j9z95lqcAAAAAAAAAAAAAAABgUQJR6FNNIDp3PTRKKa9ExF+LiF+6dfmFiPjbpZQy91ygyodPvA8AAAAAAAAAAAAAAMAK3bv0AwAXcVXx2dmBaEREKeW3h2H41oj45oh4OiJ+qpTy8JQzgSq/duT+L5/lKQAAAAAAAAAAAAAAAFiUQBT6dJYF0RullKuI+LlTzwFmGQtEPxsRnzjTcwAAAAAAAAAAAAAAALCgJy79AMBFnG1BFLisUsqDiPjvye0fL6WUMz4OAAAAAAAAAAAAAAAACxGIQp/OuiAKXNzfi4iP3rn2dkT8kws8CwAAAAAAAAAAAAAAAAsQiEKfBKLQkVLKH0bEn4+I74uID0bEf4uIby2lfPCiDwYAAAAAAAAAAAAAAMBsQynl0s8AnNkwDN8eET828eO/WUr52nZPAwAAAAAAAAAAAAAAAEAtC6LQJwuiAAAAAAAAAAAAAAAAABsmEIU+CUQBAAAAAAAAAAAAAAAANkwgCn26qvisQBQAAAAAAAAAAAAAAABgZQSi0Kea6LMmJgUAAAAAAAAAAAAAAADgDASi0CcLogAAAAAAAAAAAAAAAAAbJhCFPtVEnwJRAAAAAAAAAAAAAAAAgJURiEKfBKIAAAAAAAAAAAAAAAAAGyYQhT5dVXxWIAoAAAAAAAAAAAAAAACwMgJR6JMFUQAAAAAAAAAAAAAAAIANE4hCnyyIAgAAAAAAAAAAAAAAAGyYQBT6ZEEUAAAAAAAAAAAAAAAAYMMEotCntyo+KxAFAAAAAAAAAAAAAAAAWBmBKHSolFJievgpEAUAAAAAAAAAAAAAAABYGYEo9Gtq+HnV9CkAAAAAAAAAAAAAAAAAqCYQhX5NDUQfNn0KAAAAAAAAAAAAAAAAAKoJRKFfU5dB32j6FAAAAAAAAAAAAAAAAABUE4hCvyyIAgAAAAAAAAAAAAAAAGyUQBT6ZUEUAAAAAAAAAAAAAAAAYKMEotAvC6IAAAAAAAAAAAAAAAAAGyUQhX4JRAEAAAAAAAAAAAAAAAA2SiAK/bqa+Lk3mj4FAAAAAAAAAAAAAAAAANUEotAvC6IAAAAAAAAAAAAAAAAAGyUQhX5NXRAViAIAAAAAAAAAAAAAAACsjEAU+jV1QfSNpk8BAAAAAAAAAAAAAAAAQDWBKPRravhpQRQAAAAAAAAAAAAAAABgZQSi0K/XJ35OIAoAAAAAAAAAAAAAAACwMgJR6NfU8HPq0igAAAAAAAAAAAAAAAAAZyIQhX5ZEAUAAAAAAAAAAAAAAADYKIEo9Gtq+CkQBQAAAAAAAAAAAAAAAFgZgSj0a+qC6BtNnwIAAAAAAAAAAAAAAACAagJR6NfUQNSCKAAAAAAAAAAAAAAAAMDKCEShX1PDTwuiAAAAAAAAAAAAAAAAACsjEIV+TV0QFYgCAAAAAAAAAAAAAAAArIxAFPo1ZUH0jVJKaf4kAAAAAAAAAAAAAAAAAFQRiEK/piyIWg8FAAAAAAAAAAAAAAAAWCGBKPRryoLolM8AAAAAAAAAAAAAAAAAcGYCUejXlAXRKZ8BAAAAAAAAAAAAAAAA4MwEotCvKeugrzR/CgAAAAAAAAAAAAAAAACqCUShX1PWQV9t/hQAAAAAAAAAAAAAAAAAVBOIQr+mBKIWRAEAAAAAAAAAAAAAAABWSCAK/Xo44TMWRAEAAAAAAAAAAAAAAABWSCAK/ZqyICoQBQAAAAAAAAAAAAAAAFghgSj0y4IoAAAAAAAAAAAAAAAAwEYJRKFfUxZEX2n+FAAAAAAAAAAAAAAAAABUE4hCv6asg1oQBQAAAAAAAAAAAAAAAFghgSh0qpTyekS8duRjAlEAAAAAAAAAAAAAAACAFRKIQt+eP3L/lbM8BQAAAAAAAAAAAAAAAABVBKLQt2OBqAVRAAAAAAAAAAAAAAAAgBUSiELfBKIAAAAAAAAAAAAAAAAAGyQQhb4JRAEAAAAAAAAAAAAAAAA2SCAKfTsWiL54lqcAAAAAAAAAAAAAAAAAoIpAFPp2LBD9+FmeAgAAAAAAAAAAAAAAAIAqAlHo23Mj914rpbxyticBAAAAAAAAAAAAAAAAYDKBKPTtQyP33nO2pwAAAAAAAAAAAAAAAACgikAU+vbhkXs/fq6HAAAAAAAAAAAAAAAAAKCOQBQ6Vkq5joj/nNz+H+d8FgAAAAAAAAAAAAAAAACmG0opl34G4IKGYfiWiPj5iBhuXX4YEe8vpTx/macCAAAAAAAAAAAAAAAAYIwFUehcKeUXI+K7I+IPHl/6rYj4DnEoAAAAAAAAAAAAAAAAwHpZEAUiImIYhnsRUUopb1/6WQAAAAAAAAAAAAAAAAAYJxAFAAAAAAAAAAAAAAAAANiYJy79AAAAAAAAAAAAAAAAAAAA1BGIAgAAAAAAAAAAAAAAAABsjEAUAAAAAAAAAAAAAAAAAGBjBKIAAAAAAAAAAAAAAAAAABsjEAUAAAAAAAAAAAAAAAAA2BiBKAAAAAAAAAAAAAAAAADAxghEAQAAAAAAAAAAAAAAAAA2RiAKAAAAAAAAAAAAAAAAALAxAlEAAAAAAAAAAAAAAAAAgI0RiAIAAAAAAAAAAAAAAAAAbIxAFAAAAAAAAAAAAAAAAABgYwSiAAAAAAAAAAAAAAAAAAAbIxAFAAAAAAAAAAAAAAAAANgYgSgAAAAAAAAAAAAAAAAAwMYIRAEAAAAAAAAAAAAAAAAANkYgCgAAAAAAAAAAAAAAAACwMQJRAAAAAAAAAAAAAAAAAICNEYgCAAAAAAAAAAAAAAAAAGyMQBQAAAAAAAAAAAAAAAAAYGMEogAAAAAAAAAAAAAAAAAAGyMQBQAAAAAAAAAAAAAAAADYGIEoAAAAAAAAAAAAAAAAAMDGCEQBAAAAAAAAAAAAAAAAADZGIAoAAAAAAAAAAAAAAAAAsDECUQAAAAAAAAAAAAAAAACAjRGIAgAAAAAAAAAAAAAAAABsjEAUAAAAAAAAAAAAAAAAAGBjBKIAAAAAAAAAAAAAAAAAABsjEAUAAAAAAAAAAAAAAAAA2BiBKAAAAAAAAAAAAAAAAADAxghEAQAAAAAAAAAAAAAAAAA2RiAKAAAAAAAAAAAAAAAAALAxAlEAAAAAAAAAAAAAAAAAgI0RiAIAAAAAAAAAAAAAAAAAbIxAFAAAAAAAAAAAAAAAAABgYwSiAAAAAAAAAAAAAAAAAAAbIxAFAAAAAAAAAAAAAAAAANiY/w/XWHzUiAHmiAAAAABJRU5ErkJggg==;" vertex="1" parent="1">
          <mxGeometry x="359.92" y="544.5" width="183.17" height="45.5" as="geometry" />
        </mxCell>
      </root>
    </mxGraphModel>
  </diagram>
</mxfile>
